M48
;Layer_Color=9474304
;FILE_FORMAT=4:4
METRIC
;TYPE=PLATED
T01F00S00C1.0000
T02F00S00C3.5000
T03F00S00C4.0000
T04F00S00C5.5000
;TYPE=NON_PLATED
T05F00S00C3.5000
%
T01
X01600875Y00502031
X01635550Y00618751
X01660950
X01712250Y00594000
X01752750Y00500250
X01855470Y00491750
X01892500
X01886515Y00537250
X01892500Y00581750
X01855470Y00581750
X01867550Y00618750
X01892950
X01546860Y00581750
Y00491750
X01369750Y00493050
Y00518450
X01344930Y00564388
X01285000Y00581750
X01283950Y00618750
X01258550
X01245250Y00581750
Y00491750
X01285000
X01338834Y00673634
X01515300Y00766000
X01540700
X01132250Y00769750
X01114000Y00597000
X01065700Y00619750
X01040300
X00941070Y00581750
Y00491750
X01152750Y00499250
X00934450Y00759410
X00909050
X00861568Y00731266
X00798068Y00662686
X00746750Y00658750
X00736750Y00609750
X00680450Y00619750
X00655050
X00637540Y00581750
X00680750Y00581750
Y00491750
X00637540
X00553000Y00497500
X00509500Y00597250
X00468450Y00619750
X00443050
X00517000Y00706000
X00557000
X00597000
X00771500Y00518450
Y00493050
X00339000Y00491750
Y00581750
X00244750Y00606500
X00203950Y00517500
X00178550
X00123940Y00745650
X00073940
X00365840Y00760410
X00391240
X00393780Y00829220
Y00937980
X00123940Y00959010
X00073940
Y01064420
X00123940
Y01169830
X00073940
Y00852330
X00123940
X00431330Y00853120
X00428630Y00907730
X00431330Y00968690
X00521330
X00563960Y00964880
Y00939480
Y00914080
Y00888680
Y00863280
Y00837880
Y00812480
X00524030Y00797240
X00521330Y00853120
X00524030Y00907730
X00640160Y00914080
Y00939480
Y00964880
Y00888680
Y00863280
Y00837880
Y00812480
X00704930Y00887410
Y00912810
X00698450Y01060600
X00611550Y01060600
X00433750
X00428630Y00797240
X00941750Y00828220
X00986750Y00852120
X00984050Y00906730
X00986750Y00967690
X01005840Y01007110
X01026922Y00935750
X01079450Y00906730
X01076750Y00852120
X01079450Y00796240
X01132670Y00811480
Y00836880
Y00862280
Y00887680
Y00913080
Y00938480
Y00963880
X01076750Y00967690
X00941750Y00936980
X00883666Y00928116
X00871000Y00969500
X00876250Y01060600
X00909066Y00879094
X00984050Y00796240
X01164250Y01064050
Y01089450
X01151275Y01147800
Y01173200
X01230675
Y01147800
X01257000Y01062500
X01252728Y01005078
X01208870Y00963880
Y00938480
Y00913080
Y00887680
Y00862280
Y00836880
Y00811480
X01271750Y00886410
Y00911810
X01338834Y01090441
X01409800Y01172500
X01435200
X01460600
X01486000
X01511400
X01536800
X01562200
X01548000Y00945230
Y00836470
X01484122Y00817626
X01589300Y00804500
X01598000Y00855000
X01600300Y00914980
X01603000Y00975940
X01693000
X01731840Y00972130
Y00946730
Y00921330
Y00895930
Y00870530
Y00845130
Y00819730
X01684700Y00804500
X01688000Y00855000
X01695700Y00914980
X01808040Y00921330
Y00946730
Y00972130
Y00895930
Y00870530
Y00845130
Y00819730
X01877500Y00886410
Y00911810
X01765400Y01172500
X01740000
X01714600
X01689200
X01663800
X01638400
X01613000
X01587600
X01610250Y01326750
X01617218Y01368806
X01613000Y01426500
X01587600
X01638400
X01663800
X01689200
X01714600
X01740000
X01765400
X01833250Y01467250
X01562200Y01426500
X01536800
X01511400
X01486000
X01460600
X01435200
X01409800
X01345250Y01420250
X01468628Y01375410
X01235000Y01345750
X01230675Y01300200
Y01274800
Y01249400
Y01224000
Y01198600
X01151275
Y01224000
Y01249400
Y01274800
Y01300200
X01145000Y01345750
X01188974Y01396232
X01041000Y01358750
X00997950
X00951000Y01326450
Y01301050
X00997950Y01268750
X01041000
X00876250Y01467000
X00698450
X00611550Y01467000
X00433750
X00284500Y01480000
X00095500
X00073940Y01275240
X00123940
T02
X00558000Y00260000
X01166500
X01768500
T03
X00135500Y01386000
X00244500
T04
X00250000Y00930000
Y01230000
T05
X00050000Y00050000
X01950000
Y01450000
X00050000
M30
