M48
;Layer_Color=9474304
;FILE_FORMAT=4:4
METRIC,TZ
;TYPE=PLATED
T01F00S00C1.0000
T02F00S00C3.5000
T03F00S00C4.0000
T04F00S00C5.5000
;TYPE=NON_PLATED
T05F00S00C3.5000
%
T01
X1600875Y502031
X1635550Y618751
X1660950
X1712250Y594000
X1752750Y500250
X1855470Y491750
X1892500
X1886515Y537250
X1892500Y581750
X1855470Y581750
X1867550Y618750
X1892950
X1546860Y581750
Y491750
X1369750Y493050
Y518450
X1344930Y564388
X1285000Y581750
X1283950Y618750
X1258550
X1245250Y581750
Y491750
X1285000
X1338834Y673634
X1515300Y766000
X1540700
X1132250Y769750
X1114000Y597000
X1065700Y619750
X1040300
X941070Y581750
Y491750
X1152750Y499250
X934450Y759410
X909050
X798068Y662686
X746750Y658750
X736750Y609750
X680450Y619750
X655050
X637540Y581750
X680750Y581750
Y491750
X637540
X553000Y497500
X509500Y597250
X468450Y619750
X443050
X517000Y706000
X557000
X597000
X771500Y518450
Y493050
X339000Y491750
Y581750
X244750Y606500
X203950Y517500
X178550
X123940Y745650
X73940
X365840Y760410
X391240
X393780Y829220
Y937980
X123940Y959010
X73940
Y1064420
X123940
Y1169830
X73940
Y852330
X123940
X431330Y853120
X428630Y907730
X431330Y968690
X521330
X563960Y964880
Y939480
Y914080
Y888680
Y863280
Y837880
Y812480
X524030Y797240
X521330Y853120
X524030Y907730
X640160Y914080
Y939480
Y964880
Y888680
Y863280
Y837880
Y812480
X704930Y887410
Y912810
X698450Y1060600
X611550Y1060600
X433750
X428630Y797240
X941750Y828220
X986750Y852120
X984050Y906730
X986750Y967690
X1026922Y935750
X1079450Y906730
X1076750Y852120
X1079450Y796240
X1132670Y811480
Y836880
Y862280
Y887680
Y913080
Y938480
Y963880
X1076750Y967690
X941750Y936980
X883666Y928116
X871000Y969500
X876250Y1060600
X909066Y879094
X984050Y796240
X1164250Y1064050
Y1089450
X1151275Y1147800
Y1173200
X1230675
Y1147800
X1257000Y1062500
X1338834Y1090441
X1409800Y1172500
X1435200
X1460600
X1486000
X1511400
X1536800
X1562200
X1548000Y945230
Y836470
X1484122Y817626
X1271750Y886410
Y911810
X1208870Y913080
Y938480
Y963880
Y887680
Y862280
Y836880
Y811480
X1589300Y804500
X1598000Y855000
X1600300Y914980
X1603000Y975940
X1693000
X1731840Y972130
Y946730
Y921330
Y895930
Y870530
Y845130
Y819730
X1684700Y804500
X1688000Y855000
X1695700Y914980
X1808040Y921330
Y946730
Y972130
Y895930
Y870530
Y845130
Y819730
X1877500Y886410
Y911810
X1765400Y1172500
X1740000
X1714600
X1689200
X1663800
X1638400
X1613000
X1587600
X1610250Y1326750
X1613000Y1426500
X1587600
X1638400
X1663800
X1689200
X1714600
X1740000
X1765400
X1833250Y1467250
X1562200Y1426500
X1536800
X1511400
X1486000
X1460600
X1435200
X1409800
X1345250Y1420250
X1235000Y1345750
X1230675Y1300200
Y1274800
Y1249400
Y1224000
Y1198600
X1151275
Y1224000
Y1249400
Y1274800
Y1300200
X1145000Y1345750
X1188974Y1396232
X1041000Y1358750
X997950
X951000Y1326450
Y1301050
X997950Y1268750
X1041000
X876250Y1467000
X698450
X611550Y1467000
X433750
X284500Y1480000
X95500
X73940Y1275240
X123940
T02
X558000Y260000
X1166500
X1768500
T03
X135500Y1386000
X244500
T04
X250000Y930000
Y1230000
T05
X50000Y50000
X1950000
Y1450000
X50000
M30
