G04*
G04 #@! TF.GenerationSoftware,Altium Limited,Altium Designer,26.5.0 (11)*
G04*
G04 Layer_Physical_Order=1*
G04 Layer_Color=255*
G04 Board_Origin=0|0*
%FSLAX44Y44*%
%MOMM*%
G71*
G04*
G04 #@! TF.SameCoordinates,83BDF72B-C7D1-4947-933D-B254EB966F09*
G04*
G04*
G04 #@! TF.FilePolarity,Positive*
G04*
G01*
G75*
%ADD10R,1.0000X1.0000*%
%ADD11R,6.2000X2.7000*%
%ADD12R,10.8000X9.4000*%
%ADD13R,0.8000X4.6000*%
%ADD14C,0.6000*%
%ADD15C,5.0000*%
%ADD16C,2.5400*%
%ADD17C,0.8000*%
%ADD18C,0.5000*%
%ADD19C,10.0000*%
%AMCUSTOMSHAPE20*
4,1,8,-0.9500,0.9000,-1.4000,0.4500,-1.4000,-0.4500,-0.9500,-0.9000,0.9500,-0.9000,1.4000,-0.4500,1.4000,0.4500,0.9500,0.9000,-0.9500,0.9000,0.0*%
%ADD20CUSTOMSHAPE20*%

G04:AMPARAMS|DCode=21|XSize=1.8mm|YSize=2.8mm|CornerRadius=0.45mm|HoleSize=0mm|Usage=FLASHONLY|Rotation=270.000|XOffset=0mm|YOffset=0mm|HoleType=Round|Shape=RoundedRectangle|*
%AMROUNDEDRECTD21*
21,1,1.8000,1.9000,0,0,270.0*
21,1,0.9000,2.8000,0,0,270.0*
1,1,0.9000,-0.9500,-0.4500*
1,1,0.9000,-0.9500,0.4500*
1,1,0.9000,0.9500,0.4500*
1,1,0.9000,0.9500,-0.4500*
%
%ADD21ROUNDEDRECTD21*%
G04:AMPARAMS|DCode=22|XSize=2.8mm|YSize=1.8mm|CornerRadius=0.45mm|HoleSize=0mm|Usage=FLASHONLY|Rotation=90.000|XOffset=0mm|YOffset=0mm|HoleType=Round|Shape=RoundedRectangle|*
%AMROUNDEDRECTD22*
21,1,2.8000,0.9000,0,0,90.0*
21,1,1.9000,1.8000,0,0,90.0*
1,1,0.9000,0.4500,0.9500*
1,1,0.9000,0.4500,-0.9500*
1,1,0.9000,-0.4500,-0.9500*
1,1,0.9000,-0.4500,0.9500*
%
%ADD22ROUNDEDRECTD22*%
G04:AMPARAMS|DCode=23|XSize=2.8mm|YSize=1.8mm|CornerRadius=0.45mm|HoleSize=0mm|Usage=FLASHONLY|Rotation=180.000|XOffset=0mm|YOffset=0mm|HoleType=Round|Shape=RoundedRectangle|*
%AMROUNDEDRECTD23*
21,1,2.8000,0.9000,0,0,180.0*
21,1,1.9000,1.8000,0,0,180.0*
1,1,0.9000,-0.9500,0.4500*
1,1,0.9000,0.9500,0.4500*
1,1,0.9000,0.9500,-0.4500*
1,1,0.9000,-0.9500,-0.4500*
%
%ADD23ROUNDEDRECTD23*%
%AMCUSTOMSHAPE24*
4,1,8,-0.9000,-0.9500,-0.4500,-1.4000,0.4500,-1.4000,0.9000,-0.9500,0.9000,0.9500,0.4500,1.4000,-0.4500,1.4000,-0.9000,0.9500,-0.9000,-0.9500,0.0*%
%ADD24CUSTOMSHAPE24*%

%AMCUSTOMSHAPE25*
4,1,8,0.9000,0.9500,0.4500,1.4000,-0.4500,1.4000,-0.9000,0.9500,-0.9000,-0.9500,-0.4500,-1.4000,0.4500,-1.4000,0.9000,-0.9500,0.9000,0.9500,0.0*%
%ADD25CUSTOMSHAPE25*%

%AMCUSTOMSHAPE26*
4,1,8,0.9500,-0.9000,1.4000,-0.4500,1.4000,0.4500,0.9500,0.9000,-0.9500,0.9000,-1.4000,0.4500,-1.4000,-0.4500,-0.9500,-0.9000,0.9500,-0.9000,0.0*%
%ADD26CUSTOMSHAPE26*%

G04:AMPARAMS|DCode=27|XSize=1.8mm|YSize=2.8mm|CornerRadius=0.45mm|HoleSize=0mm|Usage=FLASHONLY|Rotation=0.000|XOffset=0mm|YOffset=0mm|HoleType=Round|Shape=RoundedRectangle|*
%AMROUNDEDRECTD27*
21,1,1.8000,1.9000,0,0,0.0*
21,1,0.9000,2.8000,0,0,0.0*
1,1,0.9000,0.4500,-0.9500*
1,1,0.9000,-0.4500,-0.9500*
1,1,0.9000,-0.4500,0.9500*
1,1,0.9000,0.4500,0.9500*
%
%ADD27ROUNDEDRECTD27*%
%AMCUSTOMSHAPE28*
4,1,8,3.0000,2.7500,1.5000,4.2500,-1.5000,4.2500,-3.0000,2.7500,-3.0000,-2.7500,-1.5000,-4.2500,1.5000,-4.2500,3.0000,-2.7500,3.0000,2.7500,0.0*%
%ADD28CUSTOMSHAPE28*%

G04:AMPARAMS|DCode=29|XSize=6mm|YSize=8.5mm|CornerRadius=1.5mm|HoleSize=0mm|Usage=FLASHONLY|Rotation=180.000|XOffset=0mm|YOffset=0mm|HoleType=Round|Shape=RoundedRectangle|*
%AMROUNDEDRECTD29*
21,1,6.0000,5.5000,0,0,180.0*
21,1,3.0000,8.5000,0,0,180.0*
1,1,3.0000,-1.5000,2.7500*
1,1,3.0000,1.5000,2.7500*
1,1,3.0000,1.5000,-2.7500*
1,1,3.0000,-1.5000,-2.7500*
%
%ADD29ROUNDEDRECTD29*%
G04:AMPARAMS|DCode=30|XSize=12mm|YSize=12mm|CornerRadius=3mm|HoleSize=0mm|Usage=FLASHONLY|Rotation=270.000|XOffset=0mm|YOffset=0mm|HoleType=Round|Shape=RoundedRectangle|*
%AMROUNDEDRECTD30*
21,1,12.0000,6.0000,0,0,270.0*
21,1,6.0000,12.0000,0,0,270.0*
1,1,6.0000,-3.0000,-3.0000*
1,1,6.0000,-3.0000,3.0000*
1,1,6.0000,3.0000,3.0000*
1,1,6.0000,3.0000,-3.0000*
%
%ADD30ROUNDEDRECTD30*%
%ADD31C,10.0000*%
%AMCUSTOMSHAPE32*
4,1,8,0.9000,-0.9500,0.4500,-1.4000,-0.4500,-1.4000,-0.9000,-0.9500,-0.9000,0.9500,-0.4500,1.4000,0.4500,1.4000,0.9000,0.9500,0.9000,-0.9500,0.0*%
%ADD32CUSTOMSHAPE32*%

%AMCUSTOMSHAPE33*
4,1,8,0.9500,0.9000,1.4000,0.4500,1.4000,-0.4500,0.9500,-0.9000,-0.9500,-0.9000,-1.4000,-0.4500,-1.4000,0.4500,-0.9500,0.9000,0.9500,0.9000,0.0*%
%ADD33CUSTOMSHAPE33*%

%AMCUSTOMSHAPE34*
4,1,8,-0.9500,-0.9000,-1.4000,-0.4500,-1.4000,0.4500,-0.9500,0.9000,0.9500,0.9000,1.4000,0.4500,1.4000,-0.4500,0.9500,-0.9000,-0.9500,-0.9000,0.0*%
%ADD34CUSTOMSHAPE34*%

%ADD35C,6.5000*%
%ADD36C,2.5000*%
G36*
X259859Y1500061D02*
X260902Y1498319D01*
X260504Y1497575D01*
X259304Y1493617D01*
X258898Y1489500D01*
Y1470500D01*
X259304Y1466383D01*
X260504Y1462425D01*
X262454Y1458777D01*
X265079Y1455579D01*
X268276Y1452955D01*
X271925Y1451005D01*
X275883Y1449804D01*
X280000Y1449398D01*
X289000D01*
X293116Y1449804D01*
X297075Y1451005D01*
X300723Y1452955D01*
X303921Y1455579D01*
X306545Y1458777D01*
X308495Y1462425D01*
X309696Y1466383D01*
X310101Y1470500D01*
Y1489500D01*
X309696Y1493617D01*
X308495Y1497575D01*
X308104Y1498306D01*
X309148Y1500047D01*
X922000Y1499881D01*
Y1339010D01*
X920804Y1335067D01*
X920398Y1330950D01*
Y1321950D01*
X920804Y1317833D01*
X921870Y1314320D01*
X921342Y1313139D01*
X919072Y1312685D01*
X864445Y1367312D01*
Y1409335D01*
X865562Y1410289D01*
X868547Y1413784D01*
X870948Y1417702D01*
X872707Y1421949D01*
X873492Y1425220D01*
X885168Y1436896D01*
X888825Y1438005D01*
X892474Y1439955D01*
X895671Y1442579D01*
X898296Y1445777D01*
X900246Y1449425D01*
X900754Y1451102D01*
X902348Y1453703D01*
X904107Y1457949D01*
X905180Y1462418D01*
X905540Y1467000D01*
X905180Y1471582D01*
X904107Y1476052D01*
X902348Y1480298D01*
X900754Y1482899D01*
X900246Y1484576D01*
X898296Y1488224D01*
X895671Y1491422D01*
X892474Y1494046D01*
X888825Y1495996D01*
X884867Y1497197D01*
X880750Y1497602D01*
X871750D01*
X867634Y1497197D01*
X863675Y1495996D01*
X860027Y1494046D01*
X856829Y1491422D01*
X855298Y1489556D01*
X853139Y1487712D01*
X825717Y1460290D01*
X659682D01*
X635610Y1484363D01*
X635546Y1484575D01*
X633596Y1488223D01*
X630971Y1491421D01*
X627774Y1494045D01*
X624125Y1495995D01*
X620167Y1497196D01*
X616050Y1497601D01*
X607050D01*
X602934Y1497196D01*
X598975Y1495995D01*
X595327Y1494045D01*
X592129Y1491421D01*
X589505Y1488223D01*
X587555Y1484575D01*
X587491Y1484363D01*
X339619Y1236491D01*
X336634Y1232997D01*
X334232Y1229078D01*
X332473Y1224831D01*
X331400Y1220362D01*
X331040Y1215780D01*
Y870462D01*
X235518Y774940D01*
X165529D01*
Y852330D01*
Y959010D01*
Y1064420D01*
Y1066773D01*
X167404Y1067550D01*
X208411Y1026543D01*
Y1005106D01*
X207939Y1005012D01*
X202167Y1003053D01*
X196700Y1000357D01*
X191632Y996970D01*
X187049Y992951D01*
X183030Y988368D01*
X179643Y983300D01*
X176947Y977833D01*
X174988Y972061D01*
X173799Y966083D01*
X173400Y960000D01*
Y900000D01*
X173799Y893918D01*
X174988Y887939D01*
X176947Y882167D01*
X179643Y876700D01*
X183030Y871632D01*
X187049Y867049D01*
X191632Y863030D01*
X196700Y859644D01*
X202167Y856948D01*
X207939Y854988D01*
X213918Y853799D01*
X220000Y853400D01*
X280000D01*
X286082Y853799D01*
X292061Y854988D01*
X297833Y856948D01*
X303300Y859644D01*
X308368Y863030D01*
X312951Y867049D01*
X316970Y871632D01*
X320357Y876700D01*
X323053Y882167D01*
X325012Y887939D01*
X326201Y893918D01*
X326600Y900000D01*
Y960000D01*
X326201Y966083D01*
X325012Y972061D01*
X323053Y977833D01*
X320357Y983300D01*
X316970Y988368D01*
X312951Y992951D01*
X308368Y996970D01*
X303300Y1000357D01*
X297833Y1003053D01*
X292061Y1005012D01*
X291589Y1005106D01*
Y1043770D01*
X291233Y1049198D01*
X290172Y1054534D01*
X288423Y1059685D01*
X286017Y1064564D01*
X282995Y1069088D01*
X279408Y1073178D01*
X192732Y1159853D01*
X194026Y1161430D01*
X196700Y1159643D01*
X202167Y1156947D01*
X207939Y1154988D01*
X213918Y1153799D01*
X220000Y1153400D01*
X280000D01*
X286082Y1153799D01*
X292061Y1154988D01*
X297833Y1156947D01*
X303300Y1159643D01*
X308368Y1163030D01*
X312951Y1167049D01*
X316970Y1171632D01*
X320357Y1176700D01*
X323053Y1182167D01*
X325012Y1187939D01*
X326201Y1193918D01*
X326600Y1200000D01*
Y1260000D01*
X326201Y1266083D01*
X325012Y1272061D01*
X323053Y1277833D01*
X320357Y1283300D01*
X316970Y1288368D01*
X312951Y1292951D01*
X311105Y1294570D01*
Y1386000D01*
X310686Y1393458D01*
X309435Y1400821D01*
X307367Y1407998D01*
X304509Y1414899D01*
X300896Y1421436D01*
X296574Y1427528D01*
X291597Y1433097D01*
X286027Y1438074D01*
X279936Y1442396D01*
X273399Y1446009D01*
X266498Y1448867D01*
X259321Y1450935D01*
X251957Y1452186D01*
X244500Y1452605D01*
X237043Y1452186D01*
X229679Y1450935D01*
X222502Y1448867D01*
X215601Y1446009D01*
X209064Y1442396D01*
X202973Y1438074D01*
X197403Y1433097D01*
X192426Y1427528D01*
X188104Y1421436D01*
X184491Y1414899D01*
X181633Y1407998D01*
X179565Y1400821D01*
X178314Y1393458D01*
X177895Y1386000D01*
Y1279755D01*
X176947Y1277833D01*
X174988Y1272061D01*
X173799Y1266083D01*
X173400Y1260000D01*
Y1200000D01*
X173799Y1193918D01*
X174988Y1187939D01*
X176947Y1182167D01*
X179643Y1176700D01*
X181430Y1174026D01*
X179853Y1172732D01*
X165529Y1187057D01*
Y1275240D01*
X165173Y1280668D01*
X164112Y1286004D01*
X162363Y1291156D01*
X159957Y1296035D01*
X156935Y1300558D01*
X153348Y1304648D01*
X149258Y1308235D01*
X144734Y1311257D01*
X139855Y1313663D01*
X134704Y1315412D01*
X129368Y1316473D01*
X123940Y1316829D01*
X118511Y1316473D01*
X113176Y1315412D01*
X108024Y1313663D01*
X103145Y1311257D01*
X98622Y1308235D01*
X94532Y1304648D01*
X90945Y1300558D01*
X87923Y1296035D01*
X85517Y1291156D01*
X83768Y1286004D01*
X82707Y1280668D01*
X82351Y1275240D01*
Y1169830D01*
Y1064420D01*
Y959010D01*
Y852330D01*
Y745650D01*
Y519000D01*
Y396060D01*
X82351Y396060D01*
X82351Y396059D01*
X82549Y393042D01*
X82707Y390632D01*
X82707Y390631D01*
X82707Y390631D01*
X82734Y390495D01*
X84028Y87810D01*
X82001Y87208D01*
X77281Y90829D01*
X71719Y94041D01*
X65784Y96499D01*
X59580Y98161D01*
X53211Y99000D01*
X46788D01*
X40420Y98161D01*
X34216Y96499D01*
X28281Y94041D01*
X22719Y90829D01*
X17623Y86919D01*
X13081Y82377D01*
X9171Y77281D01*
X5959Y71719D01*
X3501Y65784D01*
X2030Y60295D01*
X0Y60562D01*
Y1439438D01*
X2030Y1439705D01*
X3501Y1434216D01*
X5959Y1428282D01*
X9171Y1422719D01*
X13081Y1417623D01*
X17623Y1413081D01*
X22719Y1409171D01*
X28281Y1405959D01*
X34216Y1403501D01*
X40420Y1401839D01*
X46788Y1401000D01*
X53211D01*
X59580Y1401839D01*
X65784Y1403501D01*
X71719Y1405959D01*
X77281Y1409171D01*
X82377Y1413081D01*
X86919Y1417623D01*
X90829Y1422719D01*
X94041Y1428282D01*
X96499Y1434216D01*
X98161Y1440420D01*
X99000Y1446788D01*
Y1449398D01*
X100000D01*
X104117Y1449804D01*
X108075Y1451005D01*
X111723Y1452955D01*
X114921Y1455579D01*
X117545Y1458777D01*
X119495Y1462425D01*
X120696Y1466383D01*
X121102Y1470500D01*
Y1489500D01*
X120696Y1493617D01*
X119495Y1497575D01*
X119077Y1498358D01*
X120121Y1500099D01*
X259859Y1500061D01*
D02*
G37*
G36*
X1318210Y1110829D02*
X1316714Y1109333D01*
X1314031Y1105641D01*
X1311959Y1101573D01*
X1310548Y1097232D01*
X1309834Y1092724D01*
Y1088159D01*
X1310548Y1083651D01*
X1311959Y1079309D01*
X1314031Y1075242D01*
X1316714Y1071549D01*
X1319942Y1068321D01*
X1323635Y1065638D01*
X1327702Y1063566D01*
X1330498Y1062657D01*
X1331054Y1060342D01*
X1241116Y970405D01*
X1239205Y971088D01*
X1239066Y972496D01*
X1237865Y976455D01*
X1235915Y980103D01*
X1233291Y983301D01*
X1230093Y985925D01*
X1226445Y987875D01*
X1222486Y989076D01*
X1218370Y989481D01*
X1199370D01*
X1195253Y989076D01*
X1191295Y987875D01*
X1187646Y985925D01*
X1184449Y983301D01*
X1181824Y980103D01*
X1179874Y976455D01*
X1178674Y972496D01*
X1178268Y968380D01*
Y967220D01*
X1176252Y966318D01*
X1175264Y967100D01*
Y974709D01*
X1174888Y978531D01*
X1173773Y982207D01*
X1171962Y985595D01*
X1169525Y988564D01*
X1123869Y1034220D01*
Y1128816D01*
X1125899Y1129542D01*
X1126854Y1128379D01*
X1130051Y1125755D01*
X1133700Y1123805D01*
X1137658Y1122604D01*
X1141775Y1122198D01*
X1160775D01*
X1164892Y1122604D01*
X1168850Y1123805D01*
X1169226Y1124006D01*
X1169983Y1122589D01*
X1172420Y1119620D01*
X1228000Y1064039D01*
Y1060218D01*
X1228714Y1055709D01*
X1230125Y1051368D01*
X1231577Y1048517D01*
X1230333Y1046487D01*
X1209523D01*
X1194852Y1061159D01*
Y1068550D01*
X1194446Y1072666D01*
X1193245Y1076625D01*
X1191295Y1080273D01*
X1188671Y1083471D01*
X1185473Y1086095D01*
X1181825Y1088045D01*
X1177867Y1089246D01*
X1173750Y1089651D01*
X1154750D01*
X1150633Y1089246D01*
X1146675Y1088045D01*
X1143027Y1086095D01*
X1139829Y1083471D01*
X1137205Y1080273D01*
X1135255Y1076625D01*
X1134054Y1072666D01*
X1133648Y1068550D01*
Y1059550D01*
X1134054Y1055433D01*
X1135255Y1051475D01*
X1137205Y1047826D01*
X1139829Y1044629D01*
X1143027Y1042004D01*
X1146675Y1040054D01*
X1150633Y1038854D01*
X1154750Y1038448D01*
X1162141D01*
X1187551Y1013038D01*
X1190521Y1010601D01*
X1193908Y1008790D01*
X1197584Y1007675D01*
X1201407Y1007299D01*
X1251799D01*
X1255621Y1007675D01*
X1259297Y1008790D01*
X1262685Y1010601D01*
X1265654Y1013038D01*
X1292355Y1039739D01*
X1294792Y1042708D01*
X1296603Y1046096D01*
X1297718Y1049772D01*
X1298094Y1053594D01*
Y1071406D01*
X1297718Y1075228D01*
X1296603Y1078904D01*
X1294792Y1082292D01*
X1292355Y1085261D01*
X1259165Y1118451D01*
X1256196Y1120888D01*
X1252809Y1122698D01*
X1251327Y1123148D01*
X1251112Y1125334D01*
X1251899Y1125755D01*
X1255096Y1128379D01*
X1257720Y1131577D01*
X1259670Y1135225D01*
X1260871Y1139183D01*
X1261277Y1143300D01*
Y1152300D01*
X1260871Y1156417D01*
X1259670Y1160375D01*
X1259604Y1160500D01*
X1259670Y1160625D01*
X1260871Y1164583D01*
X1260960Y1165484D01*
X1262871Y1166168D01*
X1318210Y1110829D01*
D02*
G37*
G36*
X626839Y1410289D02*
X630334Y1407304D01*
X634253Y1404902D01*
X638499Y1403143D01*
X642968Y1402070D01*
X647550Y1401710D01*
X825256D01*
Y1359196D01*
X825632Y1355374D01*
X826747Y1351698D01*
X828558Y1348310D01*
X830995Y1345341D01*
X922000Y1254336D01*
Y1021750D01*
X884690D01*
X878317Y1028123D01*
X879094Y1029999D01*
X880750D01*
X884867Y1030404D01*
X888825Y1031605D01*
X892474Y1033555D01*
X895671Y1036179D01*
X898296Y1039377D01*
X900246Y1043025D01*
X901446Y1046984D01*
X901852Y1051100D01*
Y1070100D01*
X901446Y1074217D01*
X900246Y1078176D01*
X898296Y1081824D01*
X895671Y1085022D01*
X892474Y1087646D01*
X888825Y1089596D01*
X884867Y1090797D01*
X880750Y1091202D01*
X871750D01*
X867634Y1090797D01*
X863675Y1089596D01*
X860027Y1087646D01*
X856829Y1085022D01*
X854205Y1081824D01*
X852255Y1078176D01*
X851054Y1074217D01*
X850649Y1070100D01*
Y1058444D01*
X848773Y1057667D01*
X783113Y1123327D01*
X780144Y1125764D01*
X776756Y1127575D01*
X773081Y1128690D01*
X769258Y1129066D01*
X584200D01*
X580377Y1128690D01*
X576702Y1127575D01*
X573314Y1125764D01*
X570345Y1123327D01*
X528895Y1081878D01*
X526458Y1078908D01*
X524647Y1075521D01*
X523532Y1071845D01*
X523156Y1068022D01*
Y1021750D01*
X389620D01*
Y1203648D01*
X611550Y1425577D01*
X626839Y1410289D01*
D02*
G37*
G36*
X827394Y1023625D02*
X826617Y1021750D01*
X631145D01*
Y1036390D01*
X633596Y1039376D01*
X635546Y1043025D01*
X636746Y1046983D01*
X637152Y1051100D01*
Y1070100D01*
X636746Y1074217D01*
X635546Y1078175D01*
X633596Y1081823D01*
X630971Y1085021D01*
X627774Y1087645D01*
X627395Y1087848D01*
X627903Y1089878D01*
X761142D01*
X827394Y1023625D01*
D02*
G37*
G36*
X1414964Y1129708D02*
X1418352Y1127897D01*
X1422027Y1126782D01*
X1425850Y1126406D01*
X1700844D01*
X1765446Y1061804D01*
Y952640D01*
X1763567Y951801D01*
X1762291Y952763D01*
X1762036Y955346D01*
X1760835Y959305D01*
X1760769Y959430D01*
X1760835Y959554D01*
X1762036Y963513D01*
X1762442Y967630D01*
Y976630D01*
X1762036Y980746D01*
X1760835Y984705D01*
X1758885Y988353D01*
X1756261Y991551D01*
X1753064Y994175D01*
X1749415Y996125D01*
X1745457Y997326D01*
X1741340Y997731D01*
X1722340D01*
X1718223Y997326D01*
X1715889Y996618D01*
X1714223Y997985D01*
X1710575Y999935D01*
X1706617Y1001136D01*
X1702500Y1001541D01*
X1683500D01*
X1679383Y1001136D01*
X1675425Y999935D01*
X1671776Y997985D01*
X1668579Y995361D01*
X1665955Y992163D01*
X1664005Y988515D01*
X1662804Y984556D01*
X1662398Y980440D01*
Y971440D01*
X1662804Y967323D01*
X1664005Y963364D01*
X1665955Y959716D01*
X1668579Y956519D01*
X1671776Y953894D01*
X1673406Y953024D01*
Y946564D01*
X1673782Y942741D01*
X1674897Y939066D01*
X1675652Y937653D01*
X1674476Y937025D01*
X1671279Y934401D01*
X1668655Y931203D01*
X1666705Y927555D01*
X1665504Y923596D01*
X1665098Y919480D01*
Y910480D01*
X1665504Y906363D01*
X1666705Y902404D01*
X1668420Y899194D01*
X1667638Y897164D01*
X1627025D01*
X1626384Y899194D01*
X1628086Y901268D01*
X1629618Y904135D01*
X1630561Y907245D01*
X1630880Y910480D01*
Y919480D01*
X1630561Y922714D01*
X1629618Y925824D01*
X1628086Y928691D01*
X1626024Y931203D01*
X1621524Y935703D01*
X1619982Y936969D01*
X1621103Y939066D01*
X1622218Y942741D01*
X1622594Y946564D01*
Y953024D01*
X1624223Y953894D01*
X1627421Y956519D01*
X1630045Y959716D01*
X1631995Y963364D01*
X1633196Y967323D01*
X1633602Y971440D01*
Y980440D01*
X1633196Y984556D01*
X1631995Y988515D01*
X1630045Y992163D01*
X1627421Y995361D01*
X1624223Y997985D01*
X1620575Y999935D01*
X1616617Y1001136D01*
X1612500Y1001541D01*
X1593500D01*
X1589383Y1001136D01*
X1585425Y999935D01*
X1581777Y997985D01*
X1578579Y995361D01*
X1575955Y992163D01*
X1574005Y988515D01*
X1572804Y984556D01*
X1572399Y980440D01*
Y971440D01*
X1572804Y967323D01*
X1574005Y963364D01*
X1575955Y959716D01*
X1578579Y956519D01*
X1581777Y953894D01*
X1583156Y953157D01*
X1582197Y951362D01*
X1581082Y947687D01*
X1580706Y943864D01*
Y937040D01*
X1579076Y935703D01*
X1575263Y931890D01*
X1573314Y932812D01*
X1573602Y935730D01*
Y954730D01*
X1573196Y958847D01*
X1571995Y962805D01*
X1570045Y966453D01*
X1567421Y969651D01*
X1564223Y972275D01*
X1560575Y974225D01*
X1556617Y975426D01*
X1552500Y975832D01*
X1543500D01*
X1539383Y975426D01*
X1535425Y974225D01*
X1531776Y972275D01*
X1528579Y969651D01*
X1525955Y966453D01*
X1524005Y962805D01*
X1522804Y958847D01*
X1522398Y954730D01*
Y935730D01*
X1522804Y931613D01*
X1524005Y927655D01*
X1525955Y924007D01*
X1528579Y920809D01*
X1531776Y918185D01*
X1535425Y916235D01*
X1539383Y915034D01*
X1543500Y914628D01*
X1552500D01*
X1556617Y915034D01*
X1560575Y916235D01*
X1564223Y918185D01*
X1567421Y920809D01*
X1567865Y921349D01*
X1569824Y920538D01*
X1569720Y919480D01*
Y910480D01*
X1570039Y907245D01*
X1570982Y904135D01*
X1572514Y901268D01*
X1574217Y899194D01*
X1573575Y897164D01*
X1550924D01*
X1547101Y896788D01*
X1543426Y895673D01*
X1540038Y893862D01*
X1537069Y891425D01*
X1501445Y855801D01*
X1499008Y852832D01*
X1497197Y849444D01*
X1496082Y845769D01*
X1495706Y841946D01*
Y788353D01*
X1494576Y787224D01*
X1492514Y784711D01*
X1490982Y781845D01*
X1490039Y778735D01*
X1489720Y775500D01*
Y767961D01*
X1201814D01*
X1200363Y769991D01*
X1200647Y772874D01*
Y785878D01*
X1218370D01*
X1222486Y786284D01*
X1226445Y787484D01*
X1230093Y789434D01*
X1233291Y792059D01*
X1235915Y795256D01*
X1237865Y798904D01*
X1239066Y802863D01*
X1239471Y806980D01*
Y815980D01*
X1239066Y820096D01*
X1237865Y824055D01*
X1237798Y824180D01*
X1237865Y824305D01*
X1239066Y828263D01*
X1239471Y832380D01*
Y841380D01*
X1239066Y845496D01*
X1237865Y849455D01*
X1237798Y849580D01*
X1237865Y849705D01*
X1239066Y853663D01*
X1239333Y856372D01*
X1248768Y865808D01*
X1250527Y864364D01*
X1254175Y862414D01*
X1258133Y861214D01*
X1262250Y860808D01*
X1281250D01*
X1285367Y861214D01*
X1289325Y862414D01*
X1292973Y864364D01*
X1296171Y866989D01*
X1298795Y870186D01*
X1300745Y873835D01*
X1301946Y877793D01*
X1302352Y881910D01*
Y890910D01*
X1301946Y895026D01*
X1300745Y898985D01*
X1298795Y902633D01*
X1296171Y905831D01*
X1292973Y908455D01*
X1289325Y910405D01*
X1285367Y911606D01*
X1281250Y912011D01*
X1266374D01*
X1265597Y913887D01*
X1405013Y1053303D01*
X1407450Y1056272D01*
X1409261Y1059660D01*
X1410376Y1063335D01*
X1410752Y1067158D01*
Y1130538D01*
X1412782Y1131498D01*
X1414964Y1129708D01*
D02*
G37*
G36*
X852108Y947380D02*
X855801Y944697D01*
X858791Y943174D01*
X856791Y939248D01*
X855380Y934907D01*
X854666Y930398D01*
Y926827D01*
X810714Y882874D01*
X735564D01*
X735531Y882910D01*
Y891910D01*
X735126Y896027D01*
X733925Y899985D01*
X731975Y903633D01*
X729351Y906831D01*
X726153Y909455D01*
X722505Y911405D01*
X718547Y912606D01*
X714430Y913011D01*
X695430D01*
X691313Y912606D01*
X687355Y911405D01*
X683706Y909455D01*
X680509Y906831D01*
X677884Y903633D01*
X675934Y899985D01*
X674734Y896027D01*
X674328Y891910D01*
Y882910D01*
X674296Y882874D01*
X671945D01*
X670761Y884180D01*
Y893180D01*
X670356Y897297D01*
X669155Y901255D01*
X669088Y901380D01*
X669155Y901505D01*
X670356Y905463D01*
X670704Y908993D01*
X711617Y949906D01*
X849582D01*
X852108Y947380D01*
D02*
G37*
G36*
X1938772Y1497720D02*
X1934216Y1496499D01*
X1928282Y1494041D01*
X1922719Y1490830D01*
X1917623Y1486919D01*
X1913081Y1482377D01*
X1909171Y1477281D01*
X1905959Y1471719D01*
X1903501Y1465784D01*
X1901839Y1459580D01*
X1901000Y1453212D01*
Y1446788D01*
X1901839Y1440420D01*
X1903501Y1434216D01*
X1905959Y1428282D01*
X1909171Y1422719D01*
X1913081Y1417623D01*
X1917623Y1413081D01*
X1922719Y1409171D01*
X1928282Y1405959D01*
X1934216Y1403501D01*
X1940420Y1401839D01*
X1946788Y1401000D01*
X1953212D01*
X1959580Y1401839D01*
X1965784Y1403501D01*
X1971719Y1405959D01*
X1977281Y1409171D01*
X1982377Y1413081D01*
X1986919Y1417623D01*
X1990830Y1422719D01*
X1994041Y1428282D01*
X1996499Y1434216D01*
X1997720Y1438772D01*
X1999750Y1438504D01*
Y751631D01*
X1999697Y751503D01*
X1942545D01*
Y840959D01*
X1942168Y844782D01*
X1941053Y848458D01*
X1939242Y851845D01*
X1936806Y854815D01*
X1908102Y883519D01*
Y890910D01*
X1907696Y895026D01*
X1906495Y898985D01*
X1904545Y902633D01*
X1901921Y905831D01*
X1898723Y908455D01*
X1895075Y910405D01*
X1891117Y911606D01*
X1887000Y912011D01*
X1868000D01*
X1866469Y911861D01*
X1864965Y913224D01*
Y984861D01*
X1864589Y988684D01*
X1863474Y992360D01*
X1861663Y995747D01*
X1859226Y998716D01*
X1852844Y1005098D01*
Y1445832D01*
X1855370Y1448358D01*
X1858053Y1452050D01*
X1860125Y1456118D01*
X1861536Y1460459D01*
X1862250Y1464967D01*
Y1469532D01*
X1861536Y1474041D01*
X1860125Y1478382D01*
X1858053Y1482449D01*
X1855370Y1486142D01*
X1852142Y1489370D01*
X1848449Y1492053D01*
X1844382Y1494125D01*
X1840041Y1495536D01*
X1835532Y1496250D01*
X1830968D01*
X1826459Y1495536D01*
X1822118Y1494125D01*
X1818051Y1492053D01*
X1814358Y1489370D01*
X1811130Y1486142D01*
X1808447Y1482449D01*
X1806375Y1478382D01*
X1804964Y1474041D01*
X1804250Y1469532D01*
Y1464967D01*
X1804964Y1460459D01*
X1806375Y1456118D01*
X1808447Y1452050D01*
X1811130Y1448358D01*
X1813656Y1445832D01*
Y1149608D01*
X1811780Y1148831D01*
X1784654Y1175957D01*
X1784618Y1176323D01*
X1783503Y1179998D01*
X1781692Y1183386D01*
X1779255Y1186355D01*
X1778583Y1186907D01*
X1778548Y1186993D01*
X1776961Y1189061D01*
X1774893Y1190648D01*
X1772484Y1191645D01*
X1769900Y1191985D01*
X1766506D01*
X1765400Y1192094D01*
X1764294Y1191985D01*
X1760900D01*
X1758316Y1191645D01*
X1755907Y1190648D01*
X1753839Y1189061D01*
X1752253Y1186993D01*
X1752217Y1186907D01*
X1751545Y1186355D01*
X1749108Y1183386D01*
X1747297Y1179998D01*
X1746182Y1176323D01*
X1745806Y1172500D01*
Y1167500D01*
X1746182Y1163678D01*
X1747297Y1160002D01*
X1749108Y1156614D01*
X1751545Y1153645D01*
X1801656Y1103534D01*
Y1083612D01*
X1799626Y1082885D01*
X1798895Y1083775D01*
X1726409Y1156262D01*
X1727748Y1158007D01*
X1728745Y1160416D01*
X1729086Y1163000D01*
Y1182000D01*
X1728745Y1184585D01*
X1727748Y1186993D01*
X1726161Y1189061D01*
X1724093Y1190648D01*
X1721685Y1191645D01*
X1719100Y1191985D01*
X1710100D01*
X1707516Y1191645D01*
X1705107Y1190648D01*
X1703039Y1189061D01*
X1702915Y1188899D01*
X1700885D01*
X1700761Y1189061D01*
X1698693Y1190648D01*
X1696284Y1191645D01*
X1693700Y1191985D01*
X1684700D01*
X1682116Y1191645D01*
X1679707Y1190648D01*
X1677639Y1189061D01*
X1677515Y1188899D01*
X1675485D01*
X1675361Y1189061D01*
X1673293Y1190648D01*
X1670885Y1191645D01*
X1668300Y1191985D01*
X1659300D01*
X1656716Y1191645D01*
X1654307Y1190648D01*
X1652239Y1189061D01*
X1652115Y1188899D01*
X1650085D01*
X1649961Y1189061D01*
X1647893Y1190648D01*
X1645484Y1191645D01*
X1642900Y1191985D01*
X1633900D01*
X1631316Y1191645D01*
X1628907Y1190648D01*
X1626839Y1189061D01*
X1626715Y1188899D01*
X1624685D01*
X1624561Y1189061D01*
X1622493Y1190648D01*
X1620085Y1191645D01*
X1617500Y1191985D01*
X1608500D01*
X1605916Y1191645D01*
X1603507Y1190648D01*
X1601439Y1189061D01*
X1601315Y1188899D01*
X1599285D01*
X1599161Y1189061D01*
X1597093Y1190648D01*
X1594684Y1191645D01*
X1592100Y1191985D01*
X1583100D01*
X1580516Y1191645D01*
X1578107Y1190648D01*
X1576039Y1189061D01*
X1575915Y1188899D01*
X1573885D01*
X1573761Y1189061D01*
X1571693Y1190648D01*
X1569285Y1191645D01*
X1566700Y1191985D01*
X1557700D01*
X1555116Y1191645D01*
X1552707Y1190648D01*
X1550639Y1189061D01*
X1550515Y1188899D01*
X1548485D01*
X1548361Y1189061D01*
X1546293Y1190648D01*
X1543884Y1191645D01*
X1541300Y1191985D01*
X1532300D01*
X1529716Y1191645D01*
X1527307Y1190648D01*
X1525239Y1189061D01*
X1525115Y1188899D01*
X1523085D01*
X1522961Y1189061D01*
X1520893Y1190648D01*
X1518484Y1191645D01*
X1515900Y1191985D01*
X1506900D01*
X1504316Y1191645D01*
X1501907Y1190648D01*
X1499839Y1189061D01*
X1499715Y1188899D01*
X1497685D01*
X1497561Y1189061D01*
X1495493Y1190648D01*
X1493085Y1191645D01*
X1490500Y1191985D01*
X1481500D01*
X1478916Y1191645D01*
X1476507Y1190648D01*
X1474439Y1189061D01*
X1474315Y1188899D01*
X1472285D01*
X1472161Y1189061D01*
X1470093Y1190648D01*
X1467684Y1191645D01*
X1465100Y1191985D01*
X1456100D01*
X1453516Y1191645D01*
X1451107Y1190648D01*
X1449039Y1189061D01*
X1448915Y1188899D01*
X1446885D01*
X1446761Y1189061D01*
X1444693Y1190648D01*
X1442285Y1191645D01*
X1439700Y1191985D01*
X1430700D01*
X1428116Y1191645D01*
X1425707Y1190648D01*
X1423639Y1189061D01*
X1423515Y1188899D01*
X1421485D01*
X1421361Y1189061D01*
X1419293Y1190648D01*
X1416884Y1191645D01*
X1415006Y1191892D01*
X1414122Y1193879D01*
X1430516Y1210274D01*
X1567598D01*
X1571421Y1210650D01*
X1575096Y1211765D01*
X1578484Y1213576D01*
X1581453Y1216013D01*
X1659685Y1294245D01*
X1662122Y1297214D01*
X1663933Y1300602D01*
X1665048Y1304277D01*
X1665424Y1308100D01*
Y1407015D01*
X1668300D01*
X1670885Y1407355D01*
X1673293Y1408353D01*
X1675361Y1409939D01*
X1675485Y1410101D01*
X1677515D01*
X1677639Y1409939D01*
X1679707Y1408353D01*
X1682116Y1407355D01*
X1684700Y1407015D01*
X1693700D01*
X1696284Y1407355D01*
X1698693Y1408353D01*
X1700761Y1409939D01*
X1700885Y1410101D01*
X1702915D01*
X1703039Y1409939D01*
X1705107Y1408353D01*
X1707516Y1407355D01*
X1710100Y1407015D01*
X1719100D01*
X1721685Y1407355D01*
X1724093Y1408353D01*
X1726161Y1409939D01*
X1727748Y1412007D01*
X1728745Y1414416D01*
X1729086Y1417000D01*
Y1436000D01*
X1728745Y1438584D01*
X1727748Y1440993D01*
X1726161Y1443061D01*
X1724093Y1444648D01*
X1721685Y1445645D01*
X1719100Y1445986D01*
X1710100D01*
X1707516Y1445645D01*
X1705107Y1444648D01*
X1703039Y1443061D01*
X1702915Y1442899D01*
X1700885D01*
X1700761Y1443061D01*
X1698693Y1444648D01*
X1696284Y1445645D01*
X1693700Y1445986D01*
X1684700D01*
X1682116Y1445645D01*
X1679707Y1444648D01*
X1677639Y1443061D01*
X1677515Y1442899D01*
X1675485D01*
X1675361Y1443061D01*
X1673293Y1444648D01*
X1670885Y1445645D01*
X1668300Y1445986D01*
X1659300D01*
X1656716Y1445645D01*
X1654307Y1444648D01*
X1652239Y1443061D01*
X1652115Y1442899D01*
X1650085D01*
X1649961Y1443061D01*
X1647893Y1444648D01*
X1645484Y1445645D01*
X1642900Y1445986D01*
X1639506D01*
X1638400Y1446094D01*
X1637294Y1445986D01*
X1633900D01*
X1631316Y1445645D01*
X1628907Y1444648D01*
X1626839Y1443061D01*
X1626715Y1442899D01*
X1624685D01*
X1624561Y1443061D01*
X1622493Y1444648D01*
X1620085Y1445645D01*
X1617500Y1445986D01*
X1608500D01*
X1605916Y1445645D01*
X1603507Y1444648D01*
X1601439Y1443061D01*
X1601315Y1442899D01*
X1599285D01*
X1599161Y1443061D01*
X1597093Y1444648D01*
X1594684Y1445645D01*
X1592100Y1445986D01*
X1588706D01*
X1587600Y1446094D01*
X1586494Y1445986D01*
X1583100D01*
X1580516Y1445645D01*
X1580298Y1445555D01*
X1578492Y1448934D01*
X1576055Y1451903D01*
X1554619Y1473339D01*
X1551650Y1475776D01*
X1548262Y1477587D01*
X1544587Y1478702D01*
X1540764Y1479078D01*
X1171702D01*
X1167879Y1478702D01*
X1164204Y1477587D01*
X1160816Y1475776D01*
X1157847Y1473339D01*
X1090419Y1405912D01*
X1087982Y1402943D01*
X1086172Y1399555D01*
X1085057Y1395879D01*
X1084680Y1392057D01*
Y1026104D01*
X1085057Y1022281D01*
X1086172Y1018606D01*
X1087982Y1015218D01*
X1090419Y1012249D01*
X1113693Y988975D01*
X1113395Y986967D01*
X1111446Y985925D01*
X1108249Y983301D01*
X1107144Y981954D01*
X1104714Y982194D01*
X1103795Y983913D01*
X1101171Y987111D01*
X1097973Y989735D01*
X1094325Y991685D01*
X1090366Y992886D01*
X1086250Y993291D01*
X1067250D01*
X1063133Y992886D01*
X1059174Y991685D01*
X1055526Y989735D01*
X1052329Y987111D01*
X1049704Y983913D01*
X1047754Y980265D01*
X1046554Y976306D01*
X1046148Y972190D01*
Y963190D01*
X1046472Y959901D01*
X1044597Y958754D01*
X1042121Y960553D01*
X1038054Y962625D01*
X1033713Y964036D01*
X1029204Y964750D01*
X1024640D01*
X1020131Y964036D01*
X1019381Y963792D01*
X1017352Y965267D01*
Y972190D01*
X1016946Y976306D01*
X1015745Y980265D01*
X1013795Y983913D01*
X1011171Y987111D01*
X1007973Y989735D01*
X1004325Y991685D01*
X1000367Y992886D01*
X996250Y993291D01*
X977250D01*
X973133Y992886D01*
X969175Y991685D01*
X965526Y989735D01*
X962329Y987111D01*
X959705Y983913D01*
X957755Y980265D01*
X956554Y976306D01*
X956148Y972190D01*
Y966975D01*
X954981Y966275D01*
X954118Y966038D01*
X950366Y967176D01*
X946250Y967582D01*
X938859D01*
X903146Y1003295D01*
X903923Y1005170D01*
X922000D01*
X925235Y1005489D01*
X928345Y1006432D01*
X931211Y1007964D01*
X933724Y1010026D01*
X935786Y1012539D01*
X937318Y1015405D01*
X938261Y1018515D01*
X938580Y1021750D01*
Y1235104D01*
X940455Y1235881D01*
X958441Y1217895D01*
X961410Y1215458D01*
X964798Y1213647D01*
X968474Y1212532D01*
X972296Y1212156D01*
X1004000D01*
X1007823Y1212532D01*
X1011499Y1213647D01*
X1014887Y1215458D01*
X1017856Y1217895D01*
X1038109Y1238148D01*
X1045500D01*
X1049617Y1238554D01*
X1053575Y1239754D01*
X1057224Y1241704D01*
X1060421Y1244329D01*
X1063046Y1247526D01*
X1064995Y1251175D01*
X1066196Y1255133D01*
X1066602Y1259250D01*
Y1278250D01*
X1066196Y1282366D01*
X1064995Y1286325D01*
X1063046Y1289973D01*
X1060421Y1293171D01*
X1057224Y1295795D01*
X1053575Y1297745D01*
X1049617Y1298946D01*
X1045500Y1299351D01*
X1036500D01*
X1032383Y1298946D01*
X1028425Y1297745D01*
X1024777Y1295795D01*
X1021579Y1293171D01*
X1018955Y1289973D01*
X1017005Y1286325D01*
X1015804Y1282366D01*
X1015399Y1278250D01*
Y1270859D01*
X995884Y1251345D01*
X980413D01*
X933015Y1298742D01*
X932784Y1300720D01*
X933081Y1301431D01*
X933821Y1302334D01*
X937383Y1301254D01*
X941500Y1300848D01*
X960500D01*
X964617Y1301254D01*
X968575Y1302455D01*
X972223Y1304405D01*
X975421Y1307029D01*
X978045Y1310227D01*
X979995Y1313875D01*
X981196Y1317833D01*
X981601Y1321950D01*
Y1329470D01*
X983632Y1330687D01*
X985375Y1329755D01*
X989334Y1328554D01*
X993450Y1328149D01*
X1002450D01*
X1006567Y1328554D01*
X1010526Y1329755D01*
X1014174Y1331705D01*
X1017371Y1334329D01*
X1018460Y1335656D01*
X1020490D01*
X1021579Y1334329D01*
X1024777Y1331705D01*
X1028425Y1329755D01*
X1032383Y1328554D01*
X1036500Y1328149D01*
X1045500D01*
X1049617Y1328554D01*
X1053575Y1329755D01*
X1057224Y1331705D01*
X1060421Y1334329D01*
X1063046Y1337527D01*
X1064995Y1341175D01*
X1066196Y1345133D01*
X1066602Y1349250D01*
Y1368250D01*
X1066196Y1372367D01*
X1064995Y1376325D01*
X1063046Y1379974D01*
X1060421Y1383171D01*
X1057224Y1385795D01*
X1053575Y1387746D01*
X1049617Y1388946D01*
X1045500Y1389352D01*
X1036500D01*
X1032383Y1388946D01*
X1028425Y1387746D01*
X1024777Y1385795D01*
X1021579Y1383171D01*
X1020490Y1381844D01*
X1018460D01*
X1017371Y1383171D01*
X1014174Y1385795D01*
X1010526Y1387746D01*
X1006567Y1388946D01*
X1002450Y1389352D01*
X993450D01*
X989334Y1388946D01*
X985375Y1387746D01*
X981727Y1385795D01*
X978529Y1383171D01*
X975905Y1379974D01*
X973955Y1376325D01*
X972754Y1372367D01*
X972349Y1368250D01*
Y1350730D01*
X970319Y1349513D01*
X968575Y1350445D01*
X964617Y1351646D01*
X960500Y1352052D01*
X941500D01*
X940084Y1351912D01*
X938580Y1353275D01*
Y1499750D01*
X1938504D01*
X1938772Y1497720D01*
D02*
G37*
G36*
X1825777Y649522D02*
X1826153Y645699D01*
X1827268Y642024D01*
X1829079Y638636D01*
X1831516Y635667D01*
X1839288Y627895D01*
X1841970Y625693D01*
Y610252D01*
X1839247Y608796D01*
X1836049Y606171D01*
X1833425Y602974D01*
X1831475Y599326D01*
X1830274Y595367D01*
X1829868Y591250D01*
Y583859D01*
X1793509Y547500D01*
X1704500D01*
Y531061D01*
X1704420Y530250D01*
Y440046D01*
X1704364Y439860D01*
X1704119Y437376D01*
X1702089Y437476D01*
Y504750D01*
X1701733Y510178D01*
X1700672Y515514D01*
X1698923Y520665D01*
X1696517Y525544D01*
X1693495Y530068D01*
X1689908Y534158D01*
X1637792Y586274D01*
X1638569Y588149D01*
X1640050D01*
X1644167Y588554D01*
X1648125Y589755D01*
X1648814Y590123D01*
X1650105Y589433D01*
X1653216Y588489D01*
X1656450Y588171D01*
X1665450D01*
X1668685Y588489D01*
X1671795Y589433D01*
X1674661Y590965D01*
X1677174Y593027D01*
X1681674Y597527D01*
X1683736Y600039D01*
X1685268Y602906D01*
X1686212Y606016D01*
X1686530Y609251D01*
Y628251D01*
X1686212Y631485D01*
X1685268Y634595D01*
X1683736Y637462D01*
X1681674Y639974D01*
X1677174Y644474D01*
X1674661Y646536D01*
X1671795Y648068D01*
X1668685Y649012D01*
X1665450Y649330D01*
X1656450D01*
X1653216Y649012D01*
X1650105Y648068D01*
X1648814Y647378D01*
X1648125Y647746D01*
X1644167Y648947D01*
X1640050Y649352D01*
X1631050D01*
X1626933Y648947D01*
X1622975Y647746D01*
X1619327Y645796D01*
X1616129Y643172D01*
X1613505Y639974D01*
X1611555Y636326D01*
X1610354Y632367D01*
X1609949Y628251D01*
Y616397D01*
X1608100Y615559D01*
X1607318Y616245D01*
X1602794Y619267D01*
X1597915Y621673D01*
X1592764Y623422D01*
X1587428Y624483D01*
X1582000Y624839D01*
X1493750D01*
X1488322Y624483D01*
X1482986Y623422D01*
X1477835Y621673D01*
X1472956Y619267D01*
X1468432Y616245D01*
X1464342Y612658D01*
X1428342Y576658D01*
X1424755Y572568D01*
X1421733Y568045D01*
X1419327Y563166D01*
X1417578Y558014D01*
X1416517Y552679D01*
X1416161Y547250D01*
Y498775D01*
X1414655Y498318D01*
X1411789Y496786D01*
X1409276Y494724D01*
X1407214Y492211D01*
X1405682Y489345D01*
X1404739Y486235D01*
X1404420Y483000D01*
Y437000D01*
X1404039Y436580D01*
X1390349D01*
Y470671D01*
X1390973Y471005D01*
X1394171Y473629D01*
X1396795Y476827D01*
X1398745Y480475D01*
X1399946Y484433D01*
X1400352Y488550D01*
Y497550D01*
X1399946Y501667D01*
X1398745Y505625D01*
X1396795Y509273D01*
X1394171Y512471D01*
X1390973Y515095D01*
X1387325Y517045D01*
X1383367Y518246D01*
X1379250Y518652D01*
X1360250D01*
X1356133Y518246D01*
X1352175Y517045D01*
X1348526Y515095D01*
X1345329Y512471D01*
X1342704Y509273D01*
X1340755Y505625D01*
X1339554Y501667D01*
X1339148Y497550D01*
Y488550D01*
X1339554Y484433D01*
X1340755Y480475D01*
X1342704Y476827D01*
X1345329Y473629D01*
X1348526Y471005D01*
X1349151Y470671D01*
Y436580D01*
X1337898D01*
X1337880Y436578D01*
X1337863Y436580D01*
X1336266Y436419D01*
X1334664Y436261D01*
X1334646Y436256D01*
X1334629Y436254D01*
X1333092Y435784D01*
X1331553Y435318D01*
X1331537Y435309D01*
X1331521Y435304D01*
X1330102Y434542D01*
X1328687Y433786D01*
X1328673Y433774D01*
X1328657Y433766D01*
X1327413Y432740D01*
X1326174Y431724D01*
X1326163Y431710D01*
X1326149Y431699D01*
X1324717Y430260D01*
X1324706Y430246D01*
X1324692Y430235D01*
X1323676Y428986D01*
X1322660Y427743D01*
X1322652Y427728D01*
X1322641Y427714D01*
X1321887Y426290D01*
X1321134Y424874D01*
X1321129Y424857D01*
X1321121Y424841D01*
X1320660Y423297D01*
X1320198Y421761D01*
X1320196Y421744D01*
X1320191Y421726D01*
X1320040Y420121D01*
X1319886Y418526D01*
X1319888Y418508D01*
X1319886Y418491D01*
X1321086Y138018D01*
X1319653Y136580D01*
X1001370D01*
Y420000D01*
X1001051Y423235D01*
X1000108Y426345D01*
X998576Y429211D01*
X996514Y431724D01*
X994001Y433786D01*
X991135Y435318D01*
X988025Y436261D01*
X984790Y436580D01*
X973417D01*
X970000Y436916D01*
X909656D01*
X909580Y437000D01*
Y442678D01*
X912307Y444135D01*
X915200Y446510D01*
X917574Y449403D01*
X919339Y452704D01*
X920425Y456285D01*
X920792Y460010D01*
Y461418D01*
X929829D01*
X932149Y461646D01*
X932453Y461554D01*
X936570Y461148D01*
X945570D01*
X949687Y461554D01*
X953645Y462755D01*
X957293Y464705D01*
X960491Y467329D01*
X963115Y470527D01*
X965065Y474175D01*
X966266Y478133D01*
X966672Y482250D01*
Y501250D01*
X966266Y505367D01*
X965065Y509325D01*
X963115Y512974D01*
X960491Y516171D01*
X957293Y518795D01*
X953645Y520745D01*
X949687Y521946D01*
X945570Y522352D01*
X936570D01*
X932453Y521946D01*
X928495Y520745D01*
X924847Y518795D01*
X921649Y516171D01*
X919025Y512974D01*
X917075Y509325D01*
X915874Y505367D01*
X915468Y501250D01*
Y499602D01*
X903200D01*
X902619Y499544D01*
X900589Y501137D01*
Y528523D01*
X912227Y540161D01*
X966023D01*
X1020161Y486023D01*
Y422420D01*
X1019963Y421761D01*
X1019961Y421744D01*
X1019956Y421726D01*
X1019805Y420122D01*
X1019651Y418526D01*
X1019653Y418508D01*
X1019651Y418491D01*
X1020714Y169929D01*
X1020877Y168347D01*
X1021032Y166765D01*
X1021043Y166731D01*
X1021047Y166696D01*
X1021515Y165175D01*
X1021976Y163655D01*
X1021993Y163624D01*
X1022003Y163590D01*
X1022759Y162191D01*
X1023508Y160789D01*
X1023531Y160761D01*
X1023548Y160730D01*
X1024562Y159504D01*
X1025570Y158276D01*
X1025598Y158254D01*
X1025620Y158226D01*
X1026855Y157222D01*
X1028083Y156214D01*
X1028114Y156198D01*
X1028142Y156175D01*
X1029548Y155431D01*
X1030949Y154682D01*
X1030983Y154672D01*
X1031014Y154655D01*
X1032539Y154200D01*
X1034059Y153739D01*
X1034095Y153735D01*
X1034129Y153725D01*
X1035713Y153576D01*
X1037294Y153420D01*
X1286225D01*
X1289459Y153739D01*
X1292569Y154682D01*
X1295436Y156214D01*
X1297948Y158276D01*
X1300010Y160789D01*
X1301542Y163655D01*
X1302486Y166765D01*
X1302805Y170000D01*
Y420000D01*
X1302486Y423235D01*
X1301542Y426345D01*
X1300010Y429211D01*
X1297948Y431724D01*
X1295436Y433786D01*
X1292569Y435318D01*
X1289459Y436261D01*
X1286225Y436580D01*
X1209711D01*
X1209330Y437000D01*
X1209205Y438269D01*
Y440918D01*
X1213510D01*
X1217234Y441285D01*
X1220816Y442371D01*
X1224117Y444135D01*
X1227010Y446510D01*
X1241649Y461148D01*
X1249750D01*
X1253867Y461554D01*
X1257825Y462755D01*
X1261474Y464705D01*
X1264671Y467329D01*
X1265579D01*
X1268777Y464705D01*
X1272425Y462755D01*
X1276384Y461554D01*
X1280500Y461148D01*
X1289500D01*
X1293617Y461554D01*
X1297575Y462755D01*
X1301224Y464705D01*
X1304421Y467329D01*
X1307045Y470527D01*
X1308996Y474175D01*
X1310196Y478133D01*
X1310602Y482250D01*
Y501250D01*
X1310196Y505367D01*
X1308996Y509325D01*
X1307045Y512974D01*
X1304421Y516171D01*
X1301224Y518795D01*
X1297575Y520745D01*
X1293617Y521946D01*
X1289500Y522352D01*
X1280500D01*
X1276384Y521946D01*
X1272425Y520745D01*
X1268777Y518795D01*
X1266606Y517014D01*
X1265125Y516369D01*
X1263645Y517014D01*
X1261474Y518795D01*
X1257825Y520745D01*
X1253867Y521946D01*
X1249750Y522352D01*
X1240750D01*
X1236634Y521946D01*
X1232675Y520745D01*
X1229027Y518795D01*
X1225829Y516171D01*
X1223205Y512974D01*
X1221255Y509325D01*
X1220054Y505367D01*
X1219649Y501250D01*
Y493148D01*
X1211077Y484577D01*
X1208963Y485333D01*
X1208886Y486110D01*
X1207943Y489220D01*
X1206411Y492086D01*
X1204349Y494599D01*
X1200330Y498618D01*
Y510609D01*
X1202386Y511708D01*
X1205355Y514145D01*
X1242359Y551149D01*
X1249750D01*
X1253867Y551554D01*
X1254271Y551677D01*
X1261303Y544645D01*
X1264273Y542208D01*
X1267660Y540397D01*
X1271336Y539282D01*
X1275159Y538906D01*
X1331064D01*
X1333798Y537513D01*
X1338139Y536102D01*
X1342648Y535388D01*
X1347212D01*
X1351721Y536102D01*
X1356062Y537513D01*
X1360129Y539585D01*
X1363822Y542268D01*
X1367050Y545496D01*
X1369733Y549189D01*
X1371805Y553256D01*
X1373216Y557597D01*
X1373930Y562106D01*
Y566670D01*
X1373216Y571179D01*
X1371805Y575520D01*
X1369733Y579587D01*
X1367050Y583280D01*
X1363822Y586508D01*
X1360129Y589191D01*
X1356062Y591263D01*
X1351721Y592674D01*
X1347212Y593388D01*
X1342648D01*
X1338139Y592674D01*
X1333798Y591263D01*
X1329731Y589191D01*
X1326038Y586508D01*
X1322810Y583280D01*
X1320127Y579587D01*
X1319366Y578094D01*
X1310602D01*
Y591250D01*
X1310196Y595367D01*
X1308996Y599326D01*
X1307968Y601248D01*
X1309146Y605133D01*
X1309552Y609250D01*
Y616641D01*
X1337545Y644634D01*
X1341116D01*
X1345625Y645348D01*
X1349966Y646759D01*
X1354033Y648831D01*
X1357726Y651514D01*
X1360954Y654742D01*
X1363637Y658435D01*
X1365709Y662502D01*
X1367120Y666843D01*
X1367834Y671352D01*
Y675916D01*
X1367120Y680425D01*
X1365709Y684766D01*
X1363637Y688833D01*
X1360954Y692526D01*
X1357726Y695754D01*
X1354033Y698437D01*
X1349966Y700509D01*
X1345625Y701920D01*
X1341116Y702634D01*
X1336552D01*
X1332043Y701920D01*
X1327702Y700509D01*
X1323635Y698437D01*
X1319942Y695754D01*
X1316714Y692526D01*
X1314031Y688833D01*
X1311959Y684766D01*
X1310548Y680425D01*
X1309834Y675916D01*
Y672345D01*
X1286841Y649352D01*
X1279450D01*
X1275333Y648946D01*
X1271375Y647745D01*
X1270687Y647377D01*
X1269395Y648068D01*
X1266285Y649011D01*
X1263050Y649330D01*
X1254050D01*
X1250816Y649011D01*
X1247705Y648068D01*
X1244839Y646536D01*
X1242327Y644474D01*
X1237827Y639974D01*
X1235764Y637461D01*
X1234232Y634595D01*
X1233289Y631485D01*
X1232970Y628250D01*
Y610835D01*
X1232675Y610746D01*
X1229027Y608796D01*
X1225829Y606171D01*
X1223205Y602974D01*
X1221255Y599326D01*
X1220054Y595367D01*
X1219649Y591250D01*
Y583859D01*
X1183383Y547594D01*
X1163250D01*
X1162293Y547500D01*
X1105250D01*
Y531561D01*
X1105170Y530750D01*
Y506350D01*
X1103140Y506284D01*
X1102983Y508679D01*
X1101922Y514014D01*
X1100173Y519166D01*
X1097767Y524045D01*
X1094745Y528568D01*
X1091158Y532658D01*
X1036698Y587118D01*
X1037539Y589148D01*
X1044800D01*
X1048917Y589554D01*
X1052875Y590755D01*
X1053564Y591123D01*
X1054855Y590432D01*
X1057966Y589489D01*
X1061200Y589170D01*
X1070200D01*
X1073435Y589489D01*
X1076545Y590432D01*
X1079411Y591964D01*
X1081924Y594026D01*
X1086424Y598526D01*
X1088486Y601039D01*
X1090018Y603905D01*
X1090961Y607015D01*
X1091280Y610250D01*
Y629250D01*
X1090961Y632484D01*
X1090018Y635595D01*
X1088486Y638461D01*
X1086424Y640974D01*
X1082028Y645370D01*
X1081992Y645436D01*
X1079556Y648405D01*
X1051419Y676541D01*
X1048450Y678978D01*
X1045062Y680789D01*
X1041387Y681904D01*
X1037564Y682280D01*
X819486D01*
X816960Y684806D01*
X813267Y687489D01*
X809200Y689561D01*
X804859Y690972D01*
X800350Y691686D01*
X795786D01*
X791277Y690972D01*
X786936Y689561D01*
X782869Y687489D01*
X779176Y684806D01*
X775948Y681578D01*
X773265Y677885D01*
X772262Y675918D01*
X770239Y675758D01*
X768870Y677642D01*
X765642Y680870D01*
X761949Y683553D01*
X757882Y685625D01*
X753541Y687036D01*
X749032Y687750D01*
X744467D01*
X739959Y687036D01*
X735618Y685625D01*
X731551Y683553D01*
X727858Y680870D01*
X725332Y678344D01*
X686359D01*
X682536Y677968D01*
X678860Y676853D01*
X675473Y675042D01*
X672504Y672605D01*
X650193Y650294D01*
X647316Y650011D01*
X644205Y649068D01*
X641339Y647535D01*
X638827Y645473D01*
X634327Y640974D01*
X632265Y638461D01*
X630732Y635595D01*
X629789Y632484D01*
X629470Y629250D01*
Y612001D01*
X628923Y611947D01*
X624965Y610746D01*
X621317Y608796D01*
X618119Y606171D01*
X615495Y602974D01*
X613545Y599326D01*
X612344Y595367D01*
X611938Y591250D01*
Y583859D01*
X576878Y548799D01*
X520433Y548572D01*
X519733Y548500D01*
X506000D01*
Y539868D01*
X505933Y539742D01*
X505182Y538337D01*
X505173Y538305D01*
X505157Y538275D01*
X504702Y536752D01*
X504239Y535227D01*
X504235Y535193D01*
X504226Y535161D01*
X504076Y533576D01*
X503920Y531992D01*
Y512352D01*
X501890Y512153D01*
X501172Y515764D01*
X499423Y520916D01*
X497017Y525795D01*
X493995Y530318D01*
X490408Y534408D01*
X437483Y587333D01*
X438351Y589168D01*
X438550Y589148D01*
X447550D01*
X451666Y589554D01*
X455625Y590755D01*
X456313Y591123D01*
X457605Y590432D01*
X460715Y589489D01*
X463950Y589170D01*
X472950D01*
X476184Y589489D01*
X479295Y590432D01*
X482161Y591964D01*
X484673Y594026D01*
X489173Y598526D01*
X491235Y601039D01*
X492767Y603905D01*
X493711Y607015D01*
X494030Y610250D01*
Y629250D01*
X493711Y632484D01*
X492767Y635595D01*
X491235Y638461D01*
X489173Y640974D01*
X484673Y645474D01*
X482161Y647535D01*
X479295Y649068D01*
X476184Y650011D01*
X472950Y650330D01*
X463950D01*
X462644Y651513D01*
Y672017D01*
X529679Y739052D01*
X553396D01*
X557219Y739428D01*
X560895Y740543D01*
X564282Y742354D01*
X567252Y744791D01*
X573842Y751381D01*
X883470D01*
Y749910D01*
X883789Y746675D01*
X884732Y743565D01*
X886264Y740698D01*
X888326Y738186D01*
X892826Y733686D01*
X895339Y731624D01*
X898205Y730092D01*
X901315Y729148D01*
X904550Y728830D01*
X913550D01*
X916784Y729148D01*
X919895Y730092D01*
X921186Y730782D01*
X921874Y730414D01*
X925833Y729214D01*
X929950Y728808D01*
X938950D01*
X943066Y729214D01*
X947025Y730414D01*
X950673Y732364D01*
X953871Y734989D01*
X956495Y738186D01*
X958445Y741834D01*
X959646Y745793D01*
X960051Y749910D01*
Y751381D01*
X1109750D01*
X1110130Y750858D01*
X1113358Y747630D01*
X1117051Y744947D01*
X1121118Y742875D01*
X1125459Y741464D01*
X1129968Y740750D01*
X1134533D01*
X1139041Y741464D01*
X1143382Y742875D01*
X1147449Y744947D01*
X1151142Y747630D01*
X1154370Y750858D01*
X1154750Y751381D01*
X1490610D01*
X1490982Y750155D01*
X1492514Y747289D01*
X1494576Y744776D01*
X1499076Y740276D01*
X1501589Y738214D01*
X1504455Y736682D01*
X1507565Y735739D01*
X1510800Y735420D01*
X1519800D01*
X1523035Y735739D01*
X1526145Y736682D01*
X1527436Y737373D01*
X1528125Y737005D01*
X1532083Y735804D01*
X1536200Y735398D01*
X1545200D01*
X1549317Y735804D01*
X1553275Y737005D01*
X1556923Y738955D01*
X1560121Y741579D01*
X1562745Y744777D01*
X1564695Y748425D01*
X1565592Y751381D01*
X1588086D01*
X1589459Y750647D01*
X1593135Y749532D01*
X1596958Y749156D01*
X1714646D01*
X1718469Y749532D01*
X1722144Y750647D01*
X1723517Y751381D01*
X1825777D01*
Y649522D01*
D02*
G37*
G36*
X775948Y643794D02*
X779176Y640566D01*
X782869Y637883D01*
X786936Y635811D01*
X791277Y634400D01*
X795786Y633686D01*
X800350D01*
X804859Y634400D01*
X809200Y635811D01*
X813267Y637883D01*
X816960Y640566D01*
X819486Y643092D01*
X1017619D01*
X1018487Y641257D01*
X1018255Y640973D01*
X1016305Y637325D01*
X1015104Y633367D01*
X1014699Y629250D01*
Y611988D01*
X1012669Y611147D01*
X1012658Y611158D01*
X1008568Y614745D01*
X1004044Y617768D01*
X999165Y620174D01*
X994014Y621922D01*
X988678Y622984D01*
X983250Y623340D01*
X895000D01*
X889572Y622984D01*
X884236Y621922D01*
X879085Y620174D01*
X874205Y617768D01*
X869682Y614745D01*
X865592Y611158D01*
X858717Y604283D01*
X829592Y575158D01*
X826005Y571068D01*
X824136Y568270D01*
X822983Y566544D01*
X822983Y566544D01*
X821938Y564426D01*
X820577Y561665D01*
X820577Y561665D01*
X818828Y556514D01*
X818828Y556514D01*
X818183Y553272D01*
X817767Y551179D01*
X817767Y551178D01*
X817574Y548240D01*
X817411Y545750D01*
Y499002D01*
X815155Y498318D01*
X812289Y496786D01*
X809776Y494724D01*
X807714Y492211D01*
X806182Y489345D01*
X805239Y486235D01*
X804920Y483000D01*
Y437000D01*
X804539Y436580D01*
X792099D01*
Y470671D01*
X792723Y471005D01*
X795921Y473629D01*
X798545Y476827D01*
X800495Y480475D01*
X801696Y484433D01*
X802102Y488550D01*
Y497550D01*
X801696Y501667D01*
X800495Y505625D01*
X798545Y509273D01*
X795921Y512471D01*
X792723Y515095D01*
X789075Y517045D01*
X785117Y518246D01*
X781000Y518652D01*
X762000D01*
X757883Y518246D01*
X753925Y517045D01*
X750277Y515095D01*
X747079Y512471D01*
X744455Y509273D01*
X742505Y505625D01*
X741304Y501667D01*
X740899Y497550D01*
Y488550D01*
X741304Y484433D01*
X742505Y480475D01*
X744455Y476827D01*
X747079Y473629D01*
X750277Y471005D01*
X750901Y470671D01*
Y436580D01*
X736228D01*
X736211Y436578D01*
X736193Y436580D01*
X734597Y436419D01*
X732994Y436261D01*
X732977Y436256D01*
X732959Y436254D01*
X731422Y435784D01*
X729884Y435318D01*
X729868Y435309D01*
X729851Y435304D01*
X728432Y434542D01*
X727017Y433786D01*
X727004Y433774D01*
X726988Y433766D01*
X725744Y432740D01*
X724505Y431724D01*
X724494Y431710D01*
X724480Y431699D01*
X723047Y430260D01*
X723036Y430246D01*
X723022Y430235D01*
X722006Y428986D01*
X720991Y427743D01*
X720983Y427728D01*
X720971Y427714D01*
X720218Y426290D01*
X719465Y424874D01*
X719460Y424857D01*
X719451Y424841D01*
X718990Y423297D01*
X718528Y421761D01*
X718526Y421744D01*
X718521Y421726D01*
X718370Y420121D01*
X718216Y418526D01*
X718218Y418508D01*
X718216Y418491D01*
X719416Y138018D01*
X717984Y136580D01*
X406580D01*
Y420000D01*
X406261Y423235D01*
X405318Y426345D01*
X403786Y429211D01*
X401724Y431724D01*
X399211Y433786D01*
X396345Y435318D01*
X393235Y436261D01*
X390000Y436580D01*
X310686D01*
X308830Y438610D01*
Y442656D01*
X311597Y444135D01*
X314490Y446510D01*
X316864Y449403D01*
X318629Y452704D01*
X319715Y456285D01*
X320082Y460010D01*
Y461337D01*
X327679D01*
X330261Y461591D01*
X330383Y461554D01*
X334500Y461148D01*
X343500D01*
X347617Y461554D01*
X351575Y462755D01*
X355224Y464705D01*
X358421Y467329D01*
X361045Y470527D01*
X362995Y474175D01*
X364196Y478133D01*
X364602Y482250D01*
Y501250D01*
X364196Y505367D01*
X362995Y509325D01*
X361045Y512974D01*
X358421Y516171D01*
X355224Y518795D01*
X351575Y520745D01*
X347617Y521946D01*
X343500Y522352D01*
X334500D01*
X330383Y521946D01*
X326425Y520745D01*
X322777Y518795D01*
X319579Y516171D01*
X316955Y512974D01*
X315005Y509325D01*
X313804Y505367D01*
X313398Y501250D01*
Y499521D01*
X302490D01*
X301869Y499459D01*
X299839Y501035D01*
Y530273D01*
X311477Y541911D01*
X365273D01*
X419411Y487773D01*
Y420927D01*
X419335Y420122D01*
X419181Y418526D01*
X419183Y418508D01*
X419181Y418491D01*
X420255Y167389D01*
X420418Y165806D01*
X420574Y164225D01*
X420584Y164191D01*
X420588Y164156D01*
X421056Y162635D01*
X421517Y161115D01*
X421534Y161084D01*
X421544Y161050D01*
X422300Y159651D01*
X423049Y158249D01*
X423072Y158221D01*
X423089Y158190D01*
X424103Y156964D01*
X425111Y155736D01*
X425139Y155714D01*
X425161Y155686D01*
X426396Y154682D01*
X427624Y153674D01*
X427655Y153658D01*
X427683Y153635D01*
X429090Y152891D01*
X430490Y152142D01*
X430524Y152132D01*
X430556Y152115D01*
X432080Y151660D01*
X433600Y151199D01*
X433636Y151195D01*
X433670Y151185D01*
X435253Y151036D01*
X436835Y150880D01*
X685755D01*
X688989Y151199D01*
X692100Y152142D01*
X694966Y153674D01*
X697479Y155736D01*
X699540Y158249D01*
X701073Y161115D01*
X702016Y164225D01*
X702335Y167460D01*
Y420000D01*
X702016Y423235D01*
X701073Y426345D01*
X699540Y429211D01*
X697479Y431724D01*
X694966Y433786D01*
X692100Y435318D01*
X688989Y436261D01*
X685755Y436580D01*
X608961D01*
X608580Y437000D01*
Y442672D01*
X611317Y444135D01*
X614210Y446510D01*
X616584Y449403D01*
X618349Y452704D01*
X619435Y456285D01*
X619802Y460010D01*
Y461337D01*
X626219D01*
X628801Y461591D01*
X628923Y461554D01*
X633040Y461148D01*
X642040D01*
X646157Y461554D01*
X650115Y462755D01*
X653763Y464705D01*
X656961Y467329D01*
X658130Y468753D01*
X660160D01*
X661329Y467329D01*
X664527Y464705D01*
X668175Y462755D01*
X672133Y461554D01*
X676250Y461148D01*
X685250D01*
X689367Y461554D01*
X693325Y462755D01*
X696973Y464705D01*
X700171Y467329D01*
X702795Y470527D01*
X704745Y474175D01*
X705946Y478133D01*
X706351Y482250D01*
Y501250D01*
X705946Y505367D01*
X704745Y509325D01*
X702795Y512974D01*
X700171Y516171D01*
X696973Y518795D01*
X693325Y520745D01*
X689367Y521946D01*
X685250Y522352D01*
X676250D01*
X672133Y521946D01*
X668175Y520745D01*
X664527Y518795D01*
X661329Y516171D01*
X660160Y514747D01*
X658130D01*
X656961Y516171D01*
X653763Y518795D01*
X650115Y520745D01*
X646157Y521946D01*
X642040Y522352D01*
X633040D01*
X628923Y521946D01*
X624965Y520745D01*
X621317Y518795D01*
X618119Y516171D01*
X615495Y512974D01*
X613545Y509325D01*
X612344Y505367D01*
X611938Y501250D01*
Y499521D01*
X602210D01*
X601080Y500545D01*
Y517580D01*
X634649Y551149D01*
X642040D01*
X646157Y551554D01*
X650115Y552755D01*
X653763Y554705D01*
X656961Y557329D01*
X658130Y558753D01*
X660160D01*
X661329Y557329D01*
X664527Y554705D01*
X668175Y552755D01*
X672133Y551554D01*
X676250Y551148D01*
X685250D01*
X689367Y551554D01*
X693325Y552755D01*
X696973Y554705D01*
X700171Y557329D01*
X702795Y560527D01*
X703666Y562156D01*
X712750D01*
X716573Y562532D01*
X720248Y563647D01*
X723636Y565458D01*
X726605Y567895D01*
X739541Y580830D01*
X743541Y581464D01*
X747882Y582874D01*
X751949Y584947D01*
X755642Y587630D01*
X758870Y590858D01*
X761553Y594551D01*
X763625Y598618D01*
X765036Y602959D01*
X765750Y607467D01*
Y612032D01*
X765036Y616541D01*
X763625Y620882D01*
X761553Y624949D01*
X758870Y628642D01*
X757545Y629967D01*
X758297Y632086D01*
X761949Y633947D01*
X765642Y636630D01*
X768870Y639858D01*
X771553Y643551D01*
X772555Y645518D01*
X774579Y645678D01*
X775948Y643794D01*
D02*
G37*
G36*
X256101Y715561D02*
X230895Y690355D01*
X228458Y687386D01*
X226647Y683998D01*
X225532Y680323D01*
X225156Y676500D01*
Y627918D01*
X222630Y625392D01*
X219947Y621699D01*
X217875Y617632D01*
X216464Y613291D01*
X215750Y608783D01*
Y604218D01*
X216464Y599709D01*
X217875Y595368D01*
X219947Y591301D01*
X222630Y587608D01*
X225858Y584380D01*
X229550Y581697D01*
X230715Y581104D01*
X231033Y579099D01*
X228842Y576908D01*
X225255Y572818D01*
X225255Y572818D01*
X222233Y568295D01*
X222233Y568295D01*
X221202Y566204D01*
X219827Y563416D01*
X218078Y558264D01*
X218078Y558264D01*
X217017Y552929D01*
X216796Y549567D01*
X216661Y547500D01*
Y499002D01*
X214405Y498318D01*
X211539Y496786D01*
X209026Y494724D01*
X206964Y492211D01*
X205432Y489345D01*
X204489Y486235D01*
X204170Y483000D01*
Y437000D01*
X203789Y436580D01*
X165529D01*
Y486519D01*
X167559Y488024D01*
X169933Y487304D01*
X174050Y486898D01*
X183050D01*
X187167Y487304D01*
X191125Y488505D01*
X194773Y490455D01*
X197971Y493079D01*
X200595Y496277D01*
X202545Y499925D01*
X203746Y503883D01*
X204151Y508000D01*
Y527000D01*
X203746Y531117D01*
X202545Y535075D01*
X200595Y538723D01*
X197971Y541921D01*
X194773Y544545D01*
X191125Y546495D01*
X187167Y547696D01*
X183050Y548102D01*
X174050D01*
X169933Y547696D01*
X167559Y546976D01*
X165529Y548482D01*
Y716360D01*
X247650D01*
X252232Y716720D01*
X255070Y717402D01*
X256101Y715561D01*
D02*
G37*
G36*
X1492500Y437000D02*
X1421000D01*
Y483000D01*
X1492500D01*
Y437000D01*
D02*
G37*
G36*
X1183750Y491750D02*
X1192625Y482875D01*
Y437125D01*
X1192750Y437000D01*
X1121250D01*
Y483000D01*
X1121750D01*
Y530750D01*
X1183750Y531000D01*
Y491750D01*
D02*
G37*
G36*
X893000Y437000D02*
X821500D01*
Y483000D01*
X893000D01*
Y437000D01*
D02*
G37*
G36*
X584500Y493000D02*
X592000Y483000D01*
Y437000D01*
X520500D01*
Y531992D01*
X584500Y532250D01*
Y493000D01*
D02*
G37*
G36*
X292250Y437000D02*
X220750D01*
Y483000D01*
X292250D01*
Y437000D01*
D02*
G37*
G36*
X1783000Y491250D02*
X1791875Y482375D01*
Y436625D01*
X1720625D01*
X1721000Y437000D01*
Y530250D01*
X1783000Y530500D01*
Y491250D01*
D02*
G37*
G36*
X1885424Y170000D02*
X1636494D01*
X1635431Y418562D01*
X1636863Y420000D01*
X1885424D01*
Y170000D01*
D02*
G37*
G36*
X1286225D02*
X1037294D01*
X1036231Y418562D01*
X1037663Y420000D01*
X1286225D01*
Y170000D01*
D02*
G37*
G36*
X685755Y167460D02*
X436835D01*
X435761Y418562D01*
X437193Y420000D01*
X685755D01*
Y167460D01*
D02*
G37*
G36*
X1586460Y50000D02*
X100770D01*
X99194Y418562D01*
X100626Y420000D01*
X390000Y420000D01*
Y120000D01*
X736073D01*
X734796Y418562D01*
X736228Y420000D01*
X984790D01*
Y120000D01*
X1337742D01*
X1336466Y418562D01*
X1337898Y420000D01*
X1586460D01*
Y50000D01*
D02*
G37*
%LPC*%
G36*
X1769900Y1445986D02*
X1760900D01*
X1758316Y1445645D01*
X1755907Y1444648D01*
X1753839Y1443061D01*
X1752253Y1440993D01*
X1751255Y1438584D01*
X1750915Y1436000D01*
Y1417000D01*
X1751255Y1414416D01*
X1752253Y1412007D01*
X1753839Y1409939D01*
X1755907Y1408353D01*
X1758316Y1407355D01*
X1760900Y1407015D01*
X1769900D01*
X1772484Y1407355D01*
X1774893Y1408353D01*
X1776961Y1409939D01*
X1778548Y1412007D01*
X1779545Y1414416D01*
X1779886Y1417000D01*
Y1436000D01*
X1779545Y1438584D01*
X1778548Y1440993D01*
X1776961Y1443061D01*
X1774893Y1444648D01*
X1772484Y1445645D01*
X1769900Y1445986D01*
D02*
G37*
%LPD*%
D10*
X1286789Y763649D02*
D03*
Y755775D02*
D03*
D11*
X1752000Y600500D02*
D03*
X1152750D02*
D03*
X553500Y601500D02*
D03*
X1152750Y517500D02*
D03*
X553500Y518500D02*
D03*
X1752000Y517500D02*
D03*
D12*
X1463040Y368510D02*
D03*
X863600D02*
D03*
X262890D02*
D03*
X562610D02*
D03*
X1762760D02*
D03*
X1163320D02*
D03*
D13*
X600710Y460010D02*
D03*
X524510D02*
D03*
X575310D02*
D03*
X537210D02*
D03*
X549910D02*
D03*
X588010D02*
D03*
X288290D02*
D03*
X275590D02*
D03*
X250190D02*
D03*
X237490D02*
D03*
X224790D02*
D03*
X1188720D02*
D03*
X1176020D02*
D03*
X1150620D02*
D03*
X1137920D02*
D03*
X1125220D02*
D03*
X1201420D02*
D03*
X300990D02*
D03*
X1724660D02*
D03*
X1737360D02*
D03*
X1750060D02*
D03*
X1775460D02*
D03*
X1788160D02*
D03*
X1800860D02*
D03*
X1424940D02*
D03*
X1437640D02*
D03*
X1450340D02*
D03*
X1475740D02*
D03*
X1488440D02*
D03*
X1501140D02*
D03*
X901700D02*
D03*
X825500D02*
D03*
X838200D02*
D03*
X850900D02*
D03*
X876300D02*
D03*
X889000D02*
D03*
D14*
X1574208Y786500D02*
X1579208D01*
X1564500Y796208D02*
Y819970D01*
Y796208D02*
X1574208Y786500D01*
X1548000Y836470D02*
X1564500Y819970D01*
X1579208Y786500D02*
X1596958Y768750D01*
X1714646D01*
X1753750Y807854D01*
X1745052Y837730D02*
X1746932D01*
X1737652Y845130D02*
X1745052Y837730D01*
X1754840Y809638D02*
Y829821D01*
X1746932Y837730D02*
X1754840Y829821D01*
X1731840Y845130D02*
X1737652D01*
X1753750Y808548D02*
X1754840Y809638D01*
X1753750Y807854D02*
Y808548D01*
X1761222Y798356D02*
X1766840Y803973D01*
X1373250Y522014D02*
X1556318Y705082D01*
X1761222Y705050D02*
Y798356D01*
X1745594Y941656D02*
X1766840Y920410D01*
Y803973D02*
Y920410D01*
X1658786Y705050D02*
X1761222D01*
X1658754Y705082D02*
X1658786Y705050D01*
X1556318Y705082D02*
X1658754D01*
X1373930D02*
X1556318D01*
X1747369Y605131D02*
X1761222Y618984D01*
X1712250Y584962D02*
X1727200D01*
X1550924Y877570D02*
X1724800D01*
X1736914Y941656D02*
X1745594D01*
X1731840Y946730D02*
X1736914Y941656D01*
X771550Y706850D02*
X787368D01*
X1546860Y491750D02*
X1585452D01*
X1595733Y502031D01*
X1600875D01*
X1263250Y570409D02*
Y614050D01*
Y570409D02*
X1275159Y558500D01*
X1258550Y618750D02*
X1263250Y614050D01*
X1339789Y564388D02*
X1344930D01*
X1333901Y558500D02*
X1339789Y564388D01*
X1275159Y558500D02*
X1333901D01*
X1065700Y619750D02*
Y634550D01*
X798068Y662686D02*
X1037564D01*
X1065700Y634550D01*
X863600Y417322D02*
X970000D01*
X844850Y1359196D02*
Y1435600D01*
X826008Y417322D02*
X863600D01*
X820398Y411712D02*
X820398Y411712D01*
X775716Y367030D02*
X820398Y411712D01*
X1934950Y742950D02*
X1949250Y757250D01*
X1409800Y1162050D02*
X1425850Y1146000D01*
X1708960D01*
X1785040Y1069920D01*
X1391158Y1067158D02*
Y1198626D01*
X1241298Y886048D02*
Y917298D01*
X1391158Y1067158D01*
X1222604Y867354D02*
X1241298Y886048D01*
X1213944Y867354D02*
X1222604D01*
X1208870Y862280D02*
X1213944Y867354D01*
X1026922Y914400D02*
Y935750D01*
X991616Y879094D02*
X1026922Y914400D01*
X1177300Y982550D02*
X1177750Y983000D01*
X1177300Y961200D02*
Y982550D01*
X1201407Y1026893D02*
X1251799D01*
X1278500Y1053594D01*
Y1071406D01*
X1245310Y1104595D02*
X1278500Y1071406D01*
X1240788Y1104595D02*
X1245310D01*
X1186275Y1133475D02*
X1257000Y1062750D01*
Y1062500D02*
Y1062750D01*
X1186275Y1133475D02*
Y1188262D01*
X1151275Y1198600D02*
X1156349Y1193526D01*
X1164041D01*
X1174275Y1183292D01*
Y1137708D02*
Y1183292D01*
X1164250Y1127683D02*
X1174275Y1137708D01*
X1164250Y1089450D02*
Y1127683D01*
X1193491Y1198017D02*
X1198275Y1193233D01*
X1193491Y1198017D02*
Y1245655D01*
X1181491Y1193046D02*
X1186275Y1188262D01*
X1181491Y1193046D02*
Y1214759D01*
X1198275Y1147109D02*
X1240788Y1104595D01*
X1198275Y1147109D02*
Y1193233D01*
X1174324Y1053976D02*
X1201407Y1026893D01*
X1168438Y1064050D02*
X1174324Y1058164D01*
X1201483Y1253647D02*
X1226428D01*
X1230675Y1249400D01*
X1193491Y1245655D02*
X1201483Y1253647D01*
X1164250Y1064050D02*
X1168438D01*
X1174324Y1053976D02*
Y1058164D01*
X1172250Y1224000D02*
X1181491Y1214759D01*
X1145463Y1198600D02*
X1151275D01*
X1138063Y1206000D02*
X1145463Y1198600D01*
Y1249400D02*
X1151275D01*
X1138063Y1242000D02*
X1145463Y1249400D01*
X1136183Y1242000D02*
X1138063D01*
X1136183Y1206000D02*
X1138063D01*
X1128275Y1213908D02*
Y1234092D01*
Y1213908D02*
X1136183Y1206000D01*
X1128275Y1234092D02*
X1136183Y1242000D01*
X1177300Y961200D02*
X1194946Y943554D01*
X1203796D01*
X1208870Y938480D01*
X1877500Y911810D02*
X1884900Y904410D01*
X1740000Y1172500D02*
Y1426500D01*
X1867550Y618750D02*
X1873550Y612750D01*
X1389938Y911810D02*
X1484122Y817626D01*
X1271750Y911810D02*
X1389938D01*
X1934950Y555280D02*
Y742950D01*
X1873550Y567608D02*
Y612750D01*
X1877523Y558664D02*
Y563635D01*
X1873550Y567608D02*
X1877523Y563635D01*
X1895421Y515750D02*
X1934950Y555280D01*
X1877609Y515750D02*
X1895421D01*
X1865015Y546155D02*
X1877523Y558664D01*
X1865015Y528344D02*
Y546155D01*
Y528344D02*
X1877609Y515750D01*
X686359Y658750D02*
X746750D01*
X655050Y627441D02*
X686359Y658750D01*
X655050Y619750D02*
Y627441D01*
X1357728Y1446022D02*
X1426054Y1377696D01*
X1151275Y1224000D02*
X1172250D01*
X736750Y605750D02*
Y609750D01*
X712750Y581750D02*
X736750Y605750D01*
X680750Y581750D02*
X712750D01*
X680450Y600756D02*
X680750Y600456D01*
X680450Y600756D02*
Y619750D01*
X680750Y581750D02*
Y600456D01*
X1235000Y1325125D02*
Y1345750D01*
X1230675Y1274800D02*
Y1300200D01*
Y1320800D01*
X1235000Y1325125D01*
X1236487Y1198600D02*
X1254583D01*
X1338834Y1090441D02*
Y1117916D01*
X1258150Y1198600D02*
X1338834Y1117916D01*
X1345250Y1285706D02*
Y1420250D01*
X1258150Y1198600D02*
Y1198606D01*
X1345250Y1285706D01*
X1230675Y1198600D02*
X1236487D01*
X1254583D02*
X1258150D01*
X1283950Y618750D02*
X1338834Y673634D01*
X1283950Y600744D02*
X1285000Y599694D01*
X1283950Y600744D02*
Y618750D01*
X1285000Y581750D02*
Y599694D01*
X1821250Y992012D02*
Y1111650D01*
Y992012D02*
X1831040Y982222D01*
X1765400Y1167500D02*
X1821250Y1111650D01*
X1831040Y860438D02*
Y982222D01*
X1765400Y1167500D02*
Y1172500D01*
X1818926Y850203D02*
X1820806D01*
X1877500Y886410D02*
X1922950Y840959D01*
X1820806Y850203D02*
X1831040Y860438D01*
X1808040Y845130D02*
X1813852D01*
X1818926Y850203D01*
X1922950Y562138D02*
Y840959D01*
X1907562Y546750D02*
X1922950Y562138D01*
X1901156Y546750D02*
X1907562D01*
X1891656Y537250D02*
X1901156Y546750D01*
X1886515Y537250D02*
X1891656D01*
X635086Y832806D02*
X640160Y837880D01*
X627556Y832806D02*
X635086D01*
X625230Y830480D02*
X627556Y832806D01*
X625068Y830480D02*
X625230D01*
X617160Y822410D02*
Y822572D01*
X625068Y830480D01*
X521563Y758646D02*
X553396D01*
X617160Y822410D01*
X443050Y680133D02*
X521563Y758646D01*
X443050Y619750D02*
Y680133D01*
X1885550Y606765D02*
Y631978D01*
Y606765D02*
Y631978D01*
Y606765D02*
Y631978D01*
X1845371Y649522D02*
Y984861D01*
Y649522D02*
X1853143Y641750D01*
X1833250Y996982D02*
X1845371Y984861D01*
X1875778Y641750D02*
X1885550Y631978D01*
X1853143Y641750D02*
X1875778D01*
X1833250Y996982D02*
Y1467250D01*
X1892500Y603250D02*
X1892950Y618750D01*
X1892500Y581750D02*
Y603250D01*
X1885550Y606765D02*
Y618750D01*
Y631978D01*
X1889065Y603250D02*
X1892500D01*
X1885550Y606765D02*
X1889065Y603250D01*
X1160732Y1396232D02*
X1188974D01*
X1116275Y1351775D02*
X1160732Y1396232D01*
X1116275Y1188975D02*
X1131789Y1173461D01*
X1116275Y1188975D02*
Y1351775D01*
X1151015Y1173461D02*
X1151275Y1173200D01*
X1131789Y1173461D02*
X1151015D01*
X1235749Y1229074D02*
X1244074D01*
X1229938D02*
X1235749D01*
X820398Y411712D02*
X826008Y417322D01*
X1752000Y517500D02*
X1791220D01*
X526375Y598125D02*
Y611125D01*
Y598125D02*
Y611125D01*
Y598125D02*
Y611125D01*
X1727200Y584962D02*
X1747369Y605131D01*
X1226487Y1173200D02*
X1230675D01*
X1220601Y1179086D02*
X1226487Y1173200D01*
X1372500Y1074078D02*
Y1303158D01*
X1231870Y933448D02*
X1372500Y1074078D01*
X1231870Y928388D02*
Y933448D01*
X526375Y601500D02*
Y611125D01*
Y598125D02*
Y601500D01*
X586959Y923710D02*
Y940680D01*
X573633Y917941D02*
X581191D01*
X1104275Y1026104D02*
Y1392057D01*
Y1026104D02*
X1155670Y974709D01*
X1752000Y517500D02*
X1791220D01*
X1104275Y1392057D02*
X1171702Y1459484D01*
X1185993Y923295D02*
Y928265D01*
X1185870Y898130D02*
Y923172D01*
X1204599Y891951D02*
X1208870Y887680D01*
X1185870Y923172D02*
X1185993Y923295D01*
X1155670Y958588D02*
X1185993Y928265D01*
X1185870Y898130D02*
X1192049Y891951D01*
X1204599D01*
X1155670Y958588D02*
Y974709D01*
X1109670Y801388D02*
Y905847D01*
X1114241Y910417D02*
X1130007D01*
X1109670Y905847D02*
X1114241Y910417D01*
X1130007D02*
X1132670Y913080D01*
X1109670Y801388D02*
X1110726Y800332D01*
Y791274D02*
X1132250Y769750D01*
X1110726Y791274D02*
Y800332D01*
X1222081Y920480D02*
X1223961D01*
X1231870Y928388D01*
X1208870Y913080D02*
X1214682D01*
X1222081Y920480D01*
X1372500Y1303158D02*
X1396092Y1326750D01*
X1298194Y1283194D02*
Y1423416D01*
X1244074Y1229074D02*
X1298194Y1283194D01*
X1426054Y1377696D02*
X1549400D01*
X1320800Y1446022D02*
X1357728D01*
X1396092Y1326750D02*
X1610250D01*
X1785040Y911238D02*
Y1069920D01*
X1792948Y903330D02*
X1794828D01*
X1802229Y895930D01*
X1808040D01*
X1785040Y911238D02*
X1792948Y903330D01*
X1561697Y581750D02*
X1649599Y493849D01*
X1632458Y421292D02*
X1660500Y393250D01*
X1661250Y392500D01*
X1649599Y438433D02*
Y493849D01*
X1632458Y421292D02*
X1649599Y438433D01*
X1546860Y581750D02*
X1561697D01*
X703500Y969500D02*
X871000D01*
X653154Y919154D02*
X703500Y969500D01*
X525500Y597250D02*
X526375Y598125D01*
X509500Y597250D02*
X525500D01*
X526375Y611125D02*
X534125D01*
X535000Y612000D02*
Y634250D01*
X534125Y611125D02*
X535000Y612000D01*
X787368Y706850D02*
X787400Y706882D01*
X1115060D01*
X1761222Y618984D02*
Y705050D01*
X1298194Y1423416D02*
X1320800Y1446022D01*
X1171702Y1459484D02*
X1540764D01*
X1562200Y1438048D01*
X581191Y917941D02*
X586959Y923710D01*
X587710Y924459D02*
X611550Y948300D01*
X563960Y914080D02*
X569772D01*
X573633Y917941D01*
X586960Y940680D02*
Y974972D01*
X586959Y940680D02*
X586960D01*
X546265Y982880D02*
X579051D01*
X542750Y986395D02*
X546265Y982880D01*
X579051D02*
X586960Y974972D01*
X542750Y986395D02*
Y1068022D01*
X584200Y1109472D01*
X611550Y948300D02*
Y1060600D01*
X640160Y914080D02*
X645234Y919154D01*
X653154D01*
X244750Y676500D02*
X365490Y797240D01*
X428630D01*
X1369768Y705082D02*
X1373930D01*
X1311656Y706882D02*
X1367968D01*
X1562200Y1426500D02*
Y1438048D01*
X1409800Y1162050D02*
Y1172500D01*
X1549400Y1377696D02*
X1587600Y1415896D01*
Y1426500D01*
X1638400D02*
X1645830Y1419070D01*
Y1308100D02*
Y1419070D01*
X1567598Y1229868D02*
X1645830Y1308100D01*
X1422400Y1229868D02*
X1567598D01*
X1391158Y1198626D02*
X1422400Y1229868D01*
X818830Y863280D02*
X883666Y928116D01*
X640160Y863280D02*
X818830D01*
X1115060Y706882D02*
X1181052Y772874D01*
Y855724D01*
X1115060Y706882D02*
X1311656D01*
X1761222Y705050D02*
X1801300D01*
X1164336Y652526D02*
X1189482Y627380D01*
X1159500Y921283D02*
Y934965D01*
Y921283D02*
X1159510Y921273D01*
X1155985Y938480D02*
X1159500Y934965D01*
X1159510Y877266D02*
X1181052Y855724D01*
X1159510Y877266D02*
Y921273D01*
X1132670Y938480D02*
X1155985D01*
X1115028Y706850D02*
X1115060Y706882D01*
X1107186Y699008D02*
X1115028Y706850D01*
X1189482Y600500D02*
Y627380D01*
X1152750Y600500D02*
X1189482D01*
X1107186Y598170D02*
Y699008D01*
X771500Y518450D02*
Y690982D01*
X844850Y1359196D02*
X972296Y1231750D01*
X1004000D02*
X1041000Y1268750D01*
X972296Y1231750D02*
X1004000D01*
X1570000Y410000D02*
Y416972D01*
X970000Y410000D02*
Y417322D01*
X350000Y410000D02*
Y416972D01*
X584200Y1109472D02*
X769258D01*
X941750Y936980D01*
X1548000Y773300D02*
Y836470D01*
X1540700Y766000D02*
X1548000Y773300D01*
X1600300Y804490D02*
X1656180Y860370D01*
X1693000D01*
X909066Y879094D02*
X991616D01*
X941750Y766710D02*
Y828220D01*
X934450Y759410D02*
X941750Y766710D01*
X1791220Y517500D02*
X1855470Y581750D01*
X1724800Y877570D02*
X1731840Y870530D01*
X1515300Y841946D02*
X1550924Y877570D01*
X1515300Y766000D02*
Y841946D01*
X1693000Y840214D02*
Y860370D01*
Y840214D02*
X1713484Y819730D01*
X1731840D01*
X521330Y939452D02*
Y968690D01*
Y939452D02*
X524030Y936752D01*
Y907730D02*
Y936752D01*
X1076750Y938436D02*
Y967690D01*
Y938436D02*
X1079450Y935736D01*
Y906730D02*
Y935736D01*
X1076750Y825406D02*
Y852120D01*
Y825406D02*
X1079450Y822706D01*
Y796240D02*
Y822706D01*
X1693000Y946564D02*
Y975940D01*
Y946564D02*
X1695700Y943864D01*
Y914980D02*
Y943864D01*
X431330Y826422D02*
Y853120D01*
X428630Y823722D02*
X431330Y826422D01*
X428630Y797240D02*
Y823722D01*
X431330Y939452D02*
Y968690D01*
X428630Y936752D02*
X431330Y939452D01*
X428630Y907730D02*
Y936752D01*
X986750Y825406D02*
Y852120D01*
X984050Y822706D02*
X986750Y825406D01*
X984050Y796240D02*
Y822706D01*
X986750Y938436D02*
Y967690D01*
X984050Y935736D02*
X986750Y938436D01*
X984050Y906730D02*
Y935736D01*
X1603000Y946564D02*
Y975940D01*
X1600300Y943864D02*
X1603000Y946564D01*
X1600300Y914980D02*
Y943864D01*
X244750Y606500D02*
Y676500D01*
X1152750Y517500D02*
X1163250Y528000D01*
X1191500D01*
X1245250Y581750D01*
X553500Y518500D02*
X564000Y529000D01*
X584789D01*
X637540Y581750D01*
D15*
X1546860Y583250D02*
X1582000D01*
X1546860D02*
X1582000D01*
X1493750D02*
X1582000D01*
X1493750D02*
X1582000D01*
X1493750D02*
X1546860D01*
X1493750D02*
X1546860D01*
X1493750D02*
X1546860D01*
X1582000D01*
X1660500Y393250D02*
X1661250Y392500D01*
X339000Y583500D02*
X382500D01*
X294250D02*
X339000D01*
X294250D02*
X339000D01*
X382500D01*
X339000D02*
X382500D01*
X294250D02*
X339000D01*
X382500D01*
X294250D02*
X339000D01*
X382500D01*
X294250D02*
X339000D01*
X1582000Y583250D02*
X1660500Y504750D01*
Y393250D02*
Y504750D01*
X597000Y706000D02*
X770700D01*
X557000D02*
X597000D01*
X517000D02*
X557000D01*
X123940Y1169830D02*
X250000Y1043770D01*
X123940Y959010D02*
Y1064420D01*
Y1169830D01*
X250000Y930000D02*
Y1043770D01*
X123940Y852330D02*
Y959010D01*
Y1169830D02*
Y1275240D01*
Y519000D02*
Y745650D01*
Y852330D01*
Y396060D02*
X140000Y380000D01*
X123940Y396060D02*
Y519000D01*
X888125Y574875D02*
X895000Y581750D01*
X941070D01*
X859000Y545750D02*
X888125Y574875D01*
X258250Y547500D02*
X294250Y583500D01*
X461000Y403000D02*
Y505000D01*
X382500Y583500D02*
X461000Y505000D01*
X258250Y464000D02*
Y547500D01*
X1457750Y463750D02*
Y547250D01*
X1493750Y583250D01*
X1061750Y401250D02*
Y503250D01*
X941070Y581750D02*
X983250D01*
X1061750Y503250D01*
X859000Y462250D02*
Y545750D01*
D16*
X873850Y1467000D02*
X876250D01*
X844850Y1438000D02*
X873850Y1467000D01*
X844850Y1431000D02*
Y1438000D01*
X611550Y1467000D02*
X647550Y1431000D01*
X844850D01*
X360330Y1215780D02*
X611550Y1467000D01*
X360330Y858330D02*
Y1215780D01*
X247650Y745650D02*
X360330Y858330D01*
X123940Y745650D02*
X247650D01*
D17*
X1373930Y522630D02*
Y705082D01*
X771550Y518450D02*
Y691032D01*
Y706850D01*
X497330Y800580D02*
Y863626D01*
X562434Y864806D02*
X563960Y863280D01*
X536836Y872120D02*
X544151Y864806D01*
X497330Y863626D02*
X505824Y872120D01*
X430250Y733500D02*
X497330Y800580D01*
X505824Y872120D02*
X536836D01*
X544151Y864806D02*
X562434D01*
X370526Y733500D02*
X430250D01*
X365840Y738186D02*
X370526Y733500D01*
X365840Y738186D02*
Y760410D01*
X339000Y733570D02*
X365840Y760410D01*
X1369750Y518450D02*
X1373930Y522630D01*
X1369750Y418499D02*
Y493050D01*
X1369500Y418250D02*
X1369750Y418499D01*
X771500Y416750D02*
Y493050D01*
X770750Y416000D02*
X771500Y416750D01*
X125440Y517500D02*
X178550D01*
X123940Y519000D02*
X125440Y517500D01*
X339000Y583500D02*
Y733570D01*
Y581750D02*
Y583500D01*
D18*
X1201420Y460010D02*
X1213510D01*
X1823730D02*
X1855470Y491750D01*
X1800860Y460010D02*
X1823730D01*
X1515120D02*
X1546860Y491750D01*
X1501140Y460010D02*
X1515120D01*
X1213510D02*
X1245250Y491750D01*
X929829Y480510D02*
X941070Y491750D01*
X903200Y480510D02*
X929829D01*
X901700Y479010D02*
X903200Y480510D01*
X901700Y460010D02*
Y479010D01*
X626219Y480429D02*
X637540Y491750D01*
X602210Y480429D02*
X626219D01*
X600710Y478929D02*
X602210Y480429D01*
X600710Y460010D02*
Y478929D01*
X302490Y480429D02*
X327679D01*
X300990Y478929D02*
X302490Y480429D01*
X300990Y460010D02*
Y478929D01*
X327679Y480429D02*
X339000Y491750D01*
D19*
X244500Y1235500D02*
X250000Y1230000D01*
X244500Y1235500D02*
Y1386000D01*
D20*
X1164250Y1089450D02*
D03*
X1877500Y911810D02*
D03*
X1271750D02*
D03*
X704930Y912810D02*
D03*
X1369750Y518450D02*
D03*
X771500D02*
D03*
D21*
X1164250Y1064050D02*
D03*
X1877500Y886410D02*
D03*
X1271750D02*
D03*
X704930Y887410D02*
D03*
X771500Y493050D02*
D03*
X1369750D02*
D03*
X951000Y1326450D02*
D03*
D22*
X1765400Y1426500D02*
D03*
X876250Y1060600D02*
D03*
X1740000Y1426500D02*
D03*
Y1172500D02*
D03*
X997950Y1268750D02*
D03*
X1486000Y1426500D02*
D03*
X680750Y581750D02*
D03*
X1613000Y1426500D02*
D03*
X1511400D02*
D03*
X1285000Y581750D02*
D03*
X1765400Y1172500D02*
D03*
X1892500Y581750D02*
D03*
X1435200Y1426500D02*
D03*
X284500Y1480000D02*
D03*
X95500D02*
D03*
X1409800Y1426500D02*
D03*
X1460600D02*
D03*
X1536800D02*
D03*
X1562200D02*
D03*
X1587600D02*
D03*
X1638400D02*
D03*
X1663800D02*
D03*
X1689200D02*
D03*
X1714600D02*
D03*
X1409800Y1172500D02*
D03*
X1435200D02*
D03*
X1460600D02*
D03*
X1486000D02*
D03*
X1511400D02*
D03*
X1536800D02*
D03*
X1562200D02*
D03*
X1587600D02*
D03*
X1613000D02*
D03*
X1638400D02*
D03*
X1663800D02*
D03*
X1689200D02*
D03*
X1714600D02*
D03*
X698450Y1467000D02*
D03*
Y1060600D02*
D03*
X433750Y1467000D02*
D03*
Y1060600D02*
D03*
X876250Y1467000D02*
D03*
X1041000Y1268750D02*
D03*
X611550Y1467000D02*
D03*
X637540Y581750D02*
D03*
Y491750D02*
D03*
X941750Y936980D02*
D03*
X1548000Y945230D02*
D03*
X393780Y937980D02*
D03*
X1546860Y581750D02*
D03*
Y491750D02*
D03*
X941070Y581750D02*
D03*
Y491750D02*
D03*
X339000Y581750D02*
D03*
X1245250Y491750D02*
D03*
Y581750D02*
D03*
X1285000Y491750D02*
D03*
X680750D02*
D03*
X339000D02*
D03*
X1855470Y581750D02*
D03*
Y491750D02*
D03*
X1892500D02*
D03*
X1041000Y1358750D02*
D03*
X997950D02*
D03*
X611550Y1060600D02*
D03*
D23*
X1230675Y1249400D02*
D03*
X1808040Y946730D02*
D03*
X1208870Y938480D02*
D03*
X1151275Y1249400D02*
D03*
Y1198600D02*
D03*
X640160Y939480D02*
D03*
X1151275Y1224000D02*
D03*
X1230675Y1274800D02*
D03*
Y1300200D02*
D03*
X1151275D02*
D03*
Y1274800D02*
D03*
Y1173200D02*
D03*
Y1147800D02*
D03*
X1230675Y1173200D02*
D03*
Y1224000D02*
D03*
Y1147800D02*
D03*
Y1198600D02*
D03*
X1235000Y1345750D02*
D03*
X1808040Y845130D02*
D03*
X1208870Y836880D02*
D03*
X1145000Y1345750D02*
D03*
X640160Y837880D02*
D03*
X1731840Y946730D02*
D03*
X1132670Y938480D02*
D03*
X563960Y939480D02*
D03*
X431330Y968690D02*
D03*
X521330D02*
D03*
Y853120D02*
D03*
X431330D02*
D03*
X1132670Y963880D02*
D03*
Y913080D02*
D03*
Y887680D02*
D03*
Y862280D02*
D03*
Y836880D02*
D03*
Y811480D02*
D03*
X1208870D02*
D03*
Y963880D02*
D03*
Y913080D02*
D03*
Y862280D02*
D03*
Y887680D02*
D03*
X1589300Y804500D02*
D03*
X1808040Y972130D02*
D03*
Y819730D02*
D03*
X1731840D02*
D03*
Y845130D02*
D03*
Y870530D02*
D03*
Y895930D02*
D03*
Y921330D02*
D03*
Y972130D02*
D03*
X1808040Y895930D02*
D03*
Y921330D02*
D03*
Y870530D02*
D03*
X524030Y907730D02*
D03*
Y797240D02*
D03*
X1079450Y906730D02*
D03*
Y796240D02*
D03*
X986750Y852120D02*
D03*
X1076750D02*
D03*
X986750Y967690D02*
D03*
X1076750D02*
D03*
X1693000Y975940D02*
D03*
X1603000D02*
D03*
X1598000Y855000D02*
D03*
X1688000D02*
D03*
X1695700Y914980D02*
D03*
X563960Y863280D02*
D03*
X640160Y914080D02*
D03*
Y888680D02*
D03*
Y863280D02*
D03*
X563960Y964880D02*
D03*
Y914080D02*
D03*
Y888680D02*
D03*
Y837880D02*
D03*
Y812480D02*
D03*
X640160D02*
D03*
Y964880D02*
D03*
D24*
X1867550Y618750D02*
D03*
X1258550D02*
D03*
X655050Y619750D02*
D03*
X123940Y1275240D02*
D03*
Y1169830D02*
D03*
Y1064420D02*
D03*
Y852330D02*
D03*
Y745650D02*
D03*
Y959010D02*
D03*
X365840Y760410D02*
D03*
X909050Y759410D02*
D03*
X1515300Y766000D02*
D03*
D25*
X1660950Y618751D02*
D03*
X1065700Y619750D02*
D03*
X468450D02*
D03*
X203950Y517500D02*
D03*
D26*
X951000Y1301050D02*
D03*
D27*
X680450Y619750D02*
D03*
X1283950Y618750D02*
D03*
X1635550Y618751D02*
D03*
X1040300Y619750D02*
D03*
X443050D02*
D03*
X1892950Y618750D02*
D03*
X73940Y1275240D02*
D03*
Y1169830D02*
D03*
Y745650D02*
D03*
Y852330D02*
D03*
Y959010D02*
D03*
Y1064420D02*
D03*
X178550Y517500D02*
D03*
X391240Y760410D02*
D03*
X934450Y759410D02*
D03*
X1540700Y766000D02*
D03*
D28*
X244500Y1386000D02*
D03*
D29*
X135500D02*
D03*
D30*
X250000Y930000D02*
D03*
Y1230000D02*
D03*
D31*
X1768500Y260000D02*
D03*
X1166500D02*
D03*
X558000D02*
D03*
D32*
X941750Y828220D02*
D03*
X1548000Y836470D02*
D03*
X393780Y829220D02*
D03*
D33*
X1684700Y804500D02*
D03*
D34*
X428630Y907730D02*
D03*
Y797240D02*
D03*
X984050Y906730D02*
D03*
Y796240D02*
D03*
X1600300Y914980D02*
D03*
D35*
X50000Y1450000D02*
D03*
X1950000D02*
D03*
Y50000D02*
D03*
X50000D02*
D03*
D36*
X1345250Y1420250D02*
D03*
X1344930Y564388D02*
D03*
X871000Y969500D02*
D03*
X1610250Y1326750D02*
D03*
X553000Y497500D02*
D03*
X1338834Y673634D02*
D03*
X736750Y609750D02*
D03*
X1188974Y1396232D02*
D03*
X1833250Y1467250D02*
D03*
X883666Y928116D02*
D03*
X1114000Y597000D02*
D03*
X746750Y658750D02*
D03*
X1752750Y500250D02*
D03*
X509500Y597250D02*
D03*
X1484122Y817626D02*
D03*
X1026922Y935750D02*
D03*
X798068Y662686D02*
D03*
X1152750Y499250D02*
D03*
X517000Y706000D02*
D03*
X557000D02*
D03*
X244750Y606500D02*
D03*
X909066Y879094D02*
D03*
X1132250Y769750D02*
D03*
X597000Y706000D02*
D03*
X1338834Y1090441D02*
D03*
X1712250Y594000D02*
D03*
X1257000Y1062500D02*
D03*
X1600875Y502031D02*
D03*
X1886515Y537250D02*
D03*
M02*
