G04*
G04 #@! TF.GenerationSoftware,Altium Limited,Altium Designer,26.6.0 (10)*
G04*
G04 Layer_Physical_Order=2*
G04 Layer_Color=16711680*
G04 Board_Origin=0|0*
%FSAX44Y44*%
%MOMM*%
G71*
G04*
G04 #@! TF.SameCoordinates,A599C07C-545B-499F-B3D5-87908A824976*
G04*
G04*
G04 #@! TF.FilePolarity,Positive*
G04*
G01*
G75*
%ADD14C,0.6000*%
%ADD16C,5.0000*%
%ADD17C,2.5400*%
%ADD18C,0.5000*%
%AMCUSTOMSHAPE20*
4,1,8,-0.9500,0.9000,-1.4000,0.4500,-1.4000,-0.4500,-0.9500,-0.9000,0.9500,-0.9000,1.4000,-0.4500,1.4000,0.4500,0.9500,0.9000,-0.9500,0.9000,0.0*%
%ADD20CUSTOMSHAPE20*%

G04:AMPARAMS|DCode=21|XSize=1.8mm|YSize=2.8mm|CornerRadius=0.45mm|HoleSize=0mm|Usage=FLASHONLY|Rotation=270.000|XOffset=0mm|YOffset=0mm|HoleType=Round|Shape=RoundedRectangle|*
%AMROUNDEDRECTD21*
21,1,1.8000,1.9000,0,0,270.0*
21,1,0.9000,2.8000,0,0,270.0*
1,1,0.9000,-0.9500,-0.4500*
1,1,0.9000,-0.9500,0.4500*
1,1,0.9000,0.9500,0.4500*
1,1,0.9000,0.9500,-0.4500*
%
%ADD21ROUNDEDRECTD21*%
G04:AMPARAMS|DCode=22|XSize=2.8mm|YSize=1.8mm|CornerRadius=0.45mm|HoleSize=0mm|Usage=FLASHONLY|Rotation=90.000|XOffset=0mm|YOffset=0mm|HoleType=Round|Shape=RoundedRectangle|*
%AMROUNDEDRECTD22*
21,1,2.8000,0.9000,0,0,90.0*
21,1,1.9000,1.8000,0,0,90.0*
1,1,0.9000,0.4500,0.9500*
1,1,0.9000,0.4500,-0.9500*
1,1,0.9000,-0.4500,-0.9500*
1,1,0.9000,-0.4500,0.9500*
%
%ADD22ROUNDEDRECTD22*%
G04:AMPARAMS|DCode=23|XSize=2.8mm|YSize=1.8mm|CornerRadius=0.45mm|HoleSize=0mm|Usage=FLASHONLY|Rotation=180.000|XOffset=0mm|YOffset=0mm|HoleType=Round|Shape=RoundedRectangle|*
%AMROUNDEDRECTD23*
21,1,2.8000,0.9000,0,0,180.0*
21,1,1.9000,1.8000,0,0,180.0*
1,1,0.9000,-0.9500,0.4500*
1,1,0.9000,0.9500,0.4500*
1,1,0.9000,0.9500,-0.4500*
1,1,0.9000,-0.9500,-0.4500*
%
%ADD23ROUNDEDRECTD23*%
%AMCUSTOMSHAPE24*
4,1,8,-0.9000,-0.9500,-0.4500,-1.4000,0.4500,-1.4000,0.9000,-0.9500,0.9000,0.9500,0.4500,1.4000,-0.4500,1.4000,-0.9000,0.9500,-0.9000,-0.9500,0.0*%
%ADD24CUSTOMSHAPE24*%

%AMCUSTOMSHAPE25*
4,1,8,0.9000,0.9500,0.4500,1.4000,-0.4500,1.4000,-0.9000,0.9500,-0.9000,-0.9500,-0.4500,-1.4000,0.4500,-1.4000,0.9000,-0.9500,0.9000,0.9500,0.0*%
%ADD25CUSTOMSHAPE25*%

%AMCUSTOMSHAPE26*
4,1,8,0.9500,-0.9000,1.4000,-0.4500,1.4000,0.4500,0.9500,0.9000,-0.9500,0.9000,-1.4000,0.4500,-1.4000,-0.4500,-0.9500,-0.9000,0.9500,-0.9000,0.0*%
%ADD26CUSTOMSHAPE26*%

G04:AMPARAMS|DCode=27|XSize=1.8mm|YSize=2.8mm|CornerRadius=0.45mm|HoleSize=0mm|Usage=FLASHONLY|Rotation=0.000|XOffset=0mm|YOffset=0mm|HoleType=Round|Shape=RoundedRectangle|*
%AMROUNDEDRECTD27*
21,1,1.8000,1.9000,0,0,0.0*
21,1,0.9000,2.8000,0,0,0.0*
1,1,0.9000,0.4500,-0.9500*
1,1,0.9000,-0.4500,-0.9500*
1,1,0.9000,-0.4500,0.9500*
1,1,0.9000,0.4500,0.9500*
%
%ADD27ROUNDEDRECTD27*%
%AMCUSTOMSHAPE28*
4,1,8,3.0000,2.7500,1.5000,4.2500,-1.5000,4.2500,-3.0000,2.7500,-3.0000,-2.7500,-1.5000,-4.2500,1.5000,-4.2500,3.0000,-2.7500,3.0000,2.7500,0.0*%
%ADD28CUSTOMSHAPE28*%

G04:AMPARAMS|DCode=29|XSize=6mm|YSize=8.5mm|CornerRadius=1.5mm|HoleSize=0mm|Usage=FLASHONLY|Rotation=180.000|XOffset=0mm|YOffset=0mm|HoleType=Round|Shape=RoundedRectangle|*
%AMROUNDEDRECTD29*
21,1,6.0000,5.5000,0,0,180.0*
21,1,3.0000,8.5000,0,0,180.0*
1,1,3.0000,-1.5000,2.7500*
1,1,3.0000,1.5000,2.7500*
1,1,3.0000,1.5000,-2.7500*
1,1,3.0000,-1.5000,-2.7500*
%
%ADD29ROUNDEDRECTD29*%
G04:AMPARAMS|DCode=30|XSize=12mm|YSize=12mm|CornerRadius=3mm|HoleSize=0mm|Usage=FLASHONLY|Rotation=270.000|XOffset=0mm|YOffset=0mm|HoleType=Round|Shape=RoundedRectangle|*
%AMROUNDEDRECTD30*
21,1,12.0000,6.0000,0,0,270.0*
21,1,6.0000,12.0000,0,0,270.0*
1,1,6.0000,-3.0000,-3.0000*
1,1,6.0000,-3.0000,3.0000*
1,1,6.0000,3.0000,3.0000*
1,1,6.0000,3.0000,-3.0000*
%
%ADD30ROUNDEDRECTD30*%
%ADD31C,10.0000*%
%AMCUSTOMSHAPE32*
4,1,8,0.9000,-0.9500,0.4500,-1.4000,-0.4500,-1.4000,-0.9000,-0.9500,-0.9000,0.9500,-0.4500,1.4000,0.4500,1.4000,0.9000,0.9500,0.9000,-0.9500,0.0*%
%ADD32CUSTOMSHAPE32*%

%AMCUSTOMSHAPE33*
4,1,8,0.9500,0.9000,1.4000,0.4500,1.4000,-0.4500,0.9500,-0.9000,-0.9500,-0.9000,-1.4000,-0.4500,-1.4000,0.4500,-0.9500,0.9000,0.9500,0.9000,0.0*%
%ADD33CUSTOMSHAPE33*%

%AMCUSTOMSHAPE34*
4,1,8,-0.9500,-0.9000,-1.4000,-0.4500,-1.4000,0.4500,-0.9500,0.9000,0.9500,0.9000,1.4000,0.4500,1.4000,-0.4500,0.9500,-0.9000,-0.9500,-0.9000,0.0*%
%ADD34CUSTOMSHAPE34*%

%ADD35C,6.5000*%
%ADD36C,2.5000*%
G04:AMPARAMS|DCode=37|XSize=2.4692mm|YSize=0.6221mm|CornerRadius=0.3111mm|HoleSize=0mm|Usage=FLASHONLY|Rotation=270.000|XOffset=0mm|YOffset=0mm|HoleType=Round|Shape=RoundedRectangle|*
%AMROUNDEDRECTD37*
21,1,2.4692,0.0000,0,0,270.0*
21,1,1.8470,0.6221,0,0,270.0*
1,1,0.6221,0.0000,-0.9235*
1,1,0.6221,0.0000,0.9235*
1,1,0.6221,0.0000,0.9235*
1,1,0.6221,0.0000,-0.9235*
%
%ADD37ROUNDEDRECTD37*%
%ADD38R,0.6221X2.4692*%
G36*
X00259922Y01500179D02*
X00260966Y01498438D01*
X00260504Y01497575D01*
X00259304Y01493617D01*
X00258898Y01489500D01*
Y01470500D01*
X00259304Y01466383D01*
X00260504Y01462425D01*
X00262454Y01458777D01*
X00265079Y01455579D01*
X00268276Y01452955D01*
X00271925Y01451005D01*
X00275883Y01449804D01*
X00280000Y01449398D01*
X00289000D01*
X00293116Y01449804D01*
X00297075Y01451005D01*
X00300723Y01452955D01*
X00303921Y01455579D01*
X00306545Y01458777D01*
X00308495Y01462425D01*
X00309696Y01466383D01*
X00310101Y01470500D01*
Y01489500D01*
X00309696Y01493617D01*
X00308495Y01497575D01*
X00308041Y01498425D01*
X00309085Y01500166D01*
X00922000Y01500000D01*
Y01488699D01*
X00903727Y01470426D01*
X00901852Y01471203D01*
Y01476500D01*
X00901446Y01480617D01*
X00900246Y01484576D01*
X00898296Y01488224D01*
X00895671Y01491422D01*
X00892474Y01494046D01*
X00888825Y01495996D01*
X00884867Y01497197D01*
X00880750Y01497602D01*
X00871750D01*
X00867634Y01497197D01*
X00863675Y01495996D01*
X00860027Y01494046D01*
X00856829Y01491422D01*
X00854205Y01488224D01*
X00852255Y01484576D01*
X00851054Y01480617D01*
X00850649Y01476500D01*
Y01457500D01*
X00851054Y01453384D01*
X00852255Y01449425D01*
X00854205Y01445777D01*
X00856829Y01442579D01*
X00860027Y01439955D01*
X00863675Y01438005D01*
X00867328Y01436897D01*
X00868284Y01434987D01*
X00868285Y01434984D01*
X00787007Y01353705D01*
X00784570Y01350736D01*
X00782759Y01347348D01*
X00781644Y01343673D01*
X00781268Y01339850D01*
Y01130728D01*
X00700104Y01049564D01*
X00642620D01*
X00639005Y01049208D01*
X00638331Y01049411D01*
X00637086Y01050433D01*
X00637152Y01051100D01*
Y01070100D01*
X00636746Y01074217D01*
X00635546Y01078175D01*
X00633596Y01081823D01*
X00630971Y01085021D01*
X00627774Y01087645D01*
X00624125Y01089595D01*
X00620167Y01090796D01*
X00616050Y01091201D01*
X00607050D01*
X00602934Y01090796D01*
X00598975Y01089595D01*
X00595327Y01087645D01*
X00592129Y01085021D01*
X00589505Y01081823D01*
X00587555Y01078175D01*
X00586354Y01074217D01*
X00585949Y01070100D01*
Y01051100D01*
X00586354Y01046983D01*
X00587555Y01043025D01*
X00589505Y01039376D01*
X00592129Y01036179D01*
X00595327Y01033555D01*
X00598975Y01031605D01*
X00602934Y01030404D01*
X00607050Y01029998D01*
X00612285D01*
X00613062Y01028123D01*
X00606689Y01021750D01*
X00348500D01*
Y00785018D01*
X00345116Y00781634D01*
X00343054Y00779121D01*
X00341522Y00776255D01*
X00340578Y00773145D01*
X00340260Y00769910D01*
Y00750910D01*
X00340578Y00747675D01*
X00341522Y00744565D01*
X00343054Y00741699D01*
X00345116Y00739186D01*
X00349616Y00734686D01*
X00352128Y00732624D01*
X00354995Y00731092D01*
X00358105Y00730149D01*
X00361340Y00729830D01*
X00370340D01*
X00373574Y00730149D01*
X00376685Y00731092D01*
X00377976Y00731783D01*
X00378665Y00731415D01*
X00382623Y00730214D01*
X00386740Y00729808D01*
X00395740D01*
X00399856Y00730214D01*
X00403815Y00731415D01*
X00407463Y00733365D01*
X00410661Y00735989D01*
X00413285Y00739186D01*
X00415235Y00742835D01*
X00416436Y00746793D01*
X00416841Y00750910D01*
Y00751500D01*
X00491997D01*
X00504809Y00738688D01*
X00507778Y00736251D01*
X00511166Y00734440D01*
X00514842Y00733325D01*
X00518664Y00732949D01*
X00590424D01*
X00671510Y00651862D01*
X00670853Y00649649D01*
X00667875Y00648745D01*
X00667187Y00648377D01*
X00665895Y00649068D01*
X00662785Y00650011D01*
X00659550Y00650330D01*
X00650550D01*
X00647316Y00650011D01*
X00644205Y00649068D01*
X00641339Y00647535D01*
X00638827Y00645473D01*
X00634327Y00640974D01*
X00632989Y00639344D01*
X00582802D01*
X00578979Y00638968D01*
X00575303Y00637853D01*
X00571916Y00636042D01*
X00568947Y00633605D01*
X00554411Y00619070D01*
X00539876Y00633605D01*
X00536906Y00636042D01*
X00533519Y00637853D01*
X00529843Y00638968D01*
X00526020Y00639344D01*
X00490510D01*
X00489173Y00640974D01*
X00484673Y00645474D01*
X00482161Y00647535D01*
X00479295Y00649068D01*
X00476184Y00650011D01*
X00472950Y00650330D01*
X00463950D01*
X00460715Y00650011D01*
X00457605Y00649068D01*
X00456313Y00648377D01*
X00455625Y00648745D01*
X00451666Y00649946D01*
X00447550Y00650351D01*
X00438550D01*
X00434433Y00649946D01*
X00430475Y00648745D01*
X00426826Y00646795D01*
X00423629Y00644171D01*
X00421004Y00640973D01*
X00419054Y00637325D01*
X00417854Y00633367D01*
X00417448Y00629250D01*
Y00610250D01*
X00417854Y00606133D01*
X00419054Y00602175D01*
X00421004Y00598526D01*
X00423629Y00595329D01*
X00424323Y00594759D01*
X00424947Y00592702D01*
X00426758Y00589314D01*
X00429194Y00586345D01*
X00467605Y00547935D01*
X00470574Y00545498D01*
X00473962Y00543687D01*
X00477637Y00542572D01*
X00481460Y00542196D01*
X00514744D01*
Y00525629D01*
X00514898Y00524072D01*
Y00521160D01*
X00514898Y00521160D01*
X00514898Y00521159D01*
X00515070Y00519414D01*
X00515274Y00517337D01*
X00515274Y00517337D01*
X00515275Y00517337D01*
X00515767Y00515712D01*
X00516389Y00513661D01*
X00516390Y00513661D01*
X00516390Y00513661D01*
X00517459Y00511661D01*
X00518200Y00510274D01*
X00518200Y00510274D01*
X00518200Y00510273D01*
X00519553Y00508625D01*
X00520637Y00507304D01*
X00520637Y00507304D01*
X00520637Y00507304D01*
X00524569Y00503373D01*
X00524000Y00499782D01*
Y00495218D01*
X00524714Y00490709D01*
X00526125Y00486368D01*
X00528197Y00482301D01*
X00530880Y00478608D01*
X00534108Y00475380D01*
X00537801Y00472697D01*
X00541868Y00470625D01*
X00546209Y00469214D01*
X00550718Y00468500D01*
X00555283D01*
X00559791Y00469214D01*
X00564132Y00470625D01*
X00568200Y00472697D01*
X00571892Y00475380D01*
X00575120Y00478608D01*
X00577803Y00482301D01*
X00579875Y00486368D01*
X00581286Y00490709D01*
X00582000Y00495218D01*
Y00499782D01*
X00581286Y00504291D01*
X00580242Y00507504D01*
X00583498Y00509244D01*
X00586484Y00511695D01*
X00588935Y00514681D01*
X00589249Y00515270D01*
X00615005D01*
X00615873Y00513435D01*
X00615495Y00512974D01*
X00613545Y00509325D01*
X00612344Y00505367D01*
X00611938Y00501250D01*
Y00482250D01*
X00612344Y00478133D01*
X00613545Y00474175D01*
X00615495Y00470527D01*
X00618119Y00467329D01*
X00621317Y00464705D01*
X00624965Y00462755D01*
X00628923Y00461554D01*
X00633040Y00461148D01*
X00640649D01*
X00642404Y00459708D01*
X00645792Y00457897D01*
X00649467Y00456782D01*
X00653290Y00456406D01*
X00655292D01*
X00656802Y00454895D01*
X00656803Y00454895D01*
X00656803Y00454895D01*
X00658158Y00453782D01*
X00659771Y00452458D01*
X00659772Y00452458D01*
X00659772Y00452458D01*
X00661269Y00451658D01*
X00663159Y00450647D01*
X00663159Y00450647D01*
X00663160Y00450647D01*
X00664942Y00450106D01*
X00666835Y00449532D01*
X00666835Y00449532D01*
X00666835Y00449532D01*
X00668663Y00449352D01*
X00670657Y00449156D01*
X00670658Y00449156D01*
X00670658Y00449156D01*
X00690842D01*
X00690842Y00449156D01*
X00690843Y00449156D01*
X00692689Y00449337D01*
X00694665Y00449532D01*
X00694665Y00449532D01*
X00694665Y00449532D01*
X00696485Y00450084D01*
X00698340Y00450647D01*
X00698341Y00450647D01*
X00698341Y00450647D01*
X00700185Y00451633D01*
X00701728Y00452458D01*
X00701728Y00452458D01*
X00701728Y00452458D01*
X00703525Y00453933D01*
X00704697Y00454895D01*
X00704697Y00454895D01*
X00704698Y00454895D01*
X00712606Y00462804D01*
X00713788Y00464244D01*
X00715042Y00465772D01*
X00715042Y00465773D01*
X00715042Y00465773D01*
X00715870Y00467322D01*
X00716853Y00469160D01*
X00716853Y00469160D01*
X00716853Y00469161D01*
X00717255Y00470487D01*
X00717968Y00472836D01*
X00717968Y00472836D01*
X00717968Y00472836D01*
X00718116Y00474343D01*
X00718344Y00476658D01*
Y00563241D01*
X00731118D01*
X00773832Y00520527D01*
X00773055Y00518652D01*
X00762000D01*
X00757883Y00518246D01*
X00753925Y00517045D01*
X00750277Y00515095D01*
X00747079Y00512471D01*
X00744455Y00509273D01*
X00742505Y00505625D01*
X00741304Y00501667D01*
X00740899Y00497550D01*
Y00488550D01*
X00741304Y00484433D01*
X00742505Y00480475D01*
X00744455Y00476827D01*
X00747079Y00473629D01*
X00750277Y00471005D01*
X00753925Y00469055D01*
X00757883Y00467854D01*
X00762000Y00467449D01*
X00781000D01*
X00785117Y00467854D01*
X00789075Y00469055D01*
X00792723Y00471005D01*
X00795921Y00473629D01*
X00798545Y00476827D01*
X00800495Y00480475D01*
X00801696Y00484433D01*
X00802102Y00488550D01*
Y00489605D01*
X00803977Y00490382D01*
X00911189Y00383170D01*
X00914159Y00380733D01*
X00917546Y00378923D01*
X00921222Y00377808D01*
X00925045Y00377431D01*
X01579484D01*
X01583306Y00377808D01*
X01586982Y00378923D01*
X01590370Y00380733D01*
X01593339Y00383170D01*
X01636078Y00425909D01*
X01660763Y00450594D01*
X01663200Y00453564D01*
X01665011Y00456951D01*
X01666126Y00460627D01*
X01666502Y00464450D01*
Y00525461D01*
X01666126Y00529284D01*
X01665011Y00532959D01*
X01663200Y00536347D01*
X01660763Y00539316D01*
X01655145Y00544935D01*
Y00556493D01*
X01657020Y00557270D01*
X01667355Y00546935D01*
X01670324Y00544498D01*
X01673712Y00542687D01*
X01677388Y00541572D01*
X01681210Y00541195D01*
X01713244D01*
Y00524629D01*
X01713398Y00523072D01*
Y00520159D01*
X01713774Y00516337D01*
X01714889Y00512661D01*
X01716700Y00509273D01*
X01719137Y00506304D01*
X01723750Y00501691D01*
Y00497968D01*
X01724464Y00493459D01*
X01725874Y00489118D01*
X01727947Y00485051D01*
X01730630Y00481358D01*
X01733858Y00478130D01*
X01737551Y00475447D01*
X01741618Y00473375D01*
X01745959Y00471964D01*
X01750468Y00471250D01*
X01755032D01*
X01759541Y00471964D01*
X01763882Y00473375D01*
X01767949Y00475447D01*
X01771642Y00478130D01*
X01774870Y00481358D01*
X01777553Y00485051D01*
X01779625Y00489118D01*
X01781036Y00493459D01*
X01781750Y00497968D01*
Y00502532D01*
X01781172Y00506184D01*
X01782459Y00507821D01*
X01782847Y00508034D01*
X01829379D01*
X01830588Y00506404D01*
X01830274Y00505367D01*
X01829868Y00501250D01*
Y00482250D01*
X01830274Y00478133D01*
X01831475Y00474175D01*
X01833425Y00470527D01*
X01836049Y00467329D01*
X01839247Y00464705D01*
X01842895Y00462755D01*
X01846853Y00461554D01*
X01850970Y00461148D01*
X01858361D01*
X01871365Y00448145D01*
X01874334Y00445708D01*
X01877722Y00443897D01*
X01881397Y00442782D01*
X01885220Y00442406D01*
X01899250D01*
X01903073Y00442782D01*
X01906748Y00443897D01*
X01910136Y00445708D01*
X01913105Y00448145D01*
X01931105Y00466145D01*
X01933542Y00469114D01*
X01935353Y00472502D01*
X01936468Y00476177D01*
X01936844Y00480000D01*
Y00627542D01*
X01936468Y00631365D01*
X01935353Y00635041D01*
X01933542Y00638428D01*
X01931105Y00641397D01*
X01911397Y00661105D01*
X01908428Y00663542D01*
X01905040Y00665353D01*
X01901365Y00666468D01*
X01897542Y00666844D01*
X01894487D01*
X01828626Y00732705D01*
X01825657Y00735142D01*
X01822269Y00736953D01*
X01818593Y00738068D01*
X01816416Y00738282D01*
X01805074Y00749625D01*
X01805850Y00751500D01*
X02000000D01*
Y00060563D01*
X01997970Y00060296D01*
X01996499Y00065784D01*
X01994041Y00071719D01*
X01990830Y00077281D01*
X01986919Y00082377D01*
X01982377Y00086919D01*
X01977281Y00090829D01*
X01971719Y00094041D01*
X01965784Y00096499D01*
X01959580Y00098161D01*
X01953212Y00099000D01*
X01946788D01*
X01940420Y00098161D01*
X01934216Y00096499D01*
X01928282Y00094041D01*
X01922719Y00090829D01*
X01917623Y00086919D01*
X01913081Y00082377D01*
X01909171Y00077281D01*
X01905959Y00071719D01*
X01903501Y00065784D01*
X01901839Y00059580D01*
X01901000Y00053211D01*
Y00046788D01*
X01901839Y00040420D01*
X01903501Y00034216D01*
X01905959Y00028281D01*
X01909171Y00022719D01*
X01913081Y00017623D01*
X01917623Y00013081D01*
X01922719Y00009171D01*
X01928282Y00005959D01*
X01934216Y00003501D01*
X01938772Y00002280D01*
X01938505Y00000250D01*
X00061495D01*
X00061228Y00002280D01*
X00065784Y00003501D01*
X00071719Y00005959D01*
X00077281Y00009171D01*
X00082377Y00013081D01*
X00086919Y00017623D01*
X00090829Y00022719D01*
X00094041Y00028281D01*
X00096499Y00034216D01*
X00098161Y00040420D01*
X00099000Y00046788D01*
Y00053211D01*
X00098161Y00059580D01*
X00096499Y00065784D01*
X00094041Y00071719D01*
X00090829Y00077281D01*
X00086919Y00082377D01*
X00082377Y00086919D01*
X00077281Y00090829D01*
X00071719Y00094041D01*
X00065784Y00096499D01*
X00059580Y00098161D01*
X00053211Y00099000D01*
X00046788D01*
X00040420Y00098161D01*
X00034216Y00096499D01*
X00028281Y00094041D01*
X00022719Y00090829D01*
X00017623Y00086919D01*
X00013081Y00082377D01*
X00009171Y00077281D01*
X00005959Y00071719D01*
X00003501Y00065784D01*
X00002030Y00060295D01*
X00000000Y00060562D01*
Y01439438D01*
X00002030Y01439705D01*
X00003501Y01434216D01*
X00005959Y01428282D01*
X00009171Y01422719D01*
X00013081Y01417623D01*
X00017623Y01413081D01*
X00022719Y01409171D01*
X00028281Y01405959D01*
X00034216Y01403501D01*
X00040420Y01401839D01*
X00046788Y01401000D01*
X00053211D01*
X00059580Y01401839D01*
X00065784Y01403501D01*
X00071719Y01405959D01*
X00077281Y01409171D01*
X00082377Y01413081D01*
X00086919Y01417623D01*
X00090829Y01422719D01*
X00094041Y01428282D01*
X00096499Y01434216D01*
X00098161Y01440420D01*
X00099000Y01446788D01*
Y01449398D01*
X00100000D01*
X00104117Y01449804D01*
X00108075Y01451005D01*
X00111723Y01452955D01*
X00114921Y01455579D01*
X00117545Y01458777D01*
X00119495Y01462425D01*
X00120696Y01466383D01*
X00121102Y01470500D01*
Y01489500D01*
X00120696Y01493617D01*
X00119495Y01497575D01*
X00119014Y01498476D01*
X00120057Y01500217D01*
X00259922Y01500179D01*
D02*
G37*
G36*
X01939705Y01497970D02*
X01934216Y01496499D01*
X01928282Y01494041D01*
X01922719Y01490830D01*
X01917623Y01486919D01*
X01913081Y01482377D01*
X01909171Y01477281D01*
X01905959Y01471719D01*
X01903501Y01465784D01*
X01901839Y01459580D01*
X01901000Y01453212D01*
Y01446788D01*
X01901839Y01440420D01*
X01903501Y01434216D01*
X01905959Y01428282D01*
X01909171Y01422719D01*
X01913081Y01417623D01*
X01917623Y01413081D01*
X01922719Y01409171D01*
X01928282Y01405959D01*
X01934216Y01403501D01*
X01940420Y01401839D01*
X01946788Y01401000D01*
X01953212D01*
X01959580Y01401839D01*
X01965784Y01403501D01*
X01971719Y01405959D01*
X01977281Y01409171D01*
X01982377Y01413081D01*
X01986919Y01417623D01*
X01990830Y01422719D01*
X01994041Y01428282D01*
X01996499Y01434216D01*
X01997589Y01438283D01*
X01999619Y01438015D01*
Y00768080D01*
X01805850D01*
X01802616Y00767761D01*
X01799506Y00766818D01*
X01796639Y00765286D01*
X01794127Y00763224D01*
X01793727Y00762927D01*
X01791862Y00762836D01*
X01756174Y00798525D01*
X01756261Y00800309D01*
X01758885Y00803506D01*
X01760835Y00807154D01*
X01762036Y00811113D01*
X01762442Y00815230D01*
Y00824230D01*
X01762036Y00828346D01*
X01760835Y00832305D01*
X01760769Y00832430D01*
X01760835Y00832554D01*
X01762036Y00836513D01*
X01762442Y00840630D01*
Y00849630D01*
X01762036Y00853746D01*
X01760835Y00857705D01*
X01760769Y00857830D01*
X01760835Y00857954D01*
X01762036Y00861913D01*
X01762442Y00866030D01*
Y00875030D01*
X01762147Y00878022D01*
X01764096Y00878943D01*
X01777485Y00865554D01*
X01777844Y00861913D01*
X01779045Y00857954D01*
X01779111Y00857830D01*
X01779045Y00857705D01*
X01777844Y00853746D01*
X01777439Y00849630D01*
Y00840630D01*
X01777844Y00836513D01*
X01779045Y00832554D01*
X01779111Y00832430D01*
X01779045Y00832305D01*
X01777844Y00828346D01*
X01777439Y00824230D01*
Y00815230D01*
X01777844Y00811113D01*
X01779045Y00807154D01*
X01780995Y00803506D01*
X01783619Y00800309D01*
X01786817Y00797684D01*
X01790465Y00795734D01*
X01794423Y00794533D01*
X01798540Y00794128D01*
X01817540D01*
X01821657Y00794533D01*
X01825615Y00795734D01*
X01829263Y00797684D01*
X01832461Y00800309D01*
X01835085Y00803506D01*
X01837035Y00807154D01*
X01838236Y00811113D01*
X01838642Y00815230D01*
Y00824230D01*
X01838236Y00828346D01*
X01837035Y00832305D01*
X01836969Y00832430D01*
X01837035Y00832554D01*
X01837120Y00832834D01*
X01839486Y00834775D01*
X01865741Y00861031D01*
X01868000Y00860808D01*
X01887000D01*
X01891117Y00861214D01*
X01895075Y00862414D01*
X01898723Y00864364D01*
X01901921Y00866989D01*
X01904545Y00870186D01*
X01906495Y00873835D01*
X01907696Y00877793D01*
X01908102Y00881910D01*
Y00890910D01*
X01907696Y00895026D01*
X01906495Y00898985D01*
X01904545Y00902633D01*
X01901921Y00905831D01*
X01898723Y00908455D01*
X01895075Y00910405D01*
X01891117Y00911606D01*
X01887000Y00912011D01*
X01868000D01*
X01863883Y00911606D01*
X01859925Y00910405D01*
X01856277Y00908455D01*
X01853079Y00905831D01*
X01850455Y00902633D01*
X01848505Y00898985D01*
X01848420Y00898707D01*
X01846054Y00896764D01*
X01840638Y00891349D01*
X01838642Y00892223D01*
Y00900430D01*
X01838236Y00904546D01*
X01837035Y00908505D01*
X01836969Y00908630D01*
X01837035Y00908754D01*
X01838236Y00912713D01*
X01838642Y00916830D01*
Y00925830D01*
X01838236Y00929946D01*
X01837035Y00933905D01*
X01835085Y00937553D01*
X01832461Y00940751D01*
X01829263Y00943375D01*
X01825615Y00945325D01*
X01824481Y00945669D01*
Y00947790D01*
X01825615Y00948134D01*
X01829263Y00950084D01*
X01832461Y00952709D01*
X01835085Y00955906D01*
X01837035Y00959554D01*
X01838236Y00963513D01*
X01838642Y00967630D01*
Y00976630D01*
X01838236Y00980746D01*
X01837035Y00984705D01*
X01835085Y00988353D01*
X01832461Y00991551D01*
X01829263Y00994175D01*
X01825615Y00996125D01*
X01821657Y00997326D01*
X01817540Y00997731D01*
X01804595D01*
Y01186546D01*
X01804218Y01190368D01*
X01803103Y01194044D01*
X01801292Y01197432D01*
X01798855Y01200401D01*
X01787901Y01211355D01*
X01784932Y01213792D01*
X01781545Y01215603D01*
X01777869Y01216718D01*
X01774046Y01217094D01*
X01593200D01*
X01592423Y01218970D01*
X01771255Y01397802D01*
X01773692Y01400771D01*
X01774265Y01401843D01*
X01779256Y01406834D01*
X01780610Y01408484D01*
X01781692Y01409803D01*
X01781692Y01409803D01*
X01781693Y01409803D01*
X01782684Y01411658D01*
X01783503Y01413190D01*
X01783503Y01413190D01*
X01783503Y01413191D01*
X01784104Y01415173D01*
X01784618Y01416866D01*
X01784618Y01416866D01*
X01784618Y01416866D01*
X01784809Y01418807D01*
X01784994Y01420688D01*
Y01426500D01*
X01784618Y01430323D01*
X01784405Y01431025D01*
X01785614Y01432656D01*
X01792612D01*
X01796149Y01429119D01*
X01799118Y01426682D01*
X01802506Y01424871D01*
X01806181Y01423756D01*
X01810004Y01423380D01*
X01860550D01*
X01864373Y01423756D01*
X01868048Y01424871D01*
X01871436Y01426682D01*
X01874405Y01429119D01*
X01885073Y01439787D01*
X01887510Y01442756D01*
X01889321Y01446144D01*
X01890436Y01449819D01*
X01890812Y01453642D01*
Y01479550D01*
X01890436Y01483373D01*
X01889321Y01487048D01*
X01887510Y01490436D01*
X01885073Y01493405D01*
X01880354Y01498125D01*
X01881131Y01500000D01*
X01939437D01*
X01939705Y01497970D01*
D02*
G37*
G36*
X00985375Y01329755D02*
X00989334Y01328554D01*
X00993450Y01328149D01*
X01000841D01*
X01020267Y01308723D01*
X01023236Y01306286D01*
X01026624Y01304475D01*
X01030300Y01303360D01*
X01034122Y01302984D01*
X01120673D01*
Y01295700D01*
X01121079Y01291583D01*
X01122280Y01287625D01*
X01122346Y01287500D01*
X01122280Y01287375D01*
X01121079Y01283417D01*
X01120673Y01279300D01*
Y01270300D01*
X01121079Y01266183D01*
X01122280Y01262225D01*
X01124230Y01258577D01*
X01126854Y01255379D01*
X01130051Y01252755D01*
X01133700Y01250805D01*
X01134834Y01250461D01*
Y01248339D01*
X01133700Y01247995D01*
X01130051Y01246045D01*
X01127065Y01243594D01*
X01062445D01*
X01061485Y01245624D01*
X01063046Y01247526D01*
X01064995Y01251175D01*
X01066196Y01255133D01*
X01066602Y01259250D01*
Y01278250D01*
X01066196Y01282366D01*
X01064995Y01286325D01*
X01063046Y01289973D01*
X01060421Y01293171D01*
X01057224Y01295795D01*
X01053575Y01297745D01*
X01049617Y01298946D01*
X01045500Y01299351D01*
X01036500D01*
X01032383Y01298946D01*
X01028425Y01297745D01*
X01024777Y01295795D01*
X01021579Y01293171D01*
X01018955Y01289973D01*
X01017005Y01286325D01*
X01015804Y01282366D01*
X01015399Y01278250D01*
Y01259250D01*
X01015804Y01255133D01*
X01017005Y01251175D01*
X01018955Y01247526D01*
X01020516Y01245624D01*
X01019556Y01243594D01*
X00995440D01*
X00955076Y01283958D01*
Y01285340D01*
X00955076Y01285340D01*
X00955076Y01285341D01*
X00954887Y01287261D01*
X00954700Y01289163D01*
X00954700Y01289163D01*
X00954700Y01289163D01*
X00954156Y01290954D01*
X00953585Y01292838D01*
X00953585Y01292839D01*
X00953585Y01292839D01*
X00952671Y01294549D01*
X00951774Y01296226D01*
X00951774Y01296226D01*
X00951774Y01296227D01*
X00950377Y01297929D01*
X00949647Y01298818D01*
X00950114Y01300465D01*
X00950349Y01300848D01*
X00960500D01*
X00964617Y01301254D01*
X00968575Y01302455D01*
X00972223Y01304405D01*
X00975421Y01307029D01*
X00978045Y01310227D01*
X00979995Y01313875D01*
X00981196Y01317833D01*
X00981601Y01321950D01*
Y01329341D01*
X00983186Y01330925D01*
X00985375Y01329755D01*
D02*
G37*
G36*
X01750915Y01163000D02*
X01751255Y01160416D01*
X01752253Y01158007D01*
X01753839Y01155939D01*
X01755907Y01154352D01*
X01758316Y01153355D01*
X01760900Y01153015D01*
X01765406D01*
Y01125505D01*
X01763530Y01124728D01*
X01728481Y01159778D01*
X01728745Y01160416D01*
X01729086Y01163000D01*
Y01177905D01*
X01750915D01*
Y01163000D01*
D02*
G37*
G36*
X01130051Y01201955D02*
X01133700Y01200005D01*
X01134834Y01199661D01*
Y01197539D01*
X01133700Y01197195D01*
X01130051Y01195245D01*
X01126854Y01192621D01*
X01124230Y01189424D01*
X01122280Y01185775D01*
X01121079Y01181817D01*
X01120673Y01177700D01*
Y01168700D01*
X01121079Y01164583D01*
X01122280Y01160625D01*
X01122346Y01160500D01*
X01122280Y01160375D01*
X01121079Y01156417D01*
X01120673Y01152300D01*
Y01143300D01*
X01121079Y01139183D01*
X01122280Y01135225D01*
X01124230Y01131577D01*
X01126854Y01128379D01*
X01130051Y01125755D01*
X01133700Y01123805D01*
X01137658Y01122604D01*
X01141775Y01122198D01*
X01160775D01*
X01164892Y01122604D01*
X01168850Y01123805D01*
X01172498Y01125755D01*
X01175696Y01128379D01*
X01178320Y01131577D01*
X01180270Y01135225D01*
X01181471Y01139183D01*
X01181497Y01139449D01*
X01183408Y01140133D01*
X01189597Y01133945D01*
X01192566Y01131508D01*
X01195954Y01129697D01*
X01199629Y01128582D01*
X01203452Y01128206D01*
X01206465D01*
X01209452Y01125755D01*
X01210788Y01125041D01*
X01210280Y01123010D01*
X01209444D01*
X01205621Y01122634D01*
X01201945Y01121519D01*
X01198558Y01119708D01*
X01195589Y01117271D01*
X01167969Y01089651D01*
X01154750D01*
X01150633Y01089246D01*
X01146675Y01088045D01*
X01143027Y01086095D01*
X01139829Y01083471D01*
X01137205Y01080273D01*
X01137163Y01080195D01*
X00921869D01*
Y01156794D01*
X00969480Y01204406D01*
X01127065D01*
X01130051Y01201955D01*
D02*
G37*
G36*
X01275156Y00983623D02*
Y00912011D01*
X01262250D01*
X01258133Y00911606D01*
X01254175Y00910405D01*
X01250527Y00908455D01*
X01247329Y00905831D01*
X01244705Y00902633D01*
X01242755Y00898985D01*
X01241554Y00895026D01*
X01241392Y00893386D01*
X01239353D01*
X01239066Y00896296D01*
X01237865Y00900255D01*
X01237798Y00900380D01*
X01237865Y00900505D01*
X01239066Y00904463D01*
X01239471Y00908580D01*
Y00917580D01*
X01239066Y00921696D01*
X01237865Y00925655D01*
X01235915Y00929303D01*
X01233291Y00932501D01*
X01230093Y00935125D01*
X01226445Y00937075D01*
X01225311Y00937419D01*
Y00939540D01*
X01226445Y00939884D01*
X01230093Y00941834D01*
X01233291Y00944459D01*
X01235915Y00947656D01*
X01237865Y00951304D01*
X01239066Y00955263D01*
X01239471Y00959380D01*
Y00968380D01*
X01239066Y00972496D01*
X01237865Y00976455D01*
X01236859Y00978338D01*
X01238348Y00979857D01*
X01241596Y00978203D01*
X01245937Y00976792D01*
X01250446Y00976078D01*
X01255010D01*
X01259519Y00976792D01*
X01263860Y00978203D01*
X01267927Y00980275D01*
X01271620Y00982958D01*
X01273126Y00984464D01*
X01275156Y00983623D01*
D02*
G37*
G36*
X01569824Y00920538D02*
X01569720Y00919480D01*
Y00910480D01*
X01570039Y00907245D01*
X01570982Y00904135D01*
X01572514Y00901268D01*
X01574576Y00898756D01*
X01579076Y00894256D01*
X01581589Y00892194D01*
X01584455Y00890662D01*
X01587565Y00889718D01*
X01590800Y00889400D01*
X01592797D01*
X01599720Y00882477D01*
X01598944Y00880601D01*
X01588500D01*
X01584383Y00880196D01*
X01580425Y00878995D01*
X01576776Y00877045D01*
X01573579Y00874421D01*
X01570954Y00871223D01*
X01569005Y00867575D01*
X01567804Y00863616D01*
X01567613Y00861675D01*
X01565498Y00860919D01*
X01564224Y00862193D01*
X01561711Y00864255D01*
X01558845Y00865788D01*
X01555735Y00866731D01*
X01552500Y00867050D01*
X01543500D01*
X01540265Y00866731D01*
X01537155Y00865788D01*
X01534289Y00864255D01*
X01531776Y00862194D01*
X01527276Y00857693D01*
X01525214Y00855181D01*
X01523682Y00852315D01*
X01522739Y00849204D01*
X01522420Y00845970D01*
Y00826970D01*
X01522739Y00823735D01*
X01523682Y00820625D01*
X01525214Y00817758D01*
X01527276Y00815246D01*
X01531776Y00810746D01*
X01534289Y00808684D01*
X01537155Y00807152D01*
X01540265Y00806208D01*
X01543500Y00805890D01*
X01552500D01*
X01555735Y00806208D01*
X01557068Y00806613D01*
X01558698Y00805404D01*
Y00800000D01*
X01559104Y00795883D01*
X01559912Y00793219D01*
X01558148Y00792040D01*
X01556923Y00793045D01*
X01553275Y00794995D01*
X01549317Y00796196D01*
X01545200Y00796602D01*
X01536200D01*
X01532083Y00796196D01*
X01528125Y00794995D01*
X01527436Y00794627D01*
X01526145Y00795318D01*
X01523035Y00796261D01*
X01519800Y00796580D01*
X01510800D01*
X01507565Y00796261D01*
X01504455Y00795318D01*
X01501589Y00793786D01*
X01499076Y00791724D01*
X01494576Y00787224D01*
X01492514Y00784711D01*
X01490982Y00781845D01*
X01490039Y00778735D01*
X01489720Y00775500D01*
Y00756500D01*
X01489988Y00753783D01*
X01488720Y00751753D01*
X01443010D01*
Y00812530D01*
X01545109Y00914628D01*
X01552500D01*
X01556617Y00915034D01*
X01560575Y00916235D01*
X01564223Y00918185D01*
X01567421Y00920809D01*
X01567865Y00921349D01*
X01569824Y00920538D01*
D02*
G37*
G36*
X00799974Y00751753D02*
X00732064D01*
Y00773780D01*
X00731688Y00777603D01*
X00730573Y00781278D01*
X00728762Y00784666D01*
X00726325Y00787635D01*
X00676086Y00837875D01*
X00700019Y00861808D01*
X00714430D01*
X00718547Y00862214D01*
X00722505Y00863415D01*
X00726153Y00865365D01*
X00729351Y00867989D01*
X00731975Y00871187D01*
X00733925Y00874835D01*
X00735126Y00878793D01*
X00735531Y00882910D01*
Y00891910D01*
X00735126Y00896027D01*
X00733925Y00899985D01*
X00731975Y00903633D01*
X00729351Y00906831D01*
X00726153Y00909455D01*
X00722505Y00911405D01*
X00718547Y00912606D01*
X00714430Y00913011D01*
X00695430D01*
X00691313Y00912606D01*
X00687355Y00911405D01*
X00683706Y00909455D01*
X00680509Y00906831D01*
X00677884Y00903633D01*
X00675934Y00899985D01*
X00674734Y00896027D01*
X00674328Y00891910D01*
Y00891539D01*
X00672637Y00889848D01*
X00670761Y00890624D01*
Y00893180D01*
X00670356Y00897297D01*
X00669155Y00901255D01*
X00669088Y00901380D01*
X00669155Y00901505D01*
X00670356Y00905463D01*
X00670761Y00909580D01*
Y00918580D01*
X00670356Y00922697D01*
X00669155Y00926655D01*
X00667205Y00930303D01*
X00664581Y00933501D01*
X00661383Y00936125D01*
X00657735Y00938075D01*
X00656601Y00938419D01*
Y00940541D01*
X00657735Y00940885D01*
X00661383Y00942835D01*
X00664581Y00945459D01*
X00667205Y00948656D01*
X00669155Y00952305D01*
X00670356Y00956263D01*
X00670761Y00960380D01*
Y00969380D01*
X00670356Y00973497D01*
X00669155Y00977455D01*
X00667205Y00981103D01*
X00664581Y00984301D01*
X00661383Y00986925D01*
X00657735Y00988875D01*
X00653776Y00990076D01*
X00649660Y00990481D01*
X00637094D01*
Y00996734D01*
X00650736Y01010376D01*
X00708220D01*
X00712043Y01010752D01*
X00715719Y01011867D01*
X00719106Y01013678D01*
X00722075Y01016115D01*
X00727725Y01021764D01*
X00799974D01*
Y00751753D01*
D02*
G37*
G36*
X00527444Y00590615D02*
Y00581384D01*
X00489576D01*
X00481304Y00589657D01*
X00481601Y00591665D01*
X00482161Y00591964D01*
X00484673Y00594026D01*
X00489173Y00598526D01*
X00490511Y00600155D01*
X00517904D01*
X00527444Y00590615D01*
D02*
G37*
G36*
X01726056Y00593128D02*
Y00592500D01*
X01725945Y00591371D01*
Y00580384D01*
X01689326D01*
X01678263Y00591448D01*
X01678364Y00594217D01*
X01681674Y00597527D01*
X01683011Y00599156D01*
X01720028D01*
X01726056Y00593128D01*
D02*
G37*
G36*
X01126806D02*
Y00592500D01*
X01126694Y00591371D01*
Y00580384D01*
X01096826D01*
X01082554Y00594656D01*
X01086424Y00598526D01*
X01087761Y00600155D01*
X01119778D01*
X01126806Y00593128D01*
D02*
G37*
G36*
X01121559Y00692730D02*
X01124528Y00690294D01*
X01127916Y00688483D01*
X01131591Y00687368D01*
X01135414Y00686992D01*
X01221298D01*
X01257084Y00651205D01*
X01256307Y00649330D01*
X01254050D01*
X01250816Y00649011D01*
X01247705Y00648068D01*
X01244839Y00646536D01*
X01242327Y00644474D01*
X01237827Y00639974D01*
X01235764Y00637461D01*
X01234232Y00634595D01*
X01233289Y00631485D01*
X01232970Y00628250D01*
Y00625140D01*
X01168848D01*
X01165025Y00624763D01*
X01161349Y00623648D01*
X01157962Y00621837D01*
X01155521Y00619834D01*
X01141750Y00633605D01*
X01138781Y00636042D01*
X01135393Y00637853D01*
X01131717Y00638968D01*
X01127895Y00639344D01*
X01087761D01*
X01086424Y00640974D01*
X01081924Y00645474D01*
X01079411Y00647535D01*
X01076545Y00649068D01*
X01073435Y00650011D01*
X01070200Y00650330D01*
X01061200D01*
X01057966Y00650011D01*
X01054855Y00649068D01*
X01053564Y00648377D01*
X01052875Y00648745D01*
X01048917Y00649946D01*
X01044800Y00650351D01*
X01035800D01*
X01031684Y00649946D01*
X01027725Y00648745D01*
X01024077Y00646795D01*
X01020879Y00644171D01*
X01018255Y00640973D01*
X01016305Y00637325D01*
X01015104Y00633367D01*
X01014699Y00629250D01*
Y00610250D01*
X01015104Y00606133D01*
X01016305Y00602175D01*
X01018255Y00598526D01*
X01020879Y00595329D01*
X01024077Y00592705D01*
X01027725Y00590755D01*
X01031684Y00589554D01*
X01032296Y00589493D01*
X01074855Y00546935D01*
X01077824Y00544498D01*
X01081212Y00542687D01*
X01084887Y00541572D01*
X01088710Y00541195D01*
X01091148D01*
Y00510852D01*
X01091524Y00507030D01*
X01092639Y00503354D01*
X01094450Y00499966D01*
X01096887Y00496997D01*
X01150989Y00442895D01*
X01153959Y00440458D01*
X01157346Y00438647D01*
X01161022Y00437532D01*
X01164845Y00437156D01*
X01300062D01*
X01303885Y00437532D01*
X01307561Y00438647D01*
X01310948Y00440458D01*
X01313918Y00442895D01*
X01334361Y00463338D01*
X01336798Y00466307D01*
X01338609Y00469695D01*
X01339724Y00473371D01*
X01340100Y00477193D01*
Y00477393D01*
X01342130Y00477901D01*
X01342704Y00476827D01*
X01345329Y00473629D01*
X01348526Y00471005D01*
X01352175Y00469055D01*
X01356133Y00467854D01*
X01360250Y00467449D01*
X01379250D01*
X01383367Y00467854D01*
X01387325Y00469055D01*
X01390973Y00471005D01*
X01394171Y00473629D01*
X01396795Y00476827D01*
X01398745Y00480475D01*
X01399946Y00484433D01*
X01400352Y00488550D01*
Y00497550D01*
X01399946Y00501667D01*
X01398745Y00505625D01*
X01396795Y00509273D01*
X01394171Y00512471D01*
X01390973Y00515095D01*
X01387325Y00517045D01*
X01383367Y00518246D01*
X01379250Y00518652D01*
X01365765D01*
X01364988Y00520527D01*
X01369950Y00525490D01*
X01450050D01*
X01549631Y00425909D01*
X01552600Y00423472D01*
X01555988Y00421661D01*
X01559664Y00420546D01*
X01563486Y00420170D01*
X01572265D01*
X01573042Y00418294D01*
X01571367Y00416620D01*
X00933161D01*
X00761500Y00588280D01*
X00762277Y00590155D01*
X00821840D01*
X00825663Y00590532D01*
X00829338Y00591647D01*
X00832726Y00593458D01*
X00835695Y00595895D01*
X00875423Y00635623D01*
X00877860Y00638592D01*
X00879671Y00641980D01*
X00880786Y00645655D01*
X00881162Y00649478D01*
Y00709848D01*
X00883688Y00712374D01*
X00886371Y00716067D01*
X00887425Y00718136D01*
X00889455Y00717649D01*
Y00613771D01*
X00889832Y00609948D01*
X00890947Y00606272D01*
X00892758Y00602885D01*
X00895194Y00599915D01*
X00915468Y00579641D01*
Y00572250D01*
X00915874Y00568134D01*
X00917075Y00564175D01*
X00919025Y00560527D01*
X00921649Y00557329D01*
X00924847Y00554705D01*
X00925505Y00554353D01*
X00925176Y00551021D01*
Y00518972D01*
X00924847Y00518795D01*
X00921649Y00516171D01*
X00919025Y00512974D01*
X00917075Y00509325D01*
X00915874Y00505367D01*
X00915468Y00501250D01*
Y00482250D01*
X00915874Y00478133D01*
X00917075Y00474175D01*
X00919025Y00470527D01*
X00921649Y00467329D01*
X00924847Y00464705D01*
X00928495Y00462755D01*
X00932453Y00461554D01*
X00936570Y00461148D01*
X00945570D01*
X00949687Y00461554D01*
X00953645Y00462755D01*
X00957293Y00464705D01*
X00960491Y00467329D01*
X00963115Y00470527D01*
X00965065Y00474175D01*
X00966266Y00478133D01*
X00966672Y00482250D01*
Y00501250D01*
X00966266Y00505367D01*
X00965065Y00509325D01*
X00964365Y00510635D01*
Y00542905D01*
X01001606Y00580146D01*
X01004043Y00583115D01*
X01005853Y00586502D01*
X01006969Y00590178D01*
X01007345Y00594001D01*
Y00751500D01*
X01062789D01*
X01121559Y00692730D01*
D02*
G37*
%LPC*%
G36*
X00616050Y01497601D02*
X00607050D01*
X00602934Y01497196D01*
X00598975Y01495995D01*
X00595327Y01494045D01*
X00592129Y01491421D01*
X00589505Y01488223D01*
X00587555Y01484575D01*
X00586354Y01480617D01*
X00585949Y01476500D01*
Y01457500D01*
X00586354Y01453383D01*
X00587555Y01449425D01*
X00589505Y01445776D01*
X00592129Y01442579D01*
X00595327Y01439955D01*
X00598975Y01438004D01*
X00602934Y01436804D01*
X00607050Y01436398D01*
X00616050D01*
X00620167Y01436804D01*
X00624125Y01438004D01*
X00627774Y01439955D01*
X00630971Y01442579D01*
X00633596Y01445776D01*
X00635546Y01449425D01*
X00636746Y01453383D01*
X00637152Y01457500D01*
Y01476500D01*
X00636746Y01480617D01*
X00635546Y01484575D01*
X00633596Y01488223D01*
X00630971Y01491421D01*
X00627774Y01494045D01*
X00624125Y01495995D01*
X00620167Y01497196D01*
X00616050Y01497601D01*
D02*
G37*
G36*
X00259500Y01445080D02*
X00229500D01*
X00226265Y01444762D01*
X00223155Y01443818D01*
X00220289Y01442286D01*
X00217776Y01440224D01*
X00202776Y01425224D01*
X00200714Y01422711D01*
X00199182Y01419845D01*
X00198239Y01416735D01*
X00197920Y01413500D01*
Y01358500D01*
X00198239Y01355266D01*
X00199182Y01352155D01*
X00200714Y01349289D01*
X00202776Y01346777D01*
X00217776Y01331777D01*
X00220289Y01329715D01*
X00223155Y01328183D01*
X00226265Y01327239D01*
X00229500Y01326920D01*
X00259500D01*
X00262735Y01327239D01*
X00265845Y01328183D01*
X00268711Y01329715D01*
X00271224Y01331777D01*
X00286224Y01346777D01*
X00288286Y01349289D01*
X00289818Y01352155D01*
X00290761Y01355266D01*
X00291080Y01358500D01*
Y01413500D01*
X00290761Y01416735D01*
X00289818Y01419845D01*
X00288286Y01422711D01*
X00286224Y01425224D01*
X00271224Y01440224D01*
X00268711Y01442286D01*
X00265845Y01443818D01*
X00262735Y01444762D01*
X00259500Y01445080D01*
D02*
G37*
G36*
X00128440Y01305820D02*
X00119440D01*
X00116205Y01305501D01*
X00113095Y01304558D01*
X00110229Y01303026D01*
X00107716Y01300964D01*
X00103216Y01296464D01*
X00101154Y01293951D01*
X00099622Y01291085D01*
X00098679Y01287975D01*
X00098360Y01284740D01*
Y01265740D01*
X00098679Y01262505D01*
X00099622Y01259395D01*
X00101154Y01256529D01*
X00103216Y01254016D01*
X00107716Y01249516D01*
X00110229Y01247454D01*
X00113095Y01245922D01*
X00116205Y01244979D01*
X00119440Y01244660D01*
X00128440D01*
X00131674Y01244979D01*
X00134785Y01245922D01*
X00137651Y01247454D01*
X00140163Y01249516D01*
X00144663Y01254016D01*
X00146726Y01256529D01*
X00148258Y01259395D01*
X00149201Y01262505D01*
X00149520Y01265740D01*
Y01284740D01*
X00149201Y01287975D01*
X00148258Y01291085D01*
X00146725Y01293951D01*
X00144663Y01296464D01*
X00140163Y01300964D01*
X00137651Y01303026D01*
X00134785Y01304558D01*
X00131674Y01305501D01*
X00128440Y01305820D01*
D02*
G37*
G36*
X00280000Y01306600D02*
X00220000D01*
X00213918Y01306201D01*
X00207939Y01305012D01*
X00202167Y01303053D01*
X00196700Y01300357D01*
X00191632Y01296970D01*
X00187049Y01292951D01*
X00183030Y01288368D01*
X00179643Y01283300D01*
X00176947Y01277833D01*
X00174988Y01272061D01*
X00173799Y01266083D01*
X00173400Y01260000D01*
Y01200000D01*
X00173799Y01193918D01*
X00174988Y01187939D01*
X00176947Y01182167D01*
X00179643Y01176700D01*
X00183030Y01171632D01*
X00187049Y01167049D01*
X00191632Y01163030D01*
X00196700Y01159643D01*
X00202167Y01156947D01*
X00207939Y01154988D01*
X00213918Y01153799D01*
X00220000Y01153400D01*
X00280000D01*
X00286082Y01153799D01*
X00292061Y01154988D01*
X00297833Y01156947D01*
X00303300Y01159643D01*
X00308368Y01163030D01*
X00312951Y01167049D01*
X00316970Y01171632D01*
X00320357Y01176700D01*
X00323053Y01182167D01*
X00325012Y01187939D01*
X00326201Y01193918D01*
X00326600Y01200000D01*
Y01260000D01*
X00326201Y01266083D01*
X00325012Y01272061D01*
X00323053Y01277833D01*
X00320357Y01283300D01*
X00316970Y01288368D01*
X00312951Y01292951D01*
X00308368Y01296970D01*
X00303300Y01300357D01*
X00297833Y01303053D01*
X00292061Y01305012D01*
X00286082Y01306201D01*
X00280000Y01306600D01*
D02*
G37*
G36*
X00128440Y01200410D02*
X00119440D01*
X00116205Y01200091D01*
X00113095Y01199148D01*
X00110229Y01197616D01*
X00107716Y01195554D01*
X00103216Y01191054D01*
X00101154Y01188541D01*
X00099622Y01185675D01*
X00098679Y01182565D01*
X00098360Y01179330D01*
Y01160330D01*
X00098679Y01157095D01*
X00099622Y01153985D01*
X00101154Y01151119D01*
X00103216Y01148606D01*
X00107716Y01144106D01*
X00110229Y01142044D01*
X00113095Y01140512D01*
X00116205Y01139569D01*
X00119440Y01139250D01*
X00128440D01*
X00131674Y01139569D01*
X00134785Y01140512D01*
X00137651Y01142044D01*
X00140163Y01144106D01*
X00144663Y01148606D01*
X00146726Y01151119D01*
X00148258Y01153985D01*
X00149201Y01157095D01*
X00149520Y01160330D01*
Y01179330D01*
X00149201Y01182565D01*
X00148258Y01185675D01*
X00146725Y01188541D01*
X00144663Y01191054D01*
X00140163Y01195554D01*
X00137651Y01197616D01*
X00134785Y01199148D01*
X00131674Y01200091D01*
X00128440Y01200410D01*
D02*
G37*
G36*
Y01095000D02*
X00119440D01*
X00116205Y01094681D01*
X00113095Y01093738D01*
X00110229Y01092206D01*
X00107716Y01090144D01*
X00103216Y01085644D01*
X00101154Y01083131D01*
X00099622Y01080265D01*
X00098679Y01077155D01*
X00098360Y01073920D01*
Y01054920D01*
X00098679Y01051685D01*
X00099622Y01048575D01*
X00101154Y01045709D01*
X00103216Y01043196D01*
X00107716Y01038696D01*
X00110229Y01036634D01*
X00113095Y01035102D01*
X00116205Y01034159D01*
X00119440Y01033840D01*
X00128440D01*
X00131674Y01034159D01*
X00134785Y01035102D01*
X00137651Y01036634D01*
X00140163Y01038696D01*
X00144663Y01043196D01*
X00146726Y01045709D01*
X00148258Y01048575D01*
X00149201Y01051685D01*
X00149520Y01054920D01*
Y01073920D01*
X00149201Y01077155D01*
X00148258Y01080265D01*
X00146725Y01083131D01*
X00144663Y01085644D01*
X00140163Y01090144D01*
X00137651Y01092206D01*
X00134785Y01093738D01*
X00131674Y01094681D01*
X00128440Y01095000D01*
D02*
G37*
G36*
Y00989590D02*
X00119440D01*
X00116205Y00989271D01*
X00113095Y00988328D01*
X00110229Y00986796D01*
X00107716Y00984734D01*
X00103216Y00980234D01*
X00101154Y00977721D01*
X00099622Y00974855D01*
X00098679Y00971745D01*
X00098360Y00968510D01*
Y00949510D01*
X00098679Y00946275D01*
X00099622Y00943165D01*
X00101154Y00940299D01*
X00103216Y00937786D01*
X00107716Y00933286D01*
X00110229Y00931224D01*
X00113095Y00929692D01*
X00116205Y00928749D01*
X00119440Y00928430D01*
X00128440D01*
X00131674Y00928749D01*
X00134785Y00929692D01*
X00137651Y00931224D01*
X00140163Y00933286D01*
X00144663Y00937786D01*
X00146726Y00940299D01*
X00148258Y00943165D01*
X00149201Y00946275D01*
X00149520Y00949510D01*
Y00968510D01*
X00149201Y00971745D01*
X00148258Y00974855D01*
X00146725Y00977721D01*
X00144663Y00980234D01*
X00140163Y00984734D01*
X00137651Y00986796D01*
X00134785Y00988328D01*
X00131674Y00989271D01*
X00128440Y00989590D01*
D02*
G37*
G36*
X00280000Y01006600D02*
X00220000D01*
X00213918Y01006201D01*
X00207939Y01005012D01*
X00202167Y01003053D01*
X00196700Y01000357D01*
X00191632Y00996970D01*
X00187049Y00992951D01*
X00183030Y00988368D01*
X00179643Y00983300D01*
X00176947Y00977833D01*
X00174988Y00972061D01*
X00173799Y00966083D01*
X00173400Y00960000D01*
Y00900000D01*
X00173799Y00893918D01*
X00174988Y00887939D01*
X00176947Y00882167D01*
X00179643Y00876700D01*
X00183030Y00871632D01*
X00187049Y00867049D01*
X00191632Y00863030D01*
X00196700Y00859644D01*
X00202167Y00856948D01*
X00207939Y00854988D01*
X00213918Y00853799D01*
X00220000Y00853400D01*
X00280000D01*
X00286082Y00853799D01*
X00292061Y00854988D01*
X00297833Y00856948D01*
X00303300Y00859644D01*
X00308368Y00863030D01*
X00312951Y00867049D01*
X00316970Y00871632D01*
X00320357Y00876700D01*
X00323053Y00882167D01*
X00325012Y00887939D01*
X00326201Y00893918D01*
X00326600Y00900000D01*
Y00960000D01*
X00326201Y00966083D01*
X00325012Y00972061D01*
X00323053Y00977833D01*
X00320357Y00983300D01*
X00316970Y00988368D01*
X00312951Y00992951D01*
X00308368Y00996970D01*
X00303300Y01000357D01*
X00297833Y01003053D01*
X00292061Y01005012D01*
X00286082Y01006201D01*
X00280000Y01006600D01*
D02*
G37*
G36*
X00128440Y00882910D02*
X00119440D01*
X00116205Y00882591D01*
X00113095Y00881648D01*
X00110229Y00880116D01*
X00107716Y00878054D01*
X00103216Y00873554D01*
X00101154Y00871041D01*
X00099622Y00868175D01*
X00098679Y00865065D01*
X00098360Y00861830D01*
Y00842830D01*
X00098679Y00839595D01*
X00099622Y00836485D01*
X00101154Y00833619D01*
X00103216Y00831106D01*
X00107716Y00826606D01*
X00110229Y00824544D01*
X00113095Y00823012D01*
X00116205Y00822069D01*
X00119440Y00821750D01*
X00128440D01*
X00131674Y00822069D01*
X00134785Y00823012D01*
X00137651Y00824544D01*
X00140163Y00826606D01*
X00144663Y00831106D01*
X00146726Y00833619D01*
X00148258Y00836485D01*
X00149201Y00839595D01*
X00149520Y00842830D01*
Y00861830D01*
X00149201Y00865065D01*
X00148258Y00868175D01*
X00146725Y00871041D01*
X00144663Y00873554D01*
X00140163Y00878054D01*
X00137651Y00880116D01*
X00134785Y00881648D01*
X00131674Y00882591D01*
X00128440Y00882910D01*
D02*
G37*
G36*
Y00776230D02*
X00119440D01*
X00116205Y00775911D01*
X00113095Y00774968D01*
X00110229Y00773436D01*
X00107716Y00771374D01*
X00103216Y00766874D01*
X00101154Y00764361D01*
X00099622Y00761495D01*
X00098679Y00758385D01*
X00098360Y00755150D01*
Y00736150D01*
X00098679Y00732915D01*
X00099622Y00729805D01*
X00101154Y00726939D01*
X00103216Y00724426D01*
X00107716Y00719926D01*
X00110229Y00717864D01*
X00113095Y00716332D01*
X00116205Y00715389D01*
X00119440Y00715070D01*
X00128440D01*
X00131674Y00715389D01*
X00134785Y00716332D01*
X00137651Y00717864D01*
X00140163Y00719926D01*
X00144663Y00724426D01*
X00146726Y00726939D01*
X00148258Y00729805D01*
X00149201Y00732915D01*
X00149520Y00736150D01*
Y00755150D01*
X00149201Y00758385D01*
X00148258Y00761495D01*
X00146725Y00764361D01*
X00144663Y00766874D01*
X00140163Y00771374D01*
X00137651Y00773436D01*
X00134785Y00774968D01*
X00131674Y00775911D01*
X00128440Y00776230D01*
D02*
G37*
G36*
X00247032Y00635500D02*
X00242467D01*
X00237959Y00634786D01*
X00233618Y00633376D01*
X00229550Y00631303D01*
X00225858Y00628620D01*
X00222630Y00625392D01*
X00219947Y00621699D01*
X00217875Y00617632D01*
X00216464Y00613291D01*
X00215750Y00608783D01*
Y00604218D01*
X00216464Y00599709D01*
X00217875Y00595368D01*
X00219947Y00591301D01*
X00222630Y00587608D01*
X00225858Y00584380D01*
X00229550Y00581697D01*
X00233618Y00579625D01*
X00237959Y00578214D01*
X00242467Y00577500D01*
X00246039D01*
X00314821Y00508719D01*
X00313804Y00505367D01*
X00313398Y00501250D01*
Y00482250D01*
X00313804Y00478133D01*
X00315005Y00474175D01*
X00316955Y00470527D01*
X00319579Y00467329D01*
X00322777Y00464705D01*
X00326425Y00462755D01*
X00330383Y00461554D01*
X00334500Y00461148D01*
X00343500D01*
X00347617Y00461554D01*
X00351575Y00462755D01*
X00355224Y00464705D01*
X00358421Y00467329D01*
X00361045Y00470527D01*
X00362995Y00474175D01*
X00364196Y00478133D01*
X00364602Y00482250D01*
Y00501250D01*
X00364196Y00505367D01*
X00362995Y00509325D01*
X00361045Y00512974D01*
X00358421Y00516171D01*
X00358111Y00516426D01*
X00357103Y00519748D01*
X00355292Y00523136D01*
X00352855Y00526105D01*
X00329155Y00549806D01*
X00330231Y00551600D01*
X00330383Y00551554D01*
X00334500Y00551149D01*
X00343500D01*
X00347617Y00551554D01*
X00351575Y00552755D01*
X00355224Y00554705D01*
X00358421Y00557329D01*
X00361045Y00560527D01*
X00362995Y00564175D01*
X00364196Y00568134D01*
X00364602Y00572250D01*
Y00591250D01*
X00364196Y00595367D01*
X00362995Y00599326D01*
X00361045Y00602974D01*
X00358421Y00606171D01*
X00355224Y00608796D01*
X00351575Y00610746D01*
X00347617Y00611947D01*
X00343500Y00612352D01*
X00334500D01*
X00330383Y00611947D01*
X00326425Y00610746D01*
X00322777Y00608796D01*
X00319579Y00606171D01*
X00316955Y00602974D01*
X00315005Y00599326D01*
X00313804Y00595367D01*
X00313398Y00591250D01*
Y00572250D01*
X00313804Y00568134D01*
X00313850Y00567981D01*
X00312055Y00566905D01*
X00273750Y00605211D01*
Y00608783D01*
X00273036Y00613291D01*
X00271625Y00617632D01*
X00269553Y00621699D01*
X00266870Y00625392D01*
X00263642Y00628620D01*
X00259949Y00631303D01*
X00255882Y00633376D01*
X00251541Y00634786D01*
X00247032Y00635500D01*
D02*
G37*
G36*
X00183050Y00548102D02*
X00174050D01*
X00169933Y00547696D01*
X00165975Y00546495D01*
X00162326Y00544545D01*
X00159129Y00541921D01*
X00156504Y00538723D01*
X00154555Y00535075D01*
X00153354Y00531117D01*
X00152948Y00527000D01*
Y00508000D01*
X00153354Y00503883D01*
X00154555Y00499925D01*
X00156504Y00496277D01*
X00159129Y00493079D01*
X00162326Y00490455D01*
X00165975Y00488505D01*
X00169933Y00487304D01*
X00174050Y00486898D01*
X00183050D01*
X00187167Y00487304D01*
X00191125Y00488505D01*
X00194773Y00490455D01*
X00197971Y00493079D01*
X00200595Y00496277D01*
X00202545Y00499925D01*
X00203746Y00503883D01*
X00204151Y00508000D01*
Y00527000D01*
X00203746Y00531117D01*
X00202545Y00535075D01*
X00200595Y00538723D01*
X00197971Y00541921D01*
X00194773Y00544545D01*
X00191125Y00546495D01*
X00187167Y00547696D01*
X00183050Y00548102D01*
D02*
G37*
G36*
X01772234Y00326500D02*
X01764765D01*
X01757343Y00325664D01*
X01750061Y00324002D01*
X01743011Y00321535D01*
X01736282Y00318294D01*
X01729958Y00314320D01*
X01724118Y00309663D01*
X01718837Y00304382D01*
X01714180Y00298542D01*
X01710206Y00292218D01*
X01706965Y00285488D01*
X01704498Y00278439D01*
X01702836Y00271157D01*
X01702000Y00263734D01*
Y00256265D01*
X01702836Y00248843D01*
X01704498Y00241561D01*
X01706965Y00234511D01*
X01710206Y00227782D01*
X01714180Y00221458D01*
X01718837Y00215618D01*
X01724118Y00210337D01*
X01729958Y00205680D01*
X01736282Y00201706D01*
X01743011Y00198465D01*
X01750061Y00195998D01*
X01757343Y00194336D01*
X01764765Y00193500D01*
X01772234D01*
X01779657Y00194336D01*
X01786938Y00195998D01*
X01793988Y00198465D01*
X01800718Y00201706D01*
X01807042Y00205680D01*
X01812882Y00210337D01*
X01818163Y00215618D01*
X01822820Y00221458D01*
X01826794Y00227782D01*
X01830035Y00234511D01*
X01832502Y00241561D01*
X01834164Y00248843D01*
X01835000Y00256265D01*
Y00263734D01*
X01834164Y00271157D01*
X01832502Y00278439D01*
X01830035Y00285488D01*
X01826794Y00292218D01*
X01822820Y00298542D01*
X01818163Y00304382D01*
X01812882Y00309663D01*
X01807042Y00314320D01*
X01800718Y00318294D01*
X01793988Y00321535D01*
X01786938Y00324002D01*
X01779657Y00325664D01*
X01772234Y00326500D01*
D02*
G37*
G36*
X01170235D02*
X01162766D01*
X01155343Y00325664D01*
X01148062Y00324002D01*
X01141012Y00321535D01*
X01134282Y00318294D01*
X01127958Y00314320D01*
X01122118Y00309663D01*
X01116837Y00304382D01*
X01112180Y00298542D01*
X01108206Y00292218D01*
X01104965Y00285488D01*
X01102498Y00278439D01*
X01100836Y00271157D01*
X01100000Y00263734D01*
Y00256265D01*
X01100836Y00248843D01*
X01102498Y00241561D01*
X01104965Y00234511D01*
X01108206Y00227782D01*
X01112180Y00221458D01*
X01116837Y00215618D01*
X01122118Y00210337D01*
X01127958Y00205680D01*
X01134282Y00201706D01*
X01141012Y00198465D01*
X01148062Y00195998D01*
X01155343Y00194336D01*
X01162766Y00193500D01*
X01170235D01*
X01177657Y00194336D01*
X01184939Y00195998D01*
X01191989Y00198465D01*
X01198718Y00201706D01*
X01205042Y00205680D01*
X01210882Y00210337D01*
X01216163Y00215618D01*
X01220820Y00221458D01*
X01224794Y00227782D01*
X01228035Y00234511D01*
X01230502Y00241561D01*
X01232164Y00248843D01*
X01233000Y00256265D01*
Y00263734D01*
X01232164Y00271157D01*
X01230502Y00278439D01*
X01228035Y00285488D01*
X01224794Y00292218D01*
X01220820Y00298542D01*
X01216163Y00304382D01*
X01210882Y00309663D01*
X01205042Y00314320D01*
X01198718Y00318294D01*
X01191989Y00321535D01*
X01184939Y00324002D01*
X01177657Y00325664D01*
X01170235Y00326500D01*
D02*
G37*
G36*
X00561735D02*
X00554265D01*
X00546843Y00325664D01*
X00539561Y00324002D01*
X00532511Y00321535D01*
X00525782Y00318294D01*
X00519458Y00314320D01*
X00513618Y00309663D01*
X00508337Y00304382D01*
X00503680Y00298542D01*
X00499706Y00292218D01*
X00496465Y00285488D01*
X00493998Y00278439D01*
X00492336Y00271157D01*
X00491500Y00263734D01*
Y00256265D01*
X00492336Y00248843D01*
X00493998Y00241561D01*
X00496465Y00234511D01*
X00499706Y00227782D01*
X00503680Y00221458D01*
X00508337Y00215618D01*
X00513618Y00210337D01*
X00519458Y00205680D01*
X00525782Y00201706D01*
X00532511Y00198465D01*
X00539561Y00195998D01*
X00546843Y00194336D01*
X00554265Y00193500D01*
X00561735D01*
X00569157Y00194336D01*
X00576438Y00195998D01*
X00583488Y00198465D01*
X00590218Y00201706D01*
X00596542Y00205680D01*
X00602382Y00210337D01*
X00607663Y00215618D01*
X00612320Y00221458D01*
X00616294Y00227782D01*
X00619535Y00234511D01*
X00622002Y00241561D01*
X00623664Y00248843D01*
X00624500Y00256265D01*
Y00263734D01*
X00623664Y00271157D01*
X00622002Y00278439D01*
X00619535Y00285488D01*
X00616294Y00292218D01*
X00612320Y00298542D01*
X00607663Y00304382D01*
X00602382Y00309663D01*
X00596542Y00314320D01*
X00590218Y00318294D01*
X00583488Y00321535D01*
X00576438Y00324002D01*
X00569157Y00325664D01*
X00561735Y00326500D01*
D02*
G37*
%LPD*%
D14*
X01107186Y00598170D02*
X01111178Y00594178D01*
X01123188Y00582168D01*
X01375083Y01457125D02*
X01511400Y01453034D01*
X01361985Y01436985D02*
X01382198Y01457198D01*
X01504188D02*
X01504370Y01453245D01*
X01505612Y01426234D01*
X01506220Y01413002D01*
X00909066Y00759410D02*
Y00879094D01*
Y00613754D02*
Y00759410D01*
X01603000Y00860370D02*
X01658880Y00804490D01*
X01695700D01*
X01599458Y00708248D02*
X01695700Y00804490D01*
X01598000Y00855000D02*
X01613200D01*
X01164250Y01060600D02*
X01166274D01*
X00876250D02*
X01164250D01*
X01133136Y00560790D02*
X01146358Y00547568D01*
X01125220Y00560578D02*
X01138272D01*
X00736750Y00609750D02*
X00821840D01*
X00861568Y00649478D01*
Y00731266D01*
X01005840Y01007110D02*
X01007872Y01005078D01*
X01252728D01*
X01382198Y01457198D02*
X01504188D01*
X01468628Y01375410D02*
X01506220Y01413002D01*
X01613200Y00855000D02*
X01663700Y00804500D01*
X01684700D01*
X01138272Y00560578D02*
X01146400Y00552450D01*
Y00533864D02*
Y00552450D01*
X01203452Y01147800D02*
X01230675D01*
X01178052Y01173200D02*
X01203452Y01147800D01*
X01151275Y01173200D02*
X01178052D01*
X01535684Y01287272D02*
X01617218Y01368806D01*
X01324864Y01287272D02*
X01535684D01*
X01253490Y01215898D02*
X01324864Y01287272D01*
X01253490Y01206500D02*
Y01215898D01*
X01245590Y01198600D02*
X01253490Y01206500D01*
X01230675Y01198600D02*
X01245590D01*
X01166274Y01060600D02*
Y01062025D01*
X01203452Y01198600D02*
X01230675D01*
X01178052Y01173200D02*
X01203452Y01198600D01*
X01125220Y00560790D02*
X01133136D01*
X01088710D02*
X01125220D01*
X01620751Y00641751D02*
X01645642D01*
X01654749D01*
X00578474Y00830480D02*
X00579051D01*
X00577171D02*
X00578474D01*
X01320506Y00503756D02*
X01361834Y00545084D01*
X01458166D01*
X01320506Y00477193D02*
Y00503756D01*
X01707700Y00807300D02*
X01713271Y00801730D01*
X01707700Y00807300D02*
Y00812727D01*
X01713271Y00801730D02*
X01725258D01*
X01683428Y00837000D02*
X01707700Y00812727D01*
X01725258Y00801730D02*
X01808138Y00718850D01*
X01672908Y00837000D02*
X01683428D01*
X01600300Y00909607D02*
X01672908Y00837000D01*
X01600300Y00909607D02*
Y00914980D01*
X01717846Y00926404D02*
X01726766D01*
X01548000Y00945230D02*
X01699020D01*
X01726766Y00926404D02*
X01731840Y00921330D01*
X01699020Y00945230D02*
X01717846Y00926404D01*
X01795146Y00875603D02*
X01802966D01*
X01764538Y00906212D02*
X01795146Y00875603D01*
X01802966D02*
X01808040Y00870530D01*
X01764538Y00906212D02*
Y01096010D01*
X01515300Y00753450D02*
Y00766000D01*
X01546860Y00581750D02*
Y00721890D01*
X01515300Y00753450D02*
X01546860Y00721890D01*
X00691910Y00881410D02*
X00693118D01*
X00645234Y00842954D02*
X00653454D01*
X00640160Y00837880D02*
X00645234Y00842954D01*
X00693118Y00881410D02*
X00699118Y00887410D01*
X00704930D01*
X00653454Y00842954D02*
X00691910Y00881410D01*
X00640160Y00837880D02*
X00645234Y00832806D01*
X01635550Y00606450D02*
X01681210Y00560790D01*
X01635550Y00606450D02*
Y00618751D01*
X01681210Y00560790D02*
X01732386D01*
X01635550Y00536819D02*
Y00606450D01*
X01654749Y00641751D02*
X01660950Y00635550D01*
X01616882Y00637882D02*
X01620751Y00641751D01*
X01616882Y00519676D02*
Y00637882D01*
X01660950Y00618751D02*
Y00635550D01*
X01599458Y00503448D02*
Y00708248D01*
X01484122Y00588378D02*
Y00817626D01*
X01599458Y00503448D02*
X01600875Y00502031D01*
X01484122Y00583184D02*
Y00588378D01*
X01608950Y00463550D02*
X01627124D01*
X01484122Y00588378D02*
X01608950Y00463550D01*
X01484122Y00583184D02*
X01502918Y00564388D01*
X01458166Y00545084D02*
X01563486Y00439764D01*
X01622222D01*
X01332506Y00469900D02*
Y00489256D01*
X01361700Y00518450D01*
X01369750D01*
X00987751Y00594001D02*
Y00789968D01*
X00944771Y00551021D02*
X00987751Y00594001D01*
X00944771Y00495451D02*
Y00551021D01*
X01303000Y00476658D02*
Y00506842D01*
Y00566659D02*
Y00599829D01*
X01301950Y00600879D02*
X01303000Y00599829D01*
X01267000Y00476658D02*
Y00484249D01*
X01301950Y00600879D02*
Y00634050D01*
X01295092Y00468750D02*
X01303000Y00476658D01*
X01313950Y00622292D02*
Y00639564D01*
X01142496Y00444750D02*
X01307356D01*
X01259500Y00491750D02*
X01267000Y00484249D01*
X01300750Y00564409D02*
X01303000Y00566659D01*
X01300750Y00509092D02*
Y00564409D01*
X01183268Y00770246D02*
X01313950Y00639564D01*
X01164845Y00456750D02*
X01300062D01*
X01013750Y00573496D02*
X01142496Y00444750D01*
X01307356D02*
X01332506Y00469900D01*
X01110742Y00510852D02*
X01164845Y00456750D01*
X01267000Y00476658D02*
X01274908Y00468750D01*
X01229414Y00706586D02*
X01301950Y00634050D01*
X01300750Y00509092D02*
X01303000Y00506842D01*
X01135414Y00706586D02*
X01229414D01*
X01274908Y00468750D02*
X01295092D01*
X01313950Y00622292D02*
X01339342Y00596900D01*
X01300062Y00456750D02*
X01320506Y00477193D01*
X01013750Y00573496D02*
Y00638545D01*
X01033691Y00658486D01*
X01040784D01*
X01045374Y00604126D02*
Y00614676D01*
X01040300Y00619750D02*
X01045374Y00614676D01*
Y00604126D02*
X01088710Y00560790D01*
X01147875Y01246000D02*
X01151275Y01249400D01*
X01020700Y01246000D02*
X01030658D01*
X01051092Y01245750D02*
X01051342Y01246000D01*
X01147875D01*
X00997950Y01268750D02*
X01020700Y01246000D01*
X01030908Y01245750D02*
X01051092D01*
X01030658Y01246000D02*
X01030908Y01245750D01*
X00928000Y01336542D02*
X00935908Y01344450D01*
X00928000Y01292822D02*
Y01336542D01*
Y01292822D02*
X00935482Y01285340D01*
Y01275842D02*
Y01285340D01*
X01107500Y01383250D02*
X01145000Y01345750D01*
X00935908Y01344450D02*
X00945924D01*
X00984724Y01383250D02*
X01107500D01*
X00945924Y01344450D02*
X00984724Y01383250D01*
X01536800Y01448735D02*
X01540315Y01452250D01*
X01536800Y01426500D02*
Y01448735D01*
X01800728Y01452250D02*
X01810004Y01442974D01*
X01540315Y01452250D02*
X01800728D01*
X01814771Y00718850D02*
X01886371Y00647250D01*
X01897542D01*
X01917250Y00627542D01*
Y00480000D02*
Y00627542D01*
X01899250Y00462000D02*
X01917250Y00480000D01*
X01865544Y00481676D02*
X01885220Y00462000D01*
X01899250D01*
X01861356Y00481676D02*
X01865544D01*
X01855470Y00487562D02*
X01861356Y00481676D01*
X01855470Y00487562D02*
Y00491750D01*
X01873999Y00882909D02*
X01877500Y00886410D01*
X01825631Y00848631D02*
X01859909Y00882909D01*
X01873999D01*
X01811541Y00848631D02*
X01825631D01*
X01808040Y00845130D02*
X01811541Y00848631D01*
X01774046Y01197500D02*
X01785000Y01186546D01*
Y00933379D02*
X01797050Y00921330D01*
X01785000Y00933379D02*
Y01186546D01*
X01797050Y00921330D02*
X01808040D01*
X01578250Y01146000D02*
X01714548D01*
X01764538Y01096010D01*
X01562200Y01162050D02*
X01578250Y01146000D01*
X01554957Y01197500D02*
X01774046D01*
X01536800Y01172500D02*
Y01178312D01*
X01544800Y01187343D02*
X01554957Y01197500D01*
X01544800Y01186312D02*
Y01187343D01*
X01536800Y01178312D02*
X01544800Y01186312D01*
X01062700Y00812582D02*
Y00828080D01*
X01056450Y00806332D02*
X01062700Y00812582D01*
X01056450Y00785550D02*
Y00806332D01*
Y00785550D02*
X01135414Y00706586D01*
X01113599Y00838901D02*
X01130648D01*
X01091841Y00870120D02*
X01099750Y00862212D01*
X01047564Y00904936D02*
X01082380Y00870120D01*
X01099750Y00852750D02*
Y00862212D01*
X01017175Y00904936D02*
X01047564D01*
X01082380Y00870120D02*
X01091841D01*
X01130648Y00838901D02*
X01132670Y00836880D01*
X01099750Y00852750D02*
X01113599Y00838901D01*
X01109500Y00877757D02*
Y00910308D01*
X01119458Y00869680D02*
X01126858Y00862280D01*
X01117578Y00869680D02*
X01119458D01*
X01109500Y00877757D02*
X01117578Y00869680D01*
X01093308Y00926500D02*
X01109500Y00910308D01*
X01126858Y00862280D02*
X01132670D01*
X01120858Y00919080D02*
X01126858Y00913080D01*
X01100250Y00938500D02*
X01109670Y00929080D01*
X01117578Y00920480D02*
X01118155D01*
X01109670Y00928388D02*
X01117578Y00920480D01*
X01118155D02*
X01119555Y00919080D01*
X01109670Y00928388D02*
Y00929080D01*
X01126858Y00913080D02*
X01132670D01*
X01078734Y00938500D02*
X01100250D01*
X01119555Y00919080D02*
X01120858D01*
X01041314Y00926500D02*
X01093308D01*
X01067544Y00949690D02*
X01078734Y00938500D01*
X01032064Y00935750D02*
X01041314Y00926500D01*
X01046560Y00949690D02*
X01067544D01*
X01039000Y00957250D02*
X01046560Y00949690D01*
X01018016Y00957250D02*
X01039000D01*
X01010456Y00949690D02*
X01018016Y00957250D01*
X00995266Y00949690D02*
X01010456D01*
X00992742Y00947166D02*
X00995266Y00949690D01*
X01026922Y00935750D02*
X01032064D01*
X01309024Y01148750D02*
X01499778D01*
X01188974Y01028700D02*
X01309024Y01148750D01*
X01257000Y01062500D02*
X01294750Y01024750D01*
X00984250Y01028700D02*
X01188974D01*
X01294750Y00903582D02*
Y01024750D01*
X01757400Y01412688D02*
X01765400Y01420688D01*
X01164250Y01064050D02*
X01170062D01*
X01177462Y01071450D02*
X01177478D01*
X01170062Y01064050D02*
X01177462Y01071450D01*
X01265675Y01149709D02*
Y01210239D01*
X01209444Y01103416D02*
X01219383D01*
X01265675Y01210239D02*
X01284677Y01229241D01*
X01765400Y01420688D02*
Y01426500D01*
X01757400Y01411657D02*
Y01412688D01*
X01284677Y01229241D02*
X01574984D01*
X01219383Y01103416D02*
X01265675Y01149709D01*
X01574984Y01229241D02*
X01757400Y01411657D01*
X01177478Y01071450D02*
X01209444Y01103416D01*
X01164250Y01064050D02*
X01166274Y01062025D01*
X01181100Y01044702D02*
X01277675Y01141277D01*
Y01176285D02*
X01299640Y01198250D01*
X01277675Y01141277D02*
Y01176285D01*
X00944880Y01044702D02*
X01181100D01*
X01842580Y00946730D02*
X01877500Y00911810D01*
X01808040Y00946730D02*
X01842580D01*
X01854345Y00605545D02*
X01867550Y00618750D01*
X01768098Y00605545D02*
X01854345D01*
X01660950Y00618751D02*
X01728144D01*
X01745650Y00601244D01*
X01208870Y00938480D02*
X01245080D01*
X01271750Y00911810D01*
X01245345Y00605545D02*
X01258550Y00618750D01*
X01758392Y00595840D02*
X01768098Y00605545D01*
X01758392Y00582178D02*
Y00595840D01*
X01758350Y00582136D02*
X01758392Y00582178D01*
X01745650Y00582136D02*
X01758350D01*
X01745650D02*
Y00601244D01*
X01634908Y00471334D02*
Y00501650D01*
X01616882Y00519676D02*
X01634908Y00501650D01*
X01627124Y00463550D02*
X01634908Y00471334D01*
X01344930Y00564388D02*
X01502918D01*
X00951000Y01301050D02*
X00983300Y01268750D01*
X00997950D01*
X00640160Y00939480D02*
X00678260D01*
X00704930Y00912810D01*
X00796100Y00660718D02*
X00798068Y00662686D01*
X00748718Y00660718D02*
X00796100D01*
X00746750Y00658750D02*
X00748718Y00660718D01*
X00743204Y00662296D02*
X00746750Y00658750D01*
X00743204Y00662296D02*
Y00874536D01*
X01065700Y00619750D02*
X01127895D01*
X01159142Y00595840D02*
X01168848Y00605545D01*
X01127895Y00619750D02*
X01146400Y00601244D01*
X01168848Y00605545D02*
X01245345D01*
X01159142Y00582178D02*
Y00595840D01*
X01159100Y00582136D02*
X01159142Y00582178D01*
X01146400Y00582136D02*
X01159100D01*
X01146400D02*
Y00601244D01*
X00582802Y00619750D02*
X00655050D01*
X00559892Y00596840D02*
X00582802Y00619750D01*
X00468450D02*
X00526020D01*
X00547108Y00598662D01*
X00559892Y00583178D02*
Y00596840D01*
X00547150Y00583136D02*
X00559850D01*
X00559892Y00583178D01*
X00547108D02*
X00547150Y00583136D01*
X00547108Y00583178D02*
Y00598662D01*
X01499778Y01148750D02*
X01511400Y01160372D01*
X01299640Y01198250D02*
X01416293D01*
X01427200Y01186312D02*
Y01187343D01*
X01416293Y01198250D02*
X01427200Y01187343D01*
Y01186312D02*
X01435200Y01178312D01*
Y01172500D02*
Y01178312D01*
X01550574Y01345750D02*
X01613000Y01408176D01*
Y01426500D01*
X01235000Y01345750D02*
X01550574D01*
X01151275Y01300200D02*
X01230675D01*
X01338834Y00673634D02*
Y01090441D01*
X01511400Y01426500D02*
Y01453034D01*
X01361985Y01436985D02*
Y01444027D01*
X01375083Y01457125D01*
X01345250Y01420250D02*
X01361985Y01436985D01*
X01284978Y00893810D02*
X01294750Y00903582D01*
X01284962Y00893810D02*
X01284978D01*
X01277562Y00886410D02*
X01284962Y00893810D01*
X01271750Y00886410D02*
X01277562D01*
X01208870Y00836880D02*
X01222220D01*
X01271750Y00886410D01*
X01766570Y00556514D02*
X01871131D01*
X01886515Y00541130D01*
X01758350Y00548294D02*
X01766570Y00556514D01*
X01732386Y00560790D02*
X01745608Y00547568D01*
X01758350Y00533864D02*
Y00548294D01*
X01745608Y00533906D02*
Y00547568D01*
X01886515Y00537250D02*
Y00541130D01*
X01745650Y00533864D02*
X01758350D01*
X01745608Y00533906D02*
X01745650Y00533864D01*
X01635550Y00536819D02*
X01646908Y00525461D01*
Y00464450D02*
Y00525461D01*
X01622222Y00439764D02*
X01646908Y00464450D01*
X01579484Y00397025D02*
X01622222Y00439764D01*
X00961364Y01224000D02*
X00987324D01*
X00935482Y01275842D02*
X00987324Y01224000D01*
X00819568Y01082204D02*
X00961364Y01224000D01*
X00987324D02*
X01151275D01*
X00819568Y00647700D02*
Y01082204D01*
X00712470Y00647700D02*
X00728636Y00631534D01*
X00803402D02*
X00819568Y00647700D01*
X00728636Y00631534D02*
X00803402D01*
X00645234Y00832806D02*
X00653444D01*
X00712470Y00647700D02*
Y00773780D01*
X00653444Y00832806D02*
X00712470Y00773780D01*
X01146358Y00533906D02*
Y00547568D01*
X01110742Y00546100D02*
X01125220Y00560578D01*
X01146400Y00533864D02*
X01159100D01*
X01146358Y00533906D02*
X01146400Y00533864D01*
X01110742Y00510852D02*
Y00546100D01*
X00925045Y00397025D02*
X01579484D01*
X00712470Y00587069D02*
Y00647700D01*
X00716704Y00582836D02*
X00739234D01*
X00712470Y00587069D02*
X00716704Y00582836D01*
X00443050Y00600201D02*
X00481460Y00561790D01*
X00443050Y00600201D02*
Y00619750D01*
X00547150Y00534864D02*
X00559850D01*
X00547108Y00534906D02*
X00547150Y00534864D01*
X00739234Y00582836D02*
X00925045Y00397025D01*
X00533886Y00561790D02*
X00547108Y00548568D01*
X00481460Y00561790D02*
X00533886D01*
X00547108Y00534906D02*
Y00548568D01*
X01588751Y01477730D02*
X01599231Y01467250D01*
X01833250D01*
X01359874Y01477730D02*
X01588751D01*
X01320800Y01438656D02*
X01359874Y01477730D01*
X01435200Y01414694D02*
Y01426500D01*
X01333500Y01396232D02*
X01416738D01*
X01320800Y01408932D02*
X01333500Y01396232D01*
X01320800Y01408932D02*
Y01438656D01*
X01188974Y01396232D02*
X01333500D01*
X01416738D02*
X01435200Y01414694D01*
X01511400Y01160372D02*
Y01172500D01*
X01610250Y01326750D02*
X01630733Y01347233D01*
X01646953D02*
X01663800Y01364080D01*
X01630733Y01347233D02*
X01646953D01*
X01732992Y00520159D02*
X01752750Y00500402D01*
Y00500250D02*
Y00500402D01*
X01856622Y00527629D02*
X01892500Y00491750D01*
X01771152Y00527629D02*
X01856622D01*
X01712250Y00594000D02*
X01714769Y00591481D01*
X01732839D01*
X01732950Y00582136D02*
Y00591370D01*
X01732839Y00591481D02*
X01732950Y00591370D01*
X01133742Y00520159D02*
X01152750Y00501152D01*
Y00499250D02*
Y00501152D01*
X01119141Y00597000D02*
X01124660Y00591481D01*
X01133589D01*
X01133700Y00591370D01*
Y00582136D02*
Y00591370D01*
X01114000Y00597000D02*
X01119141D01*
X00871000Y00970822D02*
X00944880Y01044702D01*
X00871000Y00969500D02*
Y00970822D01*
X00690842Y00468750D02*
X00698750Y00476658D01*
Y00634542D01*
X00698250Y00635042D02*
X00698750Y00634542D01*
X00663408Y00476000D02*
X00670658Y00468750D01*
X00690842D01*
X00598540Y00752543D02*
X00698250Y00652833D01*
X00653290Y00476000D02*
X00663408D01*
X00698250Y00635042D02*
Y00652833D01*
X01132746Y00770246D02*
X01183268D01*
X01132250Y00769750D02*
X01132746Y00770246D01*
X00545250Y00511000D02*
X00553000Y00503250D01*
Y00497500D02*
Y00503250D01*
X00515994Y00597250D02*
X00520763Y00592481D01*
X00534339D02*
X00534450Y00592371D01*
X00520763Y00592481D02*
X00534339D01*
X00534450Y00583136D02*
Y00592371D01*
X00509500Y00597250D02*
X00515994D01*
X00544652Y00511000D02*
X00545250D01*
X00534492Y00521160D02*
X00544652Y00511000D01*
X00534492Y00521160D02*
Y00534822D01*
X00534450Y00534864D02*
X00534492Y00534822D01*
X00518664Y00752543D02*
X00598540D01*
X01431222Y01384232D02*
X01460600Y01413610D01*
X01219640Y01384232D02*
X01431222D01*
X01157986Y01322578D02*
X01219640Y01384232D01*
X00950742Y01489730D02*
X01861038D01*
X01871218Y01453642D02*
Y01479550D01*
X01861038Y01489730D02*
X01871218Y01479550D01*
X00800862Y01339850D02*
X00950742Y01489730D01*
X00708220Y01029970D02*
X00800862Y01122612D01*
X00642620Y01029970D02*
X00708220D01*
X00800862Y01122612D02*
Y01339850D01*
X00617160Y00899706D02*
X00623627Y00893239D01*
X00635601D02*
X00640160Y00888680D01*
X00623627Y00893239D02*
X00635601D01*
X00617160Y00899706D02*
Y00974972D01*
X00617500Y00975312D01*
Y01004850D01*
X00642620Y01029970D01*
X00393780Y00937980D02*
X00470490D01*
X00491468Y00935250D02*
X00498218Y00928500D01*
X00473220Y00935250D02*
X00491468D01*
X00550378Y00947250D02*
X00558148Y00939480D01*
X00470490Y00937980D02*
X00473220Y00935250D01*
X00484548Y00947250D02*
X00550378D01*
X00454330Y00977468D02*
X00484548Y00947250D01*
X00558148Y00939480D02*
X00563960D01*
X00446421Y00986690D02*
X00454330Y00978782D01*
X00433750Y00998048D02*
X00445108Y00986690D01*
X00454330Y00977468D02*
Y00978782D01*
X00445108Y00986690D02*
X00446421D01*
X00541848Y00928500D02*
X00548868Y00921480D01*
X00550748D02*
X00558148Y00914080D01*
X00548868Y00921480D02*
X00550748D01*
X00498218Y00928500D02*
X00541848D01*
X00558148Y00914080D02*
X00563960D01*
X00466299Y00804909D02*
X00518664Y00752543D01*
X00498330Y00789848D02*
Y00863212D01*
Y00789848D02*
X00508938Y00779240D01*
X00569772Y00837880D02*
X00577171Y00830480D01*
X00466940Y00924560D02*
X00511895Y00879605D01*
X00563960Y00837880D02*
X00569772D01*
X00511895Y00874635D02*
Y00879605D01*
X00508380Y00871120D02*
X00511895Y00874635D01*
X00506238Y00871120D02*
X00508380D01*
X00563811Y00779240D02*
X00586959Y00802388D01*
X00579051Y00830480D02*
X00586959Y00822572D01*
X00508938Y00779240D02*
X00563811D01*
X00466299Y00804909D02*
Y00870061D01*
X00586959Y00802388D02*
Y00822572D01*
X00498330Y00863212D02*
X00506238Y00871120D01*
X00428630Y00907730D02*
X00466299Y00870061D01*
X00405629Y00914391D02*
Y00915958D01*
X00415402Y00925730D02*
X00441857D01*
X00443027Y00924560D01*
X00405629Y00915958D02*
X00415402Y00925730D01*
X00443027Y00924560D02*
X00466940D01*
X00393780Y00902542D02*
X00405629Y00914391D01*
X00997950Y01358750D02*
X01041000D01*
X00951000Y01326450D02*
X00983300Y01358750D01*
X00997950D01*
X01562200Y01162050D02*
Y01172500D01*
X01663800Y01364080D02*
Y01426500D01*
X01460600Y01413610D02*
Y01426500D01*
X01034122Y01322578D02*
X01157986D01*
X00997950Y01358750D02*
X01034122Y01322578D01*
X01810004Y01442974D02*
X01860550D01*
X01871218Y01453642D01*
X00883666Y00928116D02*
X00984250Y01028700D01*
X01707642Y00584962D02*
X01710436Y00582168D01*
X00433750Y00998048D02*
Y01060600D01*
X00406400Y00553720D02*
Y00609600D01*
Y00553720D02*
X00499364Y00460756D01*
X01732950Y00533864D02*
X01732992Y00533822D01*
Y00520159D02*
Y00533822D01*
X00909066Y00613754D02*
X00941070Y00581750D01*
X00909050Y00613771D02*
X00909066Y00613754D01*
X01339342Y00596900D02*
X01374140D01*
X01423416Y00646176D01*
Y00820646D01*
X01548000Y00945230D01*
X00539270Y00812480D02*
X00563960D01*
X00524030Y00797240D02*
X00539270Y00812480D01*
X01094690Y00811480D02*
X01132670D01*
X01079450Y00796240D02*
X01094690Y00811480D01*
X00941750Y00936980D02*
X00951936Y00947166D01*
X00992742D01*
X00994171Y00927940D02*
X01017175Y00904936D01*
X00971120Y00927940D02*
X00994171D01*
X00941750Y00898570D02*
X00971120Y00927940D01*
X00941750Y00828220D02*
Y00898570D01*
X00524030Y00797240D02*
Y00823948D01*
X00521330Y00826648D02*
X00524030Y00823948D01*
X00521330Y00826648D02*
Y00853120D01*
X00391240Y00826680D02*
X00393780Y00829220D01*
X00391240Y00760410D02*
Y00826680D01*
X00393780Y00829220D02*
Y00902542D01*
X00544322Y00964880D02*
X00563960D01*
X00540512Y00968690D02*
X00544322Y00964880D01*
X00521330Y00968690D02*
X00540512D01*
X01106424Y00963880D02*
X01132670D01*
X01102614Y00967690D02*
X01106424Y00963880D01*
X01076750Y00967690D02*
X01102614D01*
X01714246Y00972130D02*
X01731840D01*
X01710436Y00975940D02*
X01714246Y00972130D01*
X01693000Y00975940D02*
X01710436D01*
X01808138Y00718850D02*
X01814771D01*
X00984050Y00906730D02*
X01062700Y00828080D01*
X01245250Y00491750D02*
X01259500D01*
X00637540D02*
X00653290Y00476000D01*
X00637636Y00534864D02*
X00680750Y00491750D01*
X00572550Y00534864D02*
X00637636D01*
X01771050Y00527731D02*
X01771152Y00527629D01*
X01771050Y00527731D02*
Y00533864D01*
X00984050Y00793669D02*
Y00796240D01*
Y00793669D02*
X00987751Y00789968D01*
X00941070Y00491750D02*
X00944771Y00495451D01*
X01249622Y00527129D02*
X01285000Y00491750D01*
X01172364Y00527129D02*
X01249622D01*
X01171800Y00527693D02*
X01172364Y00527129D01*
X01171800Y00527693D02*
Y00533864D01*
X00909050Y00613771D02*
Y00759410D01*
X01133742Y00520159D02*
Y00533822D01*
X01133700Y00533864D02*
X01133742Y00533822D01*
X00244750Y00606500D02*
X00339000Y00512250D01*
D16*
X00073940Y01275240D02*
Y01331390D01*
Y01169830D02*
Y01275240D01*
Y00745650D02*
Y00852330D01*
Y00703739D02*
Y00745650D01*
Y01331390D02*
X00128549Y01386000D01*
X00073940Y00703739D02*
X00103229Y00674450D01*
X00517000Y00706000D02*
X00557000D01*
X00103229Y00674450D02*
X00485450D01*
X00557000Y00706000D02*
X00597000D01*
X00128549Y01386000D02*
X00135500D01*
X00485450Y00674450D02*
X00517000Y00706000D01*
X00073940Y00959010D02*
Y01064420D01*
Y01169830D01*
Y00852330D02*
Y00959010D01*
D17*
X00654801Y01104250D02*
X00698450Y01060600D01*
X00578350Y01104250D02*
X00654801D01*
X00534701Y01060600D02*
X00578350Y01104250D01*
X00698450Y01060600D02*
Y01467000D01*
X00433750Y01060600D02*
X00534701D01*
X00433750D02*
Y01467000D01*
D18*
X00339000Y00491750D02*
Y00512250D01*
D20*
X01164250Y01089450D02*
D03*
X01877500Y00911810D02*
D03*
X01271750D02*
D03*
X00704930Y00912810D02*
D03*
X01369750Y00518450D02*
D03*
X00771500D02*
D03*
D21*
X01164250Y01064050D02*
D03*
X01877500Y00886410D02*
D03*
X01271750D02*
D03*
X00704930Y00887410D02*
D03*
X00771500Y00493050D02*
D03*
X01369750D02*
D03*
X00951000Y01326450D02*
D03*
D22*
X01765400Y01426500D02*
D03*
X00876250Y01060600D02*
D03*
X01740000Y01426500D02*
D03*
Y01172500D02*
D03*
X00997950Y01268750D02*
D03*
X01486000Y01426500D02*
D03*
X00680750Y00581750D02*
D03*
X01613000Y01426500D02*
D03*
X01511400D02*
D03*
X01285000Y00581750D02*
D03*
X01765400Y01172500D02*
D03*
X01892500Y00581750D02*
D03*
X01435200Y01426500D02*
D03*
X00284500Y01480000D02*
D03*
X00095500D02*
D03*
X01409800Y01426500D02*
D03*
X01460600D02*
D03*
X01536800D02*
D03*
X01562200D02*
D03*
X01587600D02*
D03*
X01638400D02*
D03*
X01663800D02*
D03*
X01689200D02*
D03*
X01714600D02*
D03*
X01409800Y01172500D02*
D03*
X01435200D02*
D03*
X01460600D02*
D03*
X01486000D02*
D03*
X01511400D02*
D03*
X01536800D02*
D03*
X01562200D02*
D03*
X01587600D02*
D03*
X01613000D02*
D03*
X01638400D02*
D03*
X01663800D02*
D03*
X01689200D02*
D03*
X01714600D02*
D03*
X00698450Y01467000D02*
D03*
Y01060600D02*
D03*
X00433750Y01467000D02*
D03*
Y01060600D02*
D03*
X00876250Y01467000D02*
D03*
X01041000Y01268750D02*
D03*
X00611550Y01467000D02*
D03*
X00637540Y00581750D02*
D03*
Y00491750D02*
D03*
X00941750Y00936980D02*
D03*
X01548000Y00945230D02*
D03*
X00393780Y00937980D02*
D03*
X01546860Y00581750D02*
D03*
Y00491750D02*
D03*
X00941070Y00581750D02*
D03*
Y00491750D02*
D03*
X00339000Y00581750D02*
D03*
X01245250Y00491750D02*
D03*
Y00581750D02*
D03*
X01285000Y00491750D02*
D03*
X00680750D02*
D03*
X00339000D02*
D03*
X01855470Y00581750D02*
D03*
Y00491750D02*
D03*
X01892500D02*
D03*
X01041000Y01358750D02*
D03*
X00997950D02*
D03*
X00611550Y01060600D02*
D03*
D23*
X01230675Y01249400D02*
D03*
X01808040Y00946730D02*
D03*
X01208870Y00938480D02*
D03*
X01151275Y01249400D02*
D03*
Y01198600D02*
D03*
X00640160Y00939480D02*
D03*
X01151275Y01224000D02*
D03*
X01230675Y01274800D02*
D03*
Y01300200D02*
D03*
X01151275D02*
D03*
Y01274800D02*
D03*
Y01173200D02*
D03*
Y01147800D02*
D03*
X01230675Y01173200D02*
D03*
Y01224000D02*
D03*
Y01147800D02*
D03*
Y01198600D02*
D03*
X01235000Y01345750D02*
D03*
X01808040Y00845130D02*
D03*
X01208870Y00836880D02*
D03*
X01145000Y01345750D02*
D03*
X00640160Y00837880D02*
D03*
X01731840Y00946730D02*
D03*
X01132670Y00938480D02*
D03*
X00563960Y00939480D02*
D03*
X00431330Y00968690D02*
D03*
X00521330D02*
D03*
Y00853120D02*
D03*
X00431330D02*
D03*
X01132670Y00963880D02*
D03*
Y00913080D02*
D03*
Y00887680D02*
D03*
Y00862280D02*
D03*
Y00836880D02*
D03*
Y00811480D02*
D03*
X01208870D02*
D03*
Y00963880D02*
D03*
Y00913080D02*
D03*
Y00862280D02*
D03*
Y00887680D02*
D03*
X01589300Y00804500D02*
D03*
X01808040Y00972130D02*
D03*
Y00819730D02*
D03*
X01731840D02*
D03*
Y00845130D02*
D03*
Y00870530D02*
D03*
Y00895930D02*
D03*
Y00921330D02*
D03*
Y00972130D02*
D03*
X01808040Y00895930D02*
D03*
Y00921330D02*
D03*
Y00870530D02*
D03*
X00524030Y00907730D02*
D03*
Y00797240D02*
D03*
X01079450Y00906730D02*
D03*
Y00796240D02*
D03*
X00986750Y00852120D02*
D03*
X01076750D02*
D03*
X00986750Y00967690D02*
D03*
X01076750D02*
D03*
X01693000Y00975940D02*
D03*
X01603000D02*
D03*
X01598000Y00855000D02*
D03*
X01688000D02*
D03*
X01695700Y00914980D02*
D03*
X00563960Y00863280D02*
D03*
X00640160Y00914080D02*
D03*
Y00888680D02*
D03*
Y00863280D02*
D03*
X00563960Y00964880D02*
D03*
Y00914080D02*
D03*
Y00888680D02*
D03*
Y00837880D02*
D03*
Y00812480D02*
D03*
X00640160D02*
D03*
Y00964880D02*
D03*
D24*
X01867550Y00618750D02*
D03*
X01258550D02*
D03*
X00655050Y00619750D02*
D03*
X00123940Y01275240D02*
D03*
Y01169830D02*
D03*
Y01064420D02*
D03*
Y00852330D02*
D03*
Y00745650D02*
D03*
Y00959010D02*
D03*
X00365840Y00760410D02*
D03*
X00909050Y00759410D02*
D03*
X01515300Y00766000D02*
D03*
D25*
X01660950Y00618751D02*
D03*
X01065700Y00619750D02*
D03*
X00468450D02*
D03*
X00203950Y00517500D02*
D03*
D26*
X00951000Y01301050D02*
D03*
D27*
X00680450Y00619750D02*
D03*
X01283950Y00618750D02*
D03*
X01635550Y00618751D02*
D03*
X01040300Y00619750D02*
D03*
X00443050D02*
D03*
X01892950Y00618750D02*
D03*
X00073940Y01275240D02*
D03*
Y01169830D02*
D03*
Y00745650D02*
D03*
Y00852330D02*
D03*
Y00959010D02*
D03*
Y01064420D02*
D03*
X00178550Y00517500D02*
D03*
X00391240Y00760410D02*
D03*
X00934450Y00759410D02*
D03*
X01540700Y00766000D02*
D03*
D28*
X00244500Y01386000D02*
D03*
D29*
X00135500D02*
D03*
D30*
X00250000Y00930000D02*
D03*
Y01230000D02*
D03*
D31*
X01768500Y00260000D02*
D03*
X01166500D02*
D03*
X00558000D02*
D03*
D32*
X00941750Y00828220D02*
D03*
X01548000Y00836470D02*
D03*
X00393780Y00829220D02*
D03*
D33*
X01684700Y00804500D02*
D03*
D34*
X00428630Y00907730D02*
D03*
Y00797240D02*
D03*
X00984050Y00906730D02*
D03*
Y00796240D02*
D03*
X01600300Y00914980D02*
D03*
D35*
X00050000Y01450000D02*
D03*
X01950000D02*
D03*
Y00050000D02*
D03*
X00050000D02*
D03*
D36*
X00861568Y00731266D02*
D03*
X01005840Y01007110D02*
D03*
X01252728Y01005078D02*
D03*
X01468628Y01375410D02*
D03*
X01617218Y01368806D02*
D03*
X01345250Y01420250D02*
D03*
X01344930Y00564388D02*
D03*
X00871000Y00969500D02*
D03*
X01610250Y01326750D02*
D03*
X00553000Y00497500D02*
D03*
X01338834Y00673634D02*
D03*
X00736750Y00609750D02*
D03*
X01188974Y01396232D02*
D03*
X01833250Y01467250D02*
D03*
X00883666Y00928116D02*
D03*
X01114000Y00597000D02*
D03*
X00746750Y00658750D02*
D03*
X01752750Y00500250D02*
D03*
X00509500Y00597250D02*
D03*
X01484122Y00817626D02*
D03*
X01026922Y00935750D02*
D03*
X00798068Y00662686D02*
D03*
X01152750Y00499250D02*
D03*
X00517000Y00706000D02*
D03*
X00557000D02*
D03*
X00244750Y00606500D02*
D03*
X00909066Y00879094D02*
D03*
X01132250Y00769750D02*
D03*
X00597000Y00706000D02*
D03*
X01338834Y01090441D02*
D03*
X01712250Y00594000D02*
D03*
X01257000Y01062500D02*
D03*
X01600875Y00502031D02*
D03*
X01886515Y00537250D02*
D03*
D37*
X01758350Y00582136D02*
D03*
X01745650D02*
D03*
X01159100D02*
D03*
X01146400D02*
D03*
X00559850Y00583136D02*
D03*
X00547150D02*
D03*
X01758350Y00533864D02*
D03*
X01745650D02*
D03*
X01159100D02*
D03*
X01146400D02*
D03*
X00559850Y00534864D02*
D03*
X00547150D02*
D03*
X01171800Y00582136D02*
D03*
Y00533864D02*
D03*
X01133700D02*
D03*
X00534450Y00534864D02*
D03*
X00572550D02*
D03*
Y00583136D02*
D03*
X01732950Y00533864D02*
D03*
X01771050D02*
D03*
Y00582136D02*
D03*
D38*
X01732950D02*
D03*
X01133700D02*
D03*
X00534450Y00583136D02*
D03*
M02*
