G04*
G04 #@! TF.GenerationSoftware,Altium Limited,Altium Designer,26.5.1 (12)*
G04*
G04 Layer_Physical_Order=1*
G04 Layer_Color=255*
G04 Board_Origin=0|0*
%FSAX44Y44*%
%MOMM*%
G71*
G04*
G04 #@! TF.SameCoordinates,FFD33971-F2C9-4EE1-B0C8-4C979594E6AF*
G04*
G04*
G04 #@! TF.FilePolarity,Positive*
G04*
G01*
G75*
%ADD10R,1.0000X1.0000*%
%ADD11R,6.2000X2.7000*%
%ADD12R,10.8000X9.4000*%
%ADD13R,0.8000X4.6000*%
%ADD14C,0.6000*%
%ADD15C,5.0000*%
%ADD16C,2.5400*%
%ADD17C,0.8000*%
%ADD18C,0.5000*%
%ADD19C,10.0000*%
%AMCUSTOMSHAPE20*
4,1,8,-0.9500,0.9000,-1.4000,0.4500,-1.4000,-0.4500,-0.9500,-0.9000,0.9500,-0.9000,1.4000,-0.4500,1.4000,0.4500,0.9500,0.9000,-0.9500,0.9000,0.0*%
%ADD20CUSTOMSHAPE20*%

G04:AMPARAMS|DCode=21|XSize=1.8mm|YSize=2.8mm|CornerRadius=0.45mm|HoleSize=0mm|Usage=FLASHONLY|Rotation=270.000|XOffset=0mm|YOffset=0mm|HoleType=Round|Shape=RoundedRectangle|*
%AMROUNDEDRECTD21*
21,1,1.8000,1.9000,0,0,270.0*
21,1,0.9000,2.8000,0,0,270.0*
1,1,0.9000,-0.9500,-0.4500*
1,1,0.9000,-0.9500,0.4500*
1,1,0.9000,0.9500,0.4500*
1,1,0.9000,0.9500,-0.4500*
%
%ADD21ROUNDEDRECTD21*%
G04:AMPARAMS|DCode=22|XSize=2.8mm|YSize=1.8mm|CornerRadius=0.45mm|HoleSize=0mm|Usage=FLASHONLY|Rotation=90.000|XOffset=0mm|YOffset=0mm|HoleType=Round|Shape=RoundedRectangle|*
%AMROUNDEDRECTD22*
21,1,2.8000,0.9000,0,0,90.0*
21,1,1.9000,1.8000,0,0,90.0*
1,1,0.9000,0.4500,0.9500*
1,1,0.9000,0.4500,-0.9500*
1,1,0.9000,-0.4500,-0.9500*
1,1,0.9000,-0.4500,0.9500*
%
%ADD22ROUNDEDRECTD22*%
G04:AMPARAMS|DCode=23|XSize=2.8mm|YSize=1.8mm|CornerRadius=0.45mm|HoleSize=0mm|Usage=FLASHONLY|Rotation=180.000|XOffset=0mm|YOffset=0mm|HoleType=Round|Shape=RoundedRectangle|*
%AMROUNDEDRECTD23*
21,1,2.8000,0.9000,0,0,180.0*
21,1,1.9000,1.8000,0,0,180.0*
1,1,0.9000,-0.9500,0.4500*
1,1,0.9000,0.9500,0.4500*
1,1,0.9000,0.9500,-0.4500*
1,1,0.9000,-0.9500,-0.4500*
%
%ADD23ROUNDEDRECTD23*%
%AMCUSTOMSHAPE24*
4,1,8,-0.9000,-0.9500,-0.4500,-1.4000,0.4500,-1.4000,0.9000,-0.9500,0.9000,0.9500,0.4500,1.4000,-0.4500,1.4000,-0.9000,0.9500,-0.9000,-0.9500,0.0*%
%ADD24CUSTOMSHAPE24*%

%AMCUSTOMSHAPE25*
4,1,8,0.9000,0.9500,0.4500,1.4000,-0.4500,1.4000,-0.9000,0.9500,-0.9000,-0.9500,-0.4500,-1.4000,0.4500,-1.4000,0.9000,-0.9500,0.9000,0.9500,0.0*%
%ADD25CUSTOMSHAPE25*%

%AMCUSTOMSHAPE26*
4,1,8,0.9500,-0.9000,1.4000,-0.4500,1.4000,0.4500,0.9500,0.9000,-0.9500,0.9000,-1.4000,0.4500,-1.4000,-0.4500,-0.9500,-0.9000,0.9500,-0.9000,0.0*%
%ADD26CUSTOMSHAPE26*%

G04:AMPARAMS|DCode=27|XSize=1.8mm|YSize=2.8mm|CornerRadius=0.45mm|HoleSize=0mm|Usage=FLASHONLY|Rotation=0.000|XOffset=0mm|YOffset=0mm|HoleType=Round|Shape=RoundedRectangle|*
%AMROUNDEDRECTD27*
21,1,1.8000,1.9000,0,0,0.0*
21,1,0.9000,2.8000,0,0,0.0*
1,1,0.9000,0.4500,-0.9500*
1,1,0.9000,-0.4500,-0.9500*
1,1,0.9000,-0.4500,0.9500*
1,1,0.9000,0.4500,0.9500*
%
%ADD27ROUNDEDRECTD27*%
%AMCUSTOMSHAPE28*
4,1,8,3.0000,2.7500,1.5000,4.2500,-1.5000,4.2500,-3.0000,2.7500,-3.0000,-2.7500,-1.5000,-4.2500,1.5000,-4.2500,3.0000,-2.7500,3.0000,2.7500,0.0*%
%ADD28CUSTOMSHAPE28*%

G04:AMPARAMS|DCode=29|XSize=6mm|YSize=8.5mm|CornerRadius=1.5mm|HoleSize=0mm|Usage=FLASHONLY|Rotation=180.000|XOffset=0mm|YOffset=0mm|HoleType=Round|Shape=RoundedRectangle|*
%AMROUNDEDRECTD29*
21,1,6.0000,5.5000,0,0,180.0*
21,1,3.0000,8.5000,0,0,180.0*
1,1,3.0000,-1.5000,2.7500*
1,1,3.0000,1.5000,2.7500*
1,1,3.0000,1.5000,-2.7500*
1,1,3.0000,-1.5000,-2.7500*
%
%ADD29ROUNDEDRECTD29*%
G04:AMPARAMS|DCode=30|XSize=12mm|YSize=12mm|CornerRadius=3mm|HoleSize=0mm|Usage=FLASHONLY|Rotation=270.000|XOffset=0mm|YOffset=0mm|HoleType=Round|Shape=RoundedRectangle|*
%AMROUNDEDRECTD30*
21,1,12.0000,6.0000,0,0,270.0*
21,1,6.0000,12.0000,0,0,270.0*
1,1,6.0000,-3.0000,-3.0000*
1,1,6.0000,-3.0000,3.0000*
1,1,6.0000,3.0000,3.0000*
1,1,6.0000,3.0000,-3.0000*
%
%ADD30ROUNDEDRECTD30*%
%ADD31C,10.0000*%
%AMCUSTOMSHAPE32*
4,1,8,0.9000,-0.9500,0.4500,-1.4000,-0.4500,-1.4000,-0.9000,-0.9500,-0.9000,0.9500,-0.4500,1.4000,0.4500,1.4000,0.9000,0.9500,0.9000,-0.9500,0.0*%
%ADD32CUSTOMSHAPE32*%

%AMCUSTOMSHAPE33*
4,1,8,0.9500,0.9000,1.4000,0.4500,1.4000,-0.4500,0.9500,-0.9000,-0.9500,-0.9000,-1.4000,-0.4500,-1.4000,0.4500,-0.9500,0.9000,0.9500,0.9000,0.0*%
%ADD33CUSTOMSHAPE33*%

%AMCUSTOMSHAPE34*
4,1,8,-0.9500,-0.9000,-1.4000,-0.4500,-1.4000,0.4500,-0.9500,0.9000,0.9500,0.9000,1.4000,0.4500,1.4000,-0.4500,0.9500,-0.9000,-0.9500,-0.9000,0.0*%
%ADD34CUSTOMSHAPE34*%

%ADD35C,6.5000*%
%ADD36C,2.5000*%
G36*
X00259859Y01500061D02*
X00260902Y01498319D01*
X00260504Y01497575D01*
X00259304Y01493617D01*
X00258898Y01489500D01*
Y01470500D01*
X00259304Y01466383D01*
X00260504Y01462425D01*
X00262454Y01458777D01*
X00265079Y01455579D01*
X00268276Y01452955D01*
X00271925Y01451005D01*
X00275883Y01449804D01*
X00280000Y01449398D01*
X00289000D01*
X00293116Y01449804D01*
X00297075Y01451005D01*
X00300723Y01452955D01*
X00303921Y01455579D01*
X00306545Y01458777D01*
X00308495Y01462425D01*
X00309696Y01466383D01*
X00310101Y01470500D01*
Y01489500D01*
X00309696Y01493617D01*
X00308495Y01497575D01*
X00308104Y01498306D01*
X00309148Y01500047D01*
X00922000Y01499881D01*
Y01339010D01*
X00920804Y01335067D01*
X00920398Y01330950D01*
Y01321950D01*
X00920804Y01317833D01*
X00921870Y01314320D01*
X00921342Y01313139D01*
X00919072Y01312685D01*
X00864445Y01367312D01*
Y01409335D01*
X00865562Y01410289D01*
X00868547Y01413784D01*
X00870948Y01417702D01*
X00872707Y01421949D01*
X00873492Y01425220D01*
X00885168Y01436896D01*
X00888825Y01438005D01*
X00892474Y01439955D01*
X00895671Y01442579D01*
X00898296Y01445777D01*
X00900246Y01449425D01*
X00900754Y01451102D01*
X00902348Y01453703D01*
X00904107Y01457949D01*
X00905180Y01462418D01*
X00905540Y01467000D01*
X00905180Y01471582D01*
X00904107Y01476052D01*
X00902348Y01480298D01*
X00900754Y01482899D01*
X00900246Y01484576D01*
X00898296Y01488224D01*
X00895671Y01491422D01*
X00892474Y01494046D01*
X00888825Y01495996D01*
X00884867Y01497197D01*
X00880750Y01497602D01*
X00871750D01*
X00867634Y01497197D01*
X00863675Y01495996D01*
X00860027Y01494046D01*
X00856829Y01491422D01*
X00855298Y01489556D01*
X00853139Y01487712D01*
X00825717Y01460290D01*
X00659682D01*
X00635610Y01484363D01*
X00635546Y01484575D01*
X00633596Y01488223D01*
X00630971Y01491421D01*
X00627774Y01494045D01*
X00624125Y01495995D01*
X00620167Y01497196D01*
X00616050Y01497601D01*
X00607050D01*
X00602934Y01497196D01*
X00598975Y01495995D01*
X00595327Y01494045D01*
X00592129Y01491421D01*
X00589505Y01488223D01*
X00587555Y01484575D01*
X00587491Y01484363D01*
X00339619Y01236491D01*
X00336634Y01232997D01*
X00334232Y01229078D01*
X00332473Y01224831D01*
X00331400Y01220362D01*
X00331040Y01215780D01*
Y00870462D01*
X00235518Y00774940D01*
X00165529D01*
Y00852330D01*
Y00959010D01*
Y01064420D01*
Y01066773D01*
X00167404Y01067550D01*
X00208411Y01026543D01*
Y01005106D01*
X00207939Y01005012D01*
X00202167Y01003053D01*
X00196700Y01000357D01*
X00191632Y00996970D01*
X00187049Y00992951D01*
X00183030Y00988368D01*
X00179643Y00983300D01*
X00176947Y00977833D01*
X00174988Y00972061D01*
X00173799Y00966083D01*
X00173400Y00960000D01*
Y00900000D01*
X00173799Y00893918D01*
X00174988Y00887939D01*
X00176947Y00882167D01*
X00179643Y00876700D01*
X00183030Y00871632D01*
X00187049Y00867049D01*
X00191632Y00863030D01*
X00196700Y00859644D01*
X00202167Y00856948D01*
X00207939Y00854988D01*
X00213918Y00853799D01*
X00220000Y00853400D01*
X00280000D01*
X00286082Y00853799D01*
X00292061Y00854988D01*
X00297833Y00856948D01*
X00303300Y00859644D01*
X00308368Y00863030D01*
X00312951Y00867049D01*
X00316970Y00871632D01*
X00320357Y00876700D01*
X00323053Y00882167D01*
X00325012Y00887939D01*
X00326201Y00893918D01*
X00326600Y00900000D01*
Y00960000D01*
X00326201Y00966083D01*
X00325012Y00972061D01*
X00323053Y00977833D01*
X00320357Y00983300D01*
X00316970Y00988368D01*
X00312951Y00992951D01*
X00308368Y00996970D01*
X00303300Y01000357D01*
X00297833Y01003053D01*
X00292061Y01005012D01*
X00291589Y01005106D01*
Y01043770D01*
X00291233Y01049198D01*
X00290172Y01054534D01*
X00288423Y01059685D01*
X00286017Y01064564D01*
X00282995Y01069088D01*
X00279408Y01073178D01*
X00192732Y01159853D01*
X00194026Y01161430D01*
X00196700Y01159643D01*
X00202167Y01156947D01*
X00207939Y01154988D01*
X00213918Y01153799D01*
X00220000Y01153400D01*
X00280000D01*
X00286082Y01153799D01*
X00292061Y01154988D01*
X00297833Y01156947D01*
X00303300Y01159643D01*
X00308368Y01163030D01*
X00312951Y01167049D01*
X00316970Y01171632D01*
X00320357Y01176700D01*
X00323053Y01182167D01*
X00325012Y01187939D01*
X00326201Y01193918D01*
X00326600Y01200000D01*
Y01260000D01*
X00326201Y01266083D01*
X00325012Y01272061D01*
X00323053Y01277833D01*
X00320357Y01283300D01*
X00316970Y01288368D01*
X00312951Y01292951D01*
X00311105Y01294570D01*
Y01386000D01*
X00310686Y01393458D01*
X00309435Y01400821D01*
X00307367Y01407998D01*
X00304509Y01414899D01*
X00300896Y01421436D01*
X00296574Y01427528D01*
X00291597Y01433097D01*
X00286027Y01438074D01*
X00279936Y01442396D01*
X00273399Y01446009D01*
X00266498Y01448867D01*
X00259321Y01450935D01*
X00251957Y01452186D01*
X00244500Y01452605D01*
X00237043Y01452186D01*
X00229679Y01450935D01*
X00222502Y01448867D01*
X00215601Y01446009D01*
X00209064Y01442396D01*
X00202973Y01438074D01*
X00197403Y01433097D01*
X00192426Y01427528D01*
X00188104Y01421436D01*
X00184491Y01414899D01*
X00181633Y01407998D01*
X00179565Y01400821D01*
X00178314Y01393458D01*
X00177895Y01386000D01*
Y01279755D01*
X00176947Y01277833D01*
X00174988Y01272061D01*
X00173799Y01266083D01*
X00173400Y01260000D01*
Y01200000D01*
X00173799Y01193918D01*
X00174988Y01187939D01*
X00176947Y01182167D01*
X00179643Y01176700D01*
X00181430Y01174026D01*
X00179853Y01172732D01*
X00165529Y01187057D01*
Y01275240D01*
X00165173Y01280668D01*
X00164112Y01286004D01*
X00162363Y01291156D01*
X00159957Y01296035D01*
X00156935Y01300558D01*
X00153348Y01304648D01*
X00149258Y01308235D01*
X00144734Y01311257D01*
X00139855Y01313663D01*
X00134704Y01315412D01*
X00129368Y01316473D01*
X00123940Y01316829D01*
X00118511Y01316473D01*
X00113176Y01315412D01*
X00108024Y01313663D01*
X00103145Y01311257D01*
X00098622Y01308235D01*
X00094532Y01304648D01*
X00090945Y01300558D01*
X00087923Y01296035D01*
X00085517Y01291156D01*
X00083768Y01286004D01*
X00082707Y01280668D01*
X00082351Y01275240D01*
Y01169830D01*
Y01064420D01*
Y00959010D01*
Y00852330D01*
Y00745650D01*
Y00519000D01*
Y00396060D01*
X00082351Y00396060D01*
X00082351Y00396059D01*
X00082549Y00393042D01*
X00082707Y00390632D01*
X00082707Y00390631D01*
X00082707Y00390631D01*
X00082734Y00390495D01*
X00084028Y00087810D01*
X00082001Y00087208D01*
X00077281Y00090829D01*
X00071719Y00094041D01*
X00065784Y00096499D01*
X00059580Y00098161D01*
X00053211Y00099000D01*
X00046788D01*
X00040420Y00098161D01*
X00034216Y00096499D01*
X00028281Y00094041D01*
X00022719Y00090829D01*
X00017623Y00086919D01*
X00013081Y00082377D01*
X00009171Y00077281D01*
X00005959Y00071719D01*
X00003501Y00065784D01*
X00002030Y00060295D01*
X00000000Y00060562D01*
Y01439438D01*
X00002030Y01439705D01*
X00003501Y01434216D01*
X00005959Y01428282D01*
X00009171Y01422719D01*
X00013081Y01417623D01*
X00017623Y01413081D01*
X00022719Y01409171D01*
X00028281Y01405959D01*
X00034216Y01403501D01*
X00040420Y01401839D01*
X00046788Y01401000D01*
X00053211D01*
X00059580Y01401839D01*
X00065784Y01403501D01*
X00071719Y01405959D01*
X00077281Y01409171D01*
X00082377Y01413081D01*
X00086919Y01417623D01*
X00090829Y01422719D01*
X00094041Y01428282D01*
X00096499Y01434216D01*
X00098161Y01440420D01*
X00099000Y01446788D01*
Y01449398D01*
X00100000D01*
X00104117Y01449804D01*
X00108075Y01451005D01*
X00111723Y01452955D01*
X00114921Y01455579D01*
X00117545Y01458777D01*
X00119495Y01462425D01*
X00120696Y01466383D01*
X00121102Y01470500D01*
Y01489500D01*
X00120696Y01493617D01*
X00119495Y01497575D01*
X00119077Y01498358D01*
X00120121Y01500099D01*
X00259859Y01500061D01*
D02*
G37*
G36*
X01318210Y01110829D02*
X01316714Y01109333D01*
X01314031Y01105641D01*
X01311959Y01101573D01*
X01310548Y01097232D01*
X01309834Y01092724D01*
Y01088159D01*
X01310548Y01083651D01*
X01311959Y01079309D01*
X01314031Y01075242D01*
X01316714Y01071549D01*
X01319942Y01068321D01*
X01323635Y01065638D01*
X01327702Y01063566D01*
X01330498Y01062657D01*
X01331054Y01060342D01*
X01241116Y00970405D01*
X01239205Y00971088D01*
X01239066Y00972496D01*
X01237865Y00976455D01*
X01235915Y00980103D01*
X01233291Y00983301D01*
X01230093Y00985925D01*
X01226445Y00987875D01*
X01222486Y00989076D01*
X01218370Y00989481D01*
X01199370D01*
X01195253Y00989076D01*
X01191295Y00987875D01*
X01187646Y00985925D01*
X01184449Y00983301D01*
X01181824Y00980103D01*
X01179874Y00976455D01*
X01178674Y00972496D01*
X01178268Y00968380D01*
Y00967220D01*
X01176252Y00966318D01*
X01175264Y00967100D01*
Y00974709D01*
X01174888Y00978531D01*
X01173773Y00982207D01*
X01171962Y00985595D01*
X01169525Y00988564D01*
X01123869Y01034220D01*
Y01128816D01*
X01125899Y01129542D01*
X01126854Y01128379D01*
X01130051Y01125755D01*
X01133700Y01123805D01*
X01137658Y01122604D01*
X01141775Y01122198D01*
X01160775D01*
X01164892Y01122604D01*
X01168850Y01123805D01*
X01169226Y01124006D01*
X01169983Y01122589D01*
X01172420Y01119620D01*
X01228000Y01064039D01*
Y01060218D01*
X01228714Y01055709D01*
X01230125Y01051368D01*
X01231577Y01048517D01*
X01230333Y01046487D01*
X01209523D01*
X01194852Y01061159D01*
Y01068550D01*
X01194446Y01072666D01*
X01193245Y01076625D01*
X01191295Y01080273D01*
X01188671Y01083471D01*
X01185473Y01086095D01*
X01181825Y01088045D01*
X01177867Y01089246D01*
X01173750Y01089651D01*
X01154750D01*
X01150633Y01089246D01*
X01146675Y01088045D01*
X01143027Y01086095D01*
X01139829Y01083471D01*
X01137205Y01080273D01*
X01135255Y01076625D01*
X01134054Y01072666D01*
X01133648Y01068550D01*
Y01059550D01*
X01134054Y01055433D01*
X01135255Y01051475D01*
X01137205Y01047826D01*
X01139829Y01044629D01*
X01143027Y01042004D01*
X01146675Y01040054D01*
X01150633Y01038854D01*
X01154750Y01038448D01*
X01162141D01*
X01187551Y01013038D01*
X01190521Y01010601D01*
X01193908Y01008790D01*
X01197584Y01007675D01*
X01201407Y01007299D01*
X01251799D01*
X01255621Y01007675D01*
X01259297Y01008790D01*
X01262685Y01010601D01*
X01265654Y01013038D01*
X01292355Y01039739D01*
X01294792Y01042708D01*
X01296603Y01046096D01*
X01297718Y01049772D01*
X01298094Y01053594D01*
Y01071406D01*
X01297718Y01075228D01*
X01296603Y01078904D01*
X01294792Y01082292D01*
X01292355Y01085261D01*
X01259165Y01118451D01*
X01256196Y01120888D01*
X01252809Y01122698D01*
X01251327Y01123148D01*
X01251112Y01125334D01*
X01251899Y01125755D01*
X01255096Y01128379D01*
X01257720Y01131577D01*
X01259670Y01135225D01*
X01260871Y01139183D01*
X01261277Y01143300D01*
Y01152300D01*
X01260871Y01156417D01*
X01259670Y01160375D01*
X01259604Y01160500D01*
X01259670Y01160625D01*
X01260871Y01164583D01*
X01260960Y01165484D01*
X01262871Y01166168D01*
X01318210Y01110829D01*
D02*
G37*
G36*
X00626839Y01410289D02*
X00630334Y01407304D01*
X00634253Y01404902D01*
X00638499Y01403143D01*
X00642968Y01402070D01*
X00647550Y01401710D01*
X00825256D01*
Y01359196D01*
X00825632Y01355374D01*
X00826747Y01351698D01*
X00828558Y01348310D01*
X00830995Y01345341D01*
X00922000Y01254336D01*
Y01021750D01*
X00884690D01*
X00878317Y01028123D01*
X00879094Y01029999D01*
X00880750D01*
X00884867Y01030404D01*
X00888825Y01031605D01*
X00892474Y01033555D01*
X00895671Y01036179D01*
X00898296Y01039377D01*
X00900246Y01043025D01*
X00901446Y01046984D01*
X00901852Y01051100D01*
Y01070100D01*
X00901446Y01074217D01*
X00900246Y01078176D01*
X00898296Y01081824D01*
X00895671Y01085022D01*
X00892474Y01087646D01*
X00888825Y01089596D01*
X00884867Y01090797D01*
X00880750Y01091202D01*
X00871750D01*
X00867634Y01090797D01*
X00863675Y01089596D01*
X00860027Y01087646D01*
X00856829Y01085022D01*
X00854205Y01081824D01*
X00852255Y01078176D01*
X00851054Y01074217D01*
X00850649Y01070100D01*
Y01058444D01*
X00848773Y01057667D01*
X00783113Y01123327D01*
X00780144Y01125764D01*
X00776756Y01127575D01*
X00773081Y01128690D01*
X00769258Y01129066D01*
X00584200D01*
X00580377Y01128690D01*
X00576702Y01127575D01*
X00573314Y01125764D01*
X00570345Y01123327D01*
X00528895Y01081878D01*
X00526458Y01078908D01*
X00524647Y01075521D01*
X00523532Y01071845D01*
X00523156Y01068022D01*
Y01021750D01*
X00389620D01*
Y01203648D01*
X00611550Y01425577D01*
X00626839Y01410289D01*
D02*
G37*
G36*
X00827394Y01023625D02*
X00826617Y01021750D01*
X00631145D01*
Y01036390D01*
X00633596Y01039376D01*
X00635546Y01043025D01*
X00636746Y01046983D01*
X00637152Y01051100D01*
Y01070100D01*
X00636746Y01074217D01*
X00635546Y01078175D01*
X00633596Y01081823D01*
X00630971Y01085021D01*
X00627774Y01087645D01*
X00627395Y01087848D01*
X00627903Y01089878D01*
X00761142D01*
X00827394Y01023625D01*
D02*
G37*
G36*
X01414964Y01129708D02*
X01418352Y01127897D01*
X01422027Y01126782D01*
X01425850Y01126406D01*
X01700844D01*
X01765446Y01061804D01*
Y00952640D01*
X01763567Y00951801D01*
X01762291Y00952763D01*
X01762036Y00955346D01*
X01760835Y00959305D01*
X01760769Y00959430D01*
X01760835Y00959554D01*
X01762036Y00963513D01*
X01762442Y00967630D01*
Y00976630D01*
X01762036Y00980746D01*
X01760835Y00984705D01*
X01758885Y00988353D01*
X01756261Y00991551D01*
X01753064Y00994175D01*
X01749415Y00996125D01*
X01745457Y00997326D01*
X01741340Y00997731D01*
X01722340D01*
X01718223Y00997326D01*
X01715889Y00996618D01*
X01714223Y00997985D01*
X01710575Y00999935D01*
X01706617Y01001136D01*
X01702500Y01001541D01*
X01683500D01*
X01679383Y01001136D01*
X01675425Y00999935D01*
X01671776Y00997985D01*
X01668579Y00995361D01*
X01665955Y00992163D01*
X01664005Y00988515D01*
X01662804Y00984556D01*
X01662398Y00980440D01*
Y00971440D01*
X01662804Y00967323D01*
X01664005Y00963364D01*
X01665955Y00959716D01*
X01668579Y00956519D01*
X01671776Y00953894D01*
X01673406Y00953024D01*
Y00946564D01*
X01673782Y00942741D01*
X01674897Y00939066D01*
X01675652Y00937653D01*
X01674476Y00937025D01*
X01671279Y00934401D01*
X01668655Y00931203D01*
X01666705Y00927555D01*
X01665504Y00923596D01*
X01665098Y00919480D01*
Y00910480D01*
X01665504Y00906363D01*
X01666705Y00902404D01*
X01668420Y00899194D01*
X01667638Y00897164D01*
X01627025D01*
X01626384Y00899194D01*
X01628086Y00901268D01*
X01629618Y00904135D01*
X01630561Y00907245D01*
X01630880Y00910480D01*
Y00919480D01*
X01630561Y00922714D01*
X01629618Y00925824D01*
X01628086Y00928691D01*
X01626024Y00931203D01*
X01621524Y00935703D01*
X01619982Y00936969D01*
X01621103Y00939066D01*
X01622218Y00942741D01*
X01622594Y00946564D01*
Y00953024D01*
X01624223Y00953894D01*
X01627421Y00956519D01*
X01630045Y00959716D01*
X01631995Y00963364D01*
X01633196Y00967323D01*
X01633602Y00971440D01*
Y00980440D01*
X01633196Y00984556D01*
X01631995Y00988515D01*
X01630045Y00992163D01*
X01627421Y00995361D01*
X01624223Y00997985D01*
X01620575Y00999935D01*
X01616617Y01001136D01*
X01612500Y01001541D01*
X01593500D01*
X01589383Y01001136D01*
X01585425Y00999935D01*
X01581777Y00997985D01*
X01578579Y00995361D01*
X01575955Y00992163D01*
X01574005Y00988515D01*
X01572804Y00984556D01*
X01572399Y00980440D01*
Y00971440D01*
X01572804Y00967323D01*
X01574005Y00963364D01*
X01575955Y00959716D01*
X01578579Y00956519D01*
X01581777Y00953894D01*
X01583156Y00953157D01*
X01582197Y00951362D01*
X01581082Y00947687D01*
X01580706Y00943864D01*
Y00937040D01*
X01579076Y00935703D01*
X01575263Y00931890D01*
X01573314Y00932812D01*
X01573602Y00935730D01*
Y00954730D01*
X01573196Y00958847D01*
X01571995Y00962805D01*
X01570045Y00966453D01*
X01567421Y00969651D01*
X01564223Y00972275D01*
X01560575Y00974225D01*
X01556617Y00975426D01*
X01552500Y00975832D01*
X01543500D01*
X01539383Y00975426D01*
X01535425Y00974225D01*
X01531776Y00972275D01*
X01528579Y00969651D01*
X01525955Y00966453D01*
X01524005Y00962805D01*
X01522804Y00958847D01*
X01522398Y00954730D01*
Y00935730D01*
X01522804Y00931613D01*
X01524005Y00927655D01*
X01525955Y00924007D01*
X01528579Y00920809D01*
X01531776Y00918185D01*
X01535425Y00916235D01*
X01539383Y00915034D01*
X01543500Y00914628D01*
X01552500D01*
X01556617Y00915034D01*
X01560575Y00916235D01*
X01564223Y00918185D01*
X01567421Y00920809D01*
X01567865Y00921349D01*
X01569824Y00920538D01*
X01569720Y00919480D01*
Y00910480D01*
X01570039Y00907245D01*
X01570982Y00904135D01*
X01572514Y00901268D01*
X01574217Y00899194D01*
X01573575Y00897164D01*
X01550924D01*
X01547101Y00896788D01*
X01543426Y00895673D01*
X01540038Y00893862D01*
X01537069Y00891425D01*
X01501445Y00855801D01*
X01499008Y00852832D01*
X01497197Y00849444D01*
X01496082Y00845769D01*
X01495706Y00841946D01*
Y00788353D01*
X01494576Y00787224D01*
X01492514Y00784711D01*
X01490982Y00781845D01*
X01490039Y00778735D01*
X01489720Y00775500D01*
Y00767961D01*
X01201814D01*
X01200363Y00769991D01*
X01200647Y00772874D01*
Y00785878D01*
X01218370D01*
X01222486Y00786284D01*
X01226445Y00787484D01*
X01230093Y00789434D01*
X01233291Y00792059D01*
X01235915Y00795256D01*
X01237865Y00798904D01*
X01239066Y00802863D01*
X01239471Y00806980D01*
Y00815980D01*
X01239066Y00820096D01*
X01237865Y00824055D01*
X01237798Y00824180D01*
X01237865Y00824305D01*
X01239066Y00828263D01*
X01239471Y00832380D01*
Y00841380D01*
X01239066Y00845496D01*
X01237865Y00849455D01*
X01237798Y00849580D01*
X01237865Y00849705D01*
X01239066Y00853663D01*
X01239333Y00856372D01*
X01248768Y00865808D01*
X01250527Y00864364D01*
X01254175Y00862414D01*
X01258133Y00861214D01*
X01262250Y00860808D01*
X01281250D01*
X01285367Y00861214D01*
X01289325Y00862414D01*
X01292973Y00864364D01*
X01296171Y00866989D01*
X01298795Y00870186D01*
X01300745Y00873835D01*
X01301946Y00877793D01*
X01302352Y00881910D01*
Y00890910D01*
X01301946Y00895026D01*
X01300745Y00898985D01*
X01298795Y00902633D01*
X01296171Y00905831D01*
X01292973Y00908455D01*
X01289325Y00910405D01*
X01285367Y00911606D01*
X01281250Y00912011D01*
X01266374D01*
X01265597Y00913887D01*
X01405013Y01053303D01*
X01407450Y01056272D01*
X01409261Y01059660D01*
X01410376Y01063335D01*
X01410752Y01067158D01*
Y01130538D01*
X01412782Y01131498D01*
X01414964Y01129708D01*
D02*
G37*
G36*
X00852108Y00947380D02*
X00855801Y00944697D01*
X00858791Y00943174D01*
X00856791Y00939248D01*
X00855380Y00934907D01*
X00854666Y00930398D01*
Y00926827D01*
X00810714Y00882874D01*
X00735564D01*
X00735531Y00882910D01*
Y00891910D01*
X00735126Y00896027D01*
X00733925Y00899985D01*
X00731975Y00903633D01*
X00729351Y00906831D01*
X00726153Y00909455D01*
X00722505Y00911405D01*
X00718547Y00912606D01*
X00714430Y00913011D01*
X00695430D01*
X00691313Y00912606D01*
X00687355Y00911405D01*
X00683706Y00909455D01*
X00680509Y00906831D01*
X00677884Y00903633D01*
X00675934Y00899985D01*
X00674734Y00896027D01*
X00674328Y00891910D01*
Y00882910D01*
X00674296Y00882874D01*
X00671945D01*
X00670761Y00884180D01*
Y00893180D01*
X00670356Y00897297D01*
X00669155Y00901255D01*
X00669088Y00901380D01*
X00669155Y00901505D01*
X00670356Y00905463D01*
X00670704Y00908993D01*
X00711617Y00949906D01*
X00849582D01*
X00852108Y00947380D01*
D02*
G37*
G36*
X01938772Y01497720D02*
X01934216Y01496499D01*
X01928282Y01494041D01*
X01922719Y01490830D01*
X01917623Y01486919D01*
X01913081Y01482377D01*
X01909171Y01477281D01*
X01905959Y01471719D01*
X01903501Y01465784D01*
X01901839Y01459580D01*
X01901000Y01453212D01*
Y01446788D01*
X01901839Y01440420D01*
X01903501Y01434216D01*
X01905959Y01428282D01*
X01909171Y01422719D01*
X01913081Y01417623D01*
X01917623Y01413081D01*
X01922719Y01409171D01*
X01928282Y01405959D01*
X01934216Y01403501D01*
X01940420Y01401839D01*
X01946788Y01401000D01*
X01953212D01*
X01959580Y01401839D01*
X01965784Y01403501D01*
X01971719Y01405959D01*
X01977281Y01409171D01*
X01982377Y01413081D01*
X01986919Y01417623D01*
X01990830Y01422719D01*
X01994041Y01428282D01*
X01996499Y01434216D01*
X01997720Y01438772D01*
X01999750Y01438504D01*
Y00751631D01*
X01999697Y00751503D01*
X01942545D01*
Y00840959D01*
X01942168Y00844782D01*
X01941053Y00848458D01*
X01939242Y00851845D01*
X01936806Y00854815D01*
X01908102Y00883519D01*
Y00890910D01*
X01907696Y00895026D01*
X01906495Y00898985D01*
X01904545Y00902633D01*
X01901921Y00905831D01*
X01898723Y00908455D01*
X01895075Y00910405D01*
X01891117Y00911606D01*
X01887000Y00912011D01*
X01868000D01*
X01866469Y00911861D01*
X01864965Y00913224D01*
Y00984861D01*
X01864589Y00988684D01*
X01863474Y00992360D01*
X01861663Y00995747D01*
X01859226Y00998716D01*
X01852844Y01005098D01*
Y01445832D01*
X01855370Y01448358D01*
X01858053Y01452050D01*
X01860125Y01456118D01*
X01861536Y01460459D01*
X01862250Y01464967D01*
Y01469532D01*
X01861536Y01474041D01*
X01860125Y01478382D01*
X01858053Y01482449D01*
X01855370Y01486142D01*
X01852142Y01489370D01*
X01848449Y01492053D01*
X01844382Y01494125D01*
X01840041Y01495536D01*
X01835532Y01496250D01*
X01830968D01*
X01826459Y01495536D01*
X01822118Y01494125D01*
X01818051Y01492053D01*
X01814358Y01489370D01*
X01811130Y01486142D01*
X01808447Y01482449D01*
X01806375Y01478382D01*
X01804964Y01474041D01*
X01804250Y01469532D01*
Y01464967D01*
X01804964Y01460459D01*
X01806375Y01456118D01*
X01808447Y01452050D01*
X01811130Y01448358D01*
X01813656Y01445832D01*
Y01149608D01*
X01811780Y01148831D01*
X01784654Y01175957D01*
X01784618Y01176323D01*
X01783503Y01179998D01*
X01781692Y01183386D01*
X01779255Y01186355D01*
X01778583Y01186907D01*
X01778548Y01186993D01*
X01776961Y01189061D01*
X01774893Y01190648D01*
X01772484Y01191645D01*
X01769900Y01191985D01*
X01766506D01*
X01765400Y01192094D01*
X01764294Y01191985D01*
X01760900D01*
X01758316Y01191645D01*
X01755907Y01190648D01*
X01753839Y01189061D01*
X01752253Y01186993D01*
X01752217Y01186907D01*
X01751545Y01186355D01*
X01749108Y01183386D01*
X01747297Y01179998D01*
X01746182Y01176323D01*
X01745806Y01172500D01*
Y01167500D01*
X01746182Y01163678D01*
X01747297Y01160002D01*
X01749108Y01156614D01*
X01751545Y01153645D01*
X01801656Y01103534D01*
Y01083612D01*
X01799626Y01082885D01*
X01798895Y01083775D01*
X01726409Y01156262D01*
X01727748Y01158007D01*
X01728745Y01160416D01*
X01729086Y01163000D01*
Y01182000D01*
X01728745Y01184585D01*
X01727748Y01186993D01*
X01726161Y01189061D01*
X01724093Y01190648D01*
X01721685Y01191645D01*
X01719100Y01191985D01*
X01710100D01*
X01707516Y01191645D01*
X01705107Y01190648D01*
X01703039Y01189061D01*
X01702915Y01188899D01*
X01700885D01*
X01700761Y01189061D01*
X01698693Y01190648D01*
X01696284Y01191645D01*
X01693700Y01191985D01*
X01684700D01*
X01682116Y01191645D01*
X01679707Y01190648D01*
X01677639Y01189061D01*
X01677515Y01188899D01*
X01675485D01*
X01675361Y01189061D01*
X01673293Y01190648D01*
X01670885Y01191645D01*
X01668300Y01191985D01*
X01659300D01*
X01656716Y01191645D01*
X01654307Y01190648D01*
X01652239Y01189061D01*
X01652115Y01188899D01*
X01650085D01*
X01649961Y01189061D01*
X01647893Y01190648D01*
X01645484Y01191645D01*
X01642900Y01191985D01*
X01633900D01*
X01631316Y01191645D01*
X01628907Y01190648D01*
X01626839Y01189061D01*
X01626715Y01188899D01*
X01624685D01*
X01624561Y01189061D01*
X01622493Y01190648D01*
X01620085Y01191645D01*
X01617500Y01191985D01*
X01608500D01*
X01605916Y01191645D01*
X01603507Y01190648D01*
X01601439Y01189061D01*
X01601315Y01188899D01*
X01599285D01*
X01599161Y01189061D01*
X01597093Y01190648D01*
X01594684Y01191645D01*
X01592100Y01191985D01*
X01583100D01*
X01580516Y01191645D01*
X01578107Y01190648D01*
X01576039Y01189061D01*
X01575915Y01188899D01*
X01573885D01*
X01573761Y01189061D01*
X01571693Y01190648D01*
X01569285Y01191645D01*
X01566700Y01191985D01*
X01557700D01*
X01555116Y01191645D01*
X01552707Y01190648D01*
X01550639Y01189061D01*
X01550515Y01188899D01*
X01548485D01*
X01548361Y01189061D01*
X01546293Y01190648D01*
X01543884Y01191645D01*
X01541300Y01191985D01*
X01532300D01*
X01529716Y01191645D01*
X01527307Y01190648D01*
X01525239Y01189061D01*
X01525115Y01188899D01*
X01523085D01*
X01522961Y01189061D01*
X01520893Y01190648D01*
X01518484Y01191645D01*
X01515900Y01191985D01*
X01506900D01*
X01504316Y01191645D01*
X01501907Y01190648D01*
X01499839Y01189061D01*
X01499715Y01188899D01*
X01497685D01*
X01497561Y01189061D01*
X01495493Y01190648D01*
X01493085Y01191645D01*
X01490500Y01191985D01*
X01481500D01*
X01478916Y01191645D01*
X01476507Y01190648D01*
X01474439Y01189061D01*
X01474315Y01188899D01*
X01472285D01*
X01472161Y01189061D01*
X01470093Y01190648D01*
X01467684Y01191645D01*
X01465100Y01191985D01*
X01456100D01*
X01453516Y01191645D01*
X01451107Y01190648D01*
X01449039Y01189061D01*
X01448915Y01188899D01*
X01446885D01*
X01446761Y01189061D01*
X01444693Y01190648D01*
X01442285Y01191645D01*
X01439700Y01191985D01*
X01430700D01*
X01428116Y01191645D01*
X01425707Y01190648D01*
X01423639Y01189061D01*
X01423515Y01188899D01*
X01421485D01*
X01421361Y01189061D01*
X01419293Y01190648D01*
X01416884Y01191645D01*
X01415006Y01191892D01*
X01414122Y01193879D01*
X01430516Y01210274D01*
X01567598D01*
X01571421Y01210650D01*
X01575096Y01211765D01*
X01578484Y01213576D01*
X01581453Y01216013D01*
X01659685Y01294245D01*
X01662122Y01297214D01*
X01663933Y01300602D01*
X01665048Y01304277D01*
X01665424Y01308100D01*
Y01407015D01*
X01668300D01*
X01670885Y01407355D01*
X01673293Y01408353D01*
X01675361Y01409939D01*
X01675485Y01410101D01*
X01677515D01*
X01677639Y01409939D01*
X01679707Y01408353D01*
X01682116Y01407355D01*
X01684700Y01407015D01*
X01693700D01*
X01696284Y01407355D01*
X01698693Y01408353D01*
X01700761Y01409939D01*
X01700885Y01410101D01*
X01702915D01*
X01703039Y01409939D01*
X01705107Y01408353D01*
X01707516Y01407355D01*
X01710100Y01407015D01*
X01719100D01*
X01721685Y01407355D01*
X01724093Y01408353D01*
X01726161Y01409939D01*
X01727748Y01412007D01*
X01728745Y01414416D01*
X01729086Y01417000D01*
Y01436000D01*
X01728745Y01438584D01*
X01727748Y01440993D01*
X01726161Y01443061D01*
X01724093Y01444648D01*
X01721685Y01445645D01*
X01719100Y01445986D01*
X01710100D01*
X01707516Y01445645D01*
X01705107Y01444648D01*
X01703039Y01443061D01*
X01702915Y01442899D01*
X01700885D01*
X01700761Y01443061D01*
X01698693Y01444648D01*
X01696284Y01445645D01*
X01693700Y01445986D01*
X01684700D01*
X01682116Y01445645D01*
X01679707Y01444648D01*
X01677639Y01443061D01*
X01677515Y01442899D01*
X01675485D01*
X01675361Y01443061D01*
X01673293Y01444648D01*
X01670885Y01445645D01*
X01668300Y01445986D01*
X01659300D01*
X01656716Y01445645D01*
X01654307Y01444648D01*
X01652239Y01443061D01*
X01652115Y01442899D01*
X01650085D01*
X01649961Y01443061D01*
X01647893Y01444648D01*
X01645484Y01445645D01*
X01642900Y01445986D01*
X01639506D01*
X01638400Y01446094D01*
X01637294Y01445986D01*
X01633900D01*
X01631316Y01445645D01*
X01628907Y01444648D01*
X01626839Y01443061D01*
X01626715Y01442899D01*
X01624685D01*
X01624561Y01443061D01*
X01622493Y01444648D01*
X01620085Y01445645D01*
X01617500Y01445986D01*
X01608500D01*
X01605916Y01445645D01*
X01603507Y01444648D01*
X01601439Y01443061D01*
X01601315Y01442899D01*
X01599285D01*
X01599161Y01443061D01*
X01597093Y01444648D01*
X01594684Y01445645D01*
X01592100Y01445986D01*
X01588706D01*
X01587600Y01446094D01*
X01586494Y01445986D01*
X01583100D01*
X01580516Y01445645D01*
X01580298Y01445555D01*
X01578492Y01448934D01*
X01576055Y01451903D01*
X01554619Y01473339D01*
X01551650Y01475776D01*
X01548262Y01477587D01*
X01544587Y01478702D01*
X01540764Y01479078D01*
X01171702D01*
X01167879Y01478702D01*
X01164204Y01477587D01*
X01160816Y01475776D01*
X01157847Y01473339D01*
X01090419Y01405912D01*
X01087982Y01402943D01*
X01086172Y01399555D01*
X01085057Y01395879D01*
X01084680Y01392057D01*
Y01026104D01*
X01085057Y01022281D01*
X01086172Y01018606D01*
X01087982Y01015218D01*
X01090419Y01012249D01*
X01113693Y00988975D01*
X01113395Y00986967D01*
X01111446Y00985925D01*
X01108249Y00983301D01*
X01107144Y00981954D01*
X01104714Y00982194D01*
X01103795Y00983913D01*
X01101171Y00987111D01*
X01097973Y00989735D01*
X01094325Y00991685D01*
X01090366Y00992886D01*
X01086250Y00993291D01*
X01067250D01*
X01063133Y00992886D01*
X01059174Y00991685D01*
X01055526Y00989735D01*
X01052329Y00987111D01*
X01049704Y00983913D01*
X01047754Y00980265D01*
X01046554Y00976306D01*
X01046148Y00972190D01*
Y00963190D01*
X01046472Y00959901D01*
X01044597Y00958754D01*
X01042121Y00960553D01*
X01038054Y00962625D01*
X01033713Y00964036D01*
X01029204Y00964750D01*
X01024640D01*
X01020131Y00964036D01*
X01019381Y00963792D01*
X01017352Y00965267D01*
Y00972190D01*
X01016946Y00976306D01*
X01015745Y00980265D01*
X01013795Y00983913D01*
X01011171Y00987111D01*
X01007973Y00989735D01*
X01004325Y00991685D01*
X01000367Y00992886D01*
X00996250Y00993291D01*
X00977250D01*
X00973133Y00992886D01*
X00969175Y00991685D01*
X00965526Y00989735D01*
X00962329Y00987111D01*
X00959705Y00983913D01*
X00957755Y00980265D01*
X00956554Y00976306D01*
X00956148Y00972190D01*
Y00966975D01*
X00954981Y00966275D01*
X00954118Y00966038D01*
X00950366Y00967176D01*
X00946250Y00967582D01*
X00938859D01*
X00903146Y01003295D01*
X00903923Y01005170D01*
X00922000D01*
X00925235Y01005489D01*
X00928345Y01006432D01*
X00931211Y01007964D01*
X00933724Y01010026D01*
X00935786Y01012539D01*
X00937318Y01015405D01*
X00938261Y01018515D01*
X00938580Y01021750D01*
Y01235104D01*
X00940455Y01235881D01*
X00958441Y01217895D01*
X00961410Y01215458D01*
X00964798Y01213647D01*
X00968474Y01212532D01*
X00972296Y01212156D01*
X01004000D01*
X01007823Y01212532D01*
X01011499Y01213647D01*
X01014887Y01215458D01*
X01017856Y01217895D01*
X01038109Y01238148D01*
X01045500D01*
X01049617Y01238554D01*
X01053575Y01239754D01*
X01057224Y01241704D01*
X01060421Y01244329D01*
X01063046Y01247526D01*
X01064995Y01251175D01*
X01066196Y01255133D01*
X01066602Y01259250D01*
Y01278250D01*
X01066196Y01282366D01*
X01064995Y01286325D01*
X01063046Y01289973D01*
X01060421Y01293171D01*
X01057224Y01295795D01*
X01053575Y01297745D01*
X01049617Y01298946D01*
X01045500Y01299351D01*
X01036500D01*
X01032383Y01298946D01*
X01028425Y01297745D01*
X01024777Y01295795D01*
X01021579Y01293171D01*
X01018955Y01289973D01*
X01017005Y01286325D01*
X01015804Y01282366D01*
X01015399Y01278250D01*
Y01270859D01*
X00995884Y01251345D01*
X00980413D01*
X00933015Y01298742D01*
X00932784Y01300720D01*
X00933081Y01301431D01*
X00933821Y01302334D01*
X00937383Y01301254D01*
X00941500Y01300848D01*
X00960500D01*
X00964617Y01301254D01*
X00968575Y01302455D01*
X00972223Y01304405D01*
X00975421Y01307029D01*
X00978045Y01310227D01*
X00979995Y01313875D01*
X00981196Y01317833D01*
X00981601Y01321950D01*
Y01329470D01*
X00983632Y01330687D01*
X00985375Y01329755D01*
X00989334Y01328554D01*
X00993450Y01328149D01*
X01002450D01*
X01006567Y01328554D01*
X01010526Y01329755D01*
X01014174Y01331705D01*
X01017371Y01334329D01*
X01018460Y01335656D01*
X01020490D01*
X01021579Y01334329D01*
X01024777Y01331705D01*
X01028425Y01329755D01*
X01032383Y01328554D01*
X01036500Y01328149D01*
X01045500D01*
X01049617Y01328554D01*
X01053575Y01329755D01*
X01057224Y01331705D01*
X01060421Y01334329D01*
X01063046Y01337527D01*
X01064995Y01341175D01*
X01066196Y01345133D01*
X01066602Y01349250D01*
Y01368250D01*
X01066196Y01372367D01*
X01064995Y01376325D01*
X01063046Y01379974D01*
X01060421Y01383171D01*
X01057224Y01385795D01*
X01053575Y01387746D01*
X01049617Y01388946D01*
X01045500Y01389352D01*
X01036500D01*
X01032383Y01388946D01*
X01028425Y01387746D01*
X01024777Y01385795D01*
X01021579Y01383171D01*
X01020490Y01381844D01*
X01018460D01*
X01017371Y01383171D01*
X01014174Y01385795D01*
X01010526Y01387746D01*
X01006567Y01388946D01*
X01002450Y01389352D01*
X00993450D01*
X00989334Y01388946D01*
X00985375Y01387746D01*
X00981727Y01385795D01*
X00978529Y01383171D01*
X00975905Y01379974D01*
X00973955Y01376325D01*
X00972754Y01372367D01*
X00972349Y01368250D01*
Y01350730D01*
X00970319Y01349513D01*
X00968575Y01350445D01*
X00964617Y01351646D01*
X00960500Y01352052D01*
X00941500D01*
X00940084Y01351912D01*
X00938580Y01353275D01*
Y01499750D01*
X01938504D01*
X01938772Y01497720D01*
D02*
G37*
G36*
X01825777Y00649522D02*
X01826153Y00645699D01*
X01827268Y00642024D01*
X01829079Y00638636D01*
X01831516Y00635667D01*
X01839288Y00627895D01*
X01841970Y00625693D01*
Y00610252D01*
X01839247Y00608796D01*
X01836049Y00606171D01*
X01833425Y00602974D01*
X01831475Y00599326D01*
X01830274Y00595367D01*
X01829868Y00591250D01*
Y00583859D01*
X01793509Y00547500D01*
X01704500D01*
Y00531061D01*
X01704420Y00530250D01*
Y00440046D01*
X01704364Y00439860D01*
X01704119Y00437376D01*
X01702089Y00437476D01*
Y00504750D01*
X01701733Y00510178D01*
X01700672Y00515514D01*
X01698923Y00520665D01*
X01696517Y00525544D01*
X01693495Y00530068D01*
X01689908Y00534158D01*
X01637792Y00586274D01*
X01638569Y00588149D01*
X01640050D01*
X01644167Y00588554D01*
X01648125Y00589755D01*
X01648814Y00590123D01*
X01650105Y00589433D01*
X01653216Y00588489D01*
X01656450Y00588171D01*
X01665450D01*
X01668685Y00588489D01*
X01671795Y00589433D01*
X01674661Y00590965D01*
X01677174Y00593027D01*
X01681674Y00597527D01*
X01683736Y00600039D01*
X01685268Y00602906D01*
X01686212Y00606016D01*
X01686530Y00609251D01*
Y00628251D01*
X01686212Y00631485D01*
X01685268Y00634595D01*
X01683736Y00637462D01*
X01681674Y00639974D01*
X01677174Y00644474D01*
X01674661Y00646536D01*
X01671795Y00648068D01*
X01668685Y00649012D01*
X01665450Y00649330D01*
X01656450D01*
X01653216Y00649012D01*
X01650105Y00648068D01*
X01648814Y00647378D01*
X01648125Y00647746D01*
X01644167Y00648947D01*
X01640050Y00649352D01*
X01631050D01*
X01626933Y00648947D01*
X01622975Y00647746D01*
X01619327Y00645796D01*
X01616129Y00643172D01*
X01613505Y00639974D01*
X01611555Y00636326D01*
X01610354Y00632367D01*
X01609949Y00628251D01*
Y00616397D01*
X01608100Y00615559D01*
X01607318Y00616245D01*
X01602794Y00619267D01*
X01597915Y00621673D01*
X01592764Y00623422D01*
X01587428Y00624483D01*
X01582000Y00624839D01*
X01493750D01*
X01488322Y00624483D01*
X01482986Y00623422D01*
X01477835Y00621673D01*
X01472956Y00619267D01*
X01468432Y00616245D01*
X01464342Y00612658D01*
X01428342Y00576658D01*
X01424755Y00572568D01*
X01421733Y00568045D01*
X01419327Y00563166D01*
X01417578Y00558014D01*
X01416517Y00552679D01*
X01416161Y00547250D01*
Y00498775D01*
X01414655Y00498318D01*
X01411789Y00496786D01*
X01409276Y00494724D01*
X01407214Y00492211D01*
X01405682Y00489345D01*
X01404739Y00486235D01*
X01404420Y00483000D01*
Y00437000D01*
X01404039Y00436580D01*
X01390349D01*
Y00470671D01*
X01390973Y00471005D01*
X01394171Y00473629D01*
X01396795Y00476827D01*
X01398745Y00480475D01*
X01399946Y00484433D01*
X01400352Y00488550D01*
Y00497550D01*
X01399946Y00501667D01*
X01398745Y00505625D01*
X01396795Y00509273D01*
X01394171Y00512471D01*
X01390973Y00515095D01*
X01387325Y00517045D01*
X01383367Y00518246D01*
X01379250Y00518652D01*
X01360250D01*
X01356133Y00518246D01*
X01352175Y00517045D01*
X01348526Y00515095D01*
X01345329Y00512471D01*
X01342704Y00509273D01*
X01340755Y00505625D01*
X01339554Y00501667D01*
X01339148Y00497550D01*
Y00488550D01*
X01339554Y00484433D01*
X01340755Y00480475D01*
X01342704Y00476827D01*
X01345329Y00473629D01*
X01348526Y00471005D01*
X01349151Y00470671D01*
Y00436580D01*
X01337898D01*
X01337880Y00436578D01*
X01337863Y00436580D01*
X01336266Y00436419D01*
X01334664Y00436261D01*
X01334646Y00436256D01*
X01334629Y00436254D01*
X01333092Y00435784D01*
X01331553Y00435318D01*
X01331537Y00435309D01*
X01331521Y00435304D01*
X01330102Y00434542D01*
X01328687Y00433786D01*
X01328673Y00433774D01*
X01328657Y00433766D01*
X01327413Y00432740D01*
X01326174Y00431724D01*
X01326163Y00431710D01*
X01326149Y00431699D01*
X01324717Y00430260D01*
X01324706Y00430246D01*
X01324692Y00430235D01*
X01323676Y00428986D01*
X01322660Y00427743D01*
X01322652Y00427728D01*
X01322641Y00427714D01*
X01321887Y00426290D01*
X01321134Y00424874D01*
X01321129Y00424857D01*
X01321121Y00424841D01*
X01320660Y00423297D01*
X01320198Y00421761D01*
X01320196Y00421744D01*
X01320191Y00421726D01*
X01320040Y00420121D01*
X01319886Y00418526D01*
X01319888Y00418508D01*
X01319886Y00418491D01*
X01321086Y00138018D01*
X01319653Y00136580D01*
X01001370D01*
Y00420000D01*
X01001051Y00423235D01*
X01000108Y00426345D01*
X00998576Y00429211D01*
X00996514Y00431724D01*
X00994001Y00433786D01*
X00991135Y00435318D01*
X00988025Y00436261D01*
X00984790Y00436580D01*
X00973417D01*
X00970000Y00436916D01*
X00909656D01*
X00909580Y00437000D01*
Y00442678D01*
X00912307Y00444135D01*
X00915200Y00446510D01*
X00917574Y00449403D01*
X00919339Y00452704D01*
X00920425Y00456285D01*
X00920792Y00460010D01*
Y00461418D01*
X00929829D01*
X00932149Y00461646D01*
X00932453Y00461554D01*
X00936570Y00461148D01*
X00945570D01*
X00949687Y00461554D01*
X00953645Y00462755D01*
X00957293Y00464705D01*
X00960491Y00467329D01*
X00963115Y00470527D01*
X00965065Y00474175D01*
X00966266Y00478133D01*
X00966672Y00482250D01*
Y00501250D01*
X00966266Y00505367D01*
X00965065Y00509325D01*
X00963115Y00512974D01*
X00960491Y00516171D01*
X00957293Y00518795D01*
X00953645Y00520745D01*
X00949687Y00521946D01*
X00945570Y00522352D01*
X00936570D01*
X00932453Y00521946D01*
X00928495Y00520745D01*
X00924847Y00518795D01*
X00921649Y00516171D01*
X00919025Y00512974D01*
X00917075Y00509325D01*
X00915874Y00505367D01*
X00915468Y00501250D01*
Y00499602D01*
X00903200D01*
X00902619Y00499544D01*
X00900589Y00501137D01*
Y00528523D01*
X00912227Y00540161D01*
X00966023D01*
X01020161Y00486023D01*
Y00422420D01*
X01019963Y00421761D01*
X01019961Y00421744D01*
X01019956Y00421726D01*
X01019805Y00420122D01*
X01019651Y00418526D01*
X01019653Y00418508D01*
X01019651Y00418491D01*
X01020714Y00169929D01*
X01020877Y00168347D01*
X01021032Y00166765D01*
X01021043Y00166731D01*
X01021047Y00166696D01*
X01021515Y00165175D01*
X01021976Y00163655D01*
X01021993Y00163624D01*
X01022003Y00163590D01*
X01022759Y00162191D01*
X01023508Y00160789D01*
X01023531Y00160761D01*
X01023548Y00160730D01*
X01024562Y00159504D01*
X01025570Y00158276D01*
X01025598Y00158254D01*
X01025620Y00158226D01*
X01026855Y00157222D01*
X01028083Y00156214D01*
X01028114Y00156198D01*
X01028142Y00156175D01*
X01029548Y00155431D01*
X01030949Y00154682D01*
X01030983Y00154672D01*
X01031014Y00154655D01*
X01032539Y00154200D01*
X01034059Y00153739D01*
X01034095Y00153735D01*
X01034129Y00153725D01*
X01035713Y00153576D01*
X01037294Y00153420D01*
X01286225D01*
X01289459Y00153739D01*
X01292569Y00154682D01*
X01295436Y00156214D01*
X01297948Y00158276D01*
X01300010Y00160789D01*
X01301542Y00163655D01*
X01302486Y00166765D01*
X01302805Y00170000D01*
Y00420000D01*
X01302486Y00423235D01*
X01301542Y00426345D01*
X01300010Y00429211D01*
X01297948Y00431724D01*
X01295436Y00433786D01*
X01292569Y00435318D01*
X01289459Y00436261D01*
X01286225Y00436580D01*
X01209711D01*
X01209330Y00437000D01*
X01209205Y00438269D01*
Y00440918D01*
X01213510D01*
X01217234Y00441285D01*
X01220816Y00442371D01*
X01224117Y00444135D01*
X01227010Y00446510D01*
X01241649Y00461148D01*
X01249750D01*
X01253867Y00461554D01*
X01257825Y00462755D01*
X01261474Y00464705D01*
X01264671Y00467329D01*
X01265579D01*
X01268777Y00464705D01*
X01272425Y00462755D01*
X01276384Y00461554D01*
X01280500Y00461148D01*
X01289500D01*
X01293617Y00461554D01*
X01297575Y00462755D01*
X01301224Y00464705D01*
X01304421Y00467329D01*
X01307045Y00470527D01*
X01308996Y00474175D01*
X01310196Y00478133D01*
X01310602Y00482250D01*
Y00501250D01*
X01310196Y00505367D01*
X01308996Y00509325D01*
X01307045Y00512974D01*
X01304421Y00516171D01*
X01301224Y00518795D01*
X01297575Y00520745D01*
X01293617Y00521946D01*
X01289500Y00522352D01*
X01280500D01*
X01276384Y00521946D01*
X01272425Y00520745D01*
X01268777Y00518795D01*
X01266606Y00517014D01*
X01265125Y00516369D01*
X01263645Y00517014D01*
X01261474Y00518795D01*
X01257825Y00520745D01*
X01253867Y00521946D01*
X01249750Y00522352D01*
X01240750D01*
X01236634Y00521946D01*
X01232675Y00520745D01*
X01229027Y00518795D01*
X01225829Y00516171D01*
X01223205Y00512974D01*
X01221255Y00509325D01*
X01220054Y00505367D01*
X01219649Y00501250D01*
Y00493148D01*
X01211077Y00484577D01*
X01208963Y00485333D01*
X01208886Y00486110D01*
X01207943Y00489220D01*
X01206411Y00492086D01*
X01204349Y00494599D01*
X01200330Y00498618D01*
Y00510609D01*
X01202386Y00511708D01*
X01205355Y00514145D01*
X01242359Y00551149D01*
X01249750D01*
X01253867Y00551554D01*
X01254271Y00551677D01*
X01261303Y00544645D01*
X01264273Y00542208D01*
X01267660Y00540397D01*
X01271336Y00539282D01*
X01275159Y00538906D01*
X01331064D01*
X01333798Y00537513D01*
X01338139Y00536102D01*
X01342648Y00535388D01*
X01347212D01*
X01351721Y00536102D01*
X01356062Y00537513D01*
X01360129Y00539585D01*
X01363822Y00542268D01*
X01367050Y00545496D01*
X01369733Y00549189D01*
X01371805Y00553256D01*
X01373216Y00557597D01*
X01373930Y00562106D01*
Y00566670D01*
X01373216Y00571179D01*
X01371805Y00575520D01*
X01369733Y00579587D01*
X01367050Y00583280D01*
X01363822Y00586508D01*
X01360129Y00589191D01*
X01356062Y00591263D01*
X01351721Y00592674D01*
X01347212Y00593388D01*
X01342648D01*
X01338139Y00592674D01*
X01333798Y00591263D01*
X01329731Y00589191D01*
X01326038Y00586508D01*
X01322810Y00583280D01*
X01320127Y00579587D01*
X01319366Y00578094D01*
X01310602D01*
Y00591250D01*
X01310196Y00595367D01*
X01308996Y00599326D01*
X01307968Y00601248D01*
X01309146Y00605133D01*
X01309552Y00609250D01*
Y00616641D01*
X01337545Y00644634D01*
X01341116D01*
X01345625Y00645348D01*
X01349966Y00646759D01*
X01354033Y00648831D01*
X01357726Y00651514D01*
X01360954Y00654742D01*
X01363637Y00658435D01*
X01365709Y00662502D01*
X01367120Y00666843D01*
X01367834Y00671352D01*
Y00675916D01*
X01367120Y00680425D01*
X01365709Y00684766D01*
X01363637Y00688833D01*
X01360954Y00692526D01*
X01357726Y00695754D01*
X01354033Y00698437D01*
X01349966Y00700509D01*
X01345625Y00701920D01*
X01341116Y00702634D01*
X01336552D01*
X01332043Y00701920D01*
X01327702Y00700509D01*
X01323635Y00698437D01*
X01319942Y00695754D01*
X01316714Y00692526D01*
X01314031Y00688833D01*
X01311959Y00684766D01*
X01310548Y00680425D01*
X01309834Y00675916D01*
Y00672345D01*
X01286841Y00649352D01*
X01279450D01*
X01275333Y00648946D01*
X01271375Y00647745D01*
X01270687Y00647377D01*
X01269395Y00648068D01*
X01266285Y00649011D01*
X01263050Y00649330D01*
X01254050D01*
X01250816Y00649011D01*
X01247705Y00648068D01*
X01244839Y00646536D01*
X01242327Y00644474D01*
X01237827Y00639974D01*
X01235764Y00637461D01*
X01234232Y00634595D01*
X01233289Y00631485D01*
X01232970Y00628250D01*
Y00610835D01*
X01232675Y00610746D01*
X01229027Y00608796D01*
X01225829Y00606171D01*
X01223205Y00602974D01*
X01221255Y00599326D01*
X01220054Y00595367D01*
X01219649Y00591250D01*
Y00583859D01*
X01183383Y00547594D01*
X01163250D01*
X01162293Y00547500D01*
X01105250D01*
Y00531561D01*
X01105170Y00530750D01*
Y00506350D01*
X01103140Y00506284D01*
X01102983Y00508679D01*
X01101922Y00514014D01*
X01100173Y00519166D01*
X01097767Y00524045D01*
X01094745Y00528568D01*
X01091158Y00532658D01*
X01036698Y00587118D01*
X01037539Y00589148D01*
X01044800D01*
X01048917Y00589554D01*
X01052875Y00590755D01*
X01053564Y00591123D01*
X01054855Y00590432D01*
X01057966Y00589489D01*
X01061200Y00589170D01*
X01070200D01*
X01073435Y00589489D01*
X01076545Y00590432D01*
X01079411Y00591964D01*
X01081924Y00594026D01*
X01086424Y00598526D01*
X01088486Y00601039D01*
X01090018Y00603905D01*
X01090961Y00607015D01*
X01091280Y00610250D01*
Y00629250D01*
X01090961Y00632484D01*
X01090018Y00635595D01*
X01088486Y00638461D01*
X01086424Y00640974D01*
X01082028Y00645370D01*
X01081992Y00645436D01*
X01079556Y00648405D01*
X01051419Y00676541D01*
X01048450Y00678978D01*
X01045062Y00680789D01*
X01041387Y00681904D01*
X01037564Y00682280D01*
X00819486D01*
X00816960Y00684806D01*
X00813267Y00687489D01*
X00809200Y00689561D01*
X00804859Y00690972D01*
X00800350Y00691686D01*
X00795786D01*
X00791277Y00690972D01*
X00786936Y00689561D01*
X00782869Y00687489D01*
X00779176Y00684806D01*
X00775948Y00681578D01*
X00773265Y00677885D01*
X00772262Y00675918D01*
X00770239Y00675758D01*
X00768870Y00677642D01*
X00765642Y00680870D01*
X00761949Y00683553D01*
X00757882Y00685625D01*
X00753541Y00687036D01*
X00749032Y00687750D01*
X00744467D01*
X00739959Y00687036D01*
X00735618Y00685625D01*
X00731551Y00683553D01*
X00727858Y00680870D01*
X00725332Y00678344D01*
X00686359D01*
X00682536Y00677968D01*
X00678860Y00676853D01*
X00675473Y00675042D01*
X00672504Y00672605D01*
X00650193Y00650294D01*
X00647316Y00650011D01*
X00644205Y00649068D01*
X00641339Y00647535D01*
X00638827Y00645473D01*
X00634327Y00640974D01*
X00632265Y00638461D01*
X00630732Y00635595D01*
X00629789Y00632484D01*
X00629470Y00629250D01*
Y00612001D01*
X00628923Y00611947D01*
X00624965Y00610746D01*
X00621317Y00608796D01*
X00618119Y00606171D01*
X00615495Y00602974D01*
X00613545Y00599326D01*
X00612344Y00595367D01*
X00611938Y00591250D01*
Y00583859D01*
X00576878Y00548799D01*
X00520433Y00548572D01*
X00519733Y00548500D01*
X00506000D01*
Y00539868D01*
X00505933Y00539742D01*
X00505182Y00538337D01*
X00505173Y00538305D01*
X00505157Y00538275D01*
X00504702Y00536752D01*
X00504239Y00535227D01*
X00504235Y00535193D01*
X00504226Y00535161D01*
X00504076Y00533576D01*
X00503920Y00531992D01*
Y00512352D01*
X00501890Y00512153D01*
X00501172Y00515764D01*
X00499423Y00520916D01*
X00497017Y00525795D01*
X00493995Y00530318D01*
X00490408Y00534408D01*
X00437483Y00587333D01*
X00438351Y00589168D01*
X00438550Y00589148D01*
X00447550D01*
X00451666Y00589554D01*
X00455625Y00590755D01*
X00456313Y00591123D01*
X00457605Y00590432D01*
X00460715Y00589489D01*
X00463950Y00589170D01*
X00472950D01*
X00476184Y00589489D01*
X00479295Y00590432D01*
X00482161Y00591964D01*
X00484673Y00594026D01*
X00489173Y00598526D01*
X00491235Y00601039D01*
X00492767Y00603905D01*
X00493711Y00607015D01*
X00494030Y00610250D01*
Y00629250D01*
X00493711Y00632484D01*
X00492767Y00635595D01*
X00491235Y00638461D01*
X00489173Y00640974D01*
X00484673Y00645474D01*
X00482161Y00647535D01*
X00479295Y00649068D01*
X00476184Y00650011D01*
X00472950Y00650330D01*
X00463950D01*
X00462644Y00651513D01*
Y00672017D01*
X00529679Y00739052D01*
X00553396D01*
X00557219Y00739428D01*
X00560895Y00740543D01*
X00564282Y00742354D01*
X00567252Y00744791D01*
X00573842Y00751381D01*
X00883470D01*
Y00749910D01*
X00883789Y00746675D01*
X00884732Y00743565D01*
X00886264Y00740698D01*
X00888326Y00738186D01*
X00892826Y00733686D01*
X00895339Y00731624D01*
X00898205Y00730092D01*
X00901315Y00729148D01*
X00904550Y00728830D01*
X00913550D01*
X00916784Y00729148D01*
X00919895Y00730092D01*
X00921186Y00730782D01*
X00921874Y00730414D01*
X00925833Y00729214D01*
X00929950Y00728808D01*
X00938950D01*
X00943066Y00729214D01*
X00947025Y00730414D01*
X00950673Y00732364D01*
X00953871Y00734989D01*
X00956495Y00738186D01*
X00958445Y00741834D01*
X00959646Y00745793D01*
X00960051Y00749910D01*
Y00751381D01*
X01109750D01*
X01110130Y00750858D01*
X01113358Y00747630D01*
X01117051Y00744947D01*
X01121118Y00742875D01*
X01125459Y00741464D01*
X01129968Y00740750D01*
X01134533D01*
X01139041Y00741464D01*
X01143382Y00742875D01*
X01147449Y00744947D01*
X01151142Y00747630D01*
X01154370Y00750858D01*
X01154750Y00751381D01*
X01490610D01*
X01490982Y00750155D01*
X01492514Y00747289D01*
X01494576Y00744776D01*
X01499076Y00740276D01*
X01501589Y00738214D01*
X01504455Y00736682D01*
X01507565Y00735739D01*
X01510800Y00735420D01*
X01519800D01*
X01523035Y00735739D01*
X01526145Y00736682D01*
X01527436Y00737373D01*
X01528125Y00737005D01*
X01532083Y00735804D01*
X01536200Y00735398D01*
X01545200D01*
X01549317Y00735804D01*
X01553275Y00737005D01*
X01556923Y00738955D01*
X01560121Y00741579D01*
X01562745Y00744777D01*
X01564695Y00748425D01*
X01565592Y00751381D01*
X01588086D01*
X01589459Y00750647D01*
X01593135Y00749532D01*
X01596958Y00749156D01*
X01714646D01*
X01718469Y00749532D01*
X01722144Y00750647D01*
X01723517Y00751381D01*
X01825777D01*
Y00649522D01*
D02*
G37*
G36*
X00775948Y00643794D02*
X00779176Y00640566D01*
X00782869Y00637883D01*
X00786936Y00635811D01*
X00791277Y00634400D01*
X00795786Y00633686D01*
X00800350D01*
X00804859Y00634400D01*
X00809200Y00635811D01*
X00813267Y00637883D01*
X00816960Y00640566D01*
X00819486Y00643092D01*
X01017619D01*
X01018487Y00641257D01*
X01018255Y00640973D01*
X01016305Y00637325D01*
X01015104Y00633367D01*
X01014699Y00629250D01*
Y00611988D01*
X01012669Y00611147D01*
X01012658Y00611158D01*
X01008568Y00614745D01*
X01004044Y00617768D01*
X00999165Y00620174D01*
X00994014Y00621922D01*
X00988678Y00622984D01*
X00983250Y00623340D01*
X00895000D01*
X00889572Y00622984D01*
X00884236Y00621922D01*
X00879085Y00620174D01*
X00874205Y00617768D01*
X00869682Y00614745D01*
X00865592Y00611158D01*
X00858717Y00604283D01*
X00829592Y00575158D01*
X00826005Y00571068D01*
X00824136Y00568270D01*
X00822983Y00566544D01*
X00822983Y00566544D01*
X00821938Y00564426D01*
X00820577Y00561665D01*
X00820577Y00561665D01*
X00818828Y00556514D01*
X00818828Y00556514D01*
X00818183Y00553272D01*
X00817767Y00551179D01*
X00817767Y00551178D01*
X00817574Y00548240D01*
X00817411Y00545750D01*
Y00499002D01*
X00815155Y00498318D01*
X00812289Y00496786D01*
X00809776Y00494724D01*
X00807714Y00492211D01*
X00806182Y00489345D01*
X00805239Y00486235D01*
X00804920Y00483000D01*
Y00437000D01*
X00804539Y00436580D01*
X00792099D01*
Y00470671D01*
X00792723Y00471005D01*
X00795921Y00473629D01*
X00798545Y00476827D01*
X00800495Y00480475D01*
X00801696Y00484433D01*
X00802102Y00488550D01*
Y00497550D01*
X00801696Y00501667D01*
X00800495Y00505625D01*
X00798545Y00509273D01*
X00795921Y00512471D01*
X00792723Y00515095D01*
X00789075Y00517045D01*
X00785117Y00518246D01*
X00781000Y00518652D01*
X00762000D01*
X00757883Y00518246D01*
X00753925Y00517045D01*
X00750277Y00515095D01*
X00747079Y00512471D01*
X00744455Y00509273D01*
X00742505Y00505625D01*
X00741304Y00501667D01*
X00740899Y00497550D01*
Y00488550D01*
X00741304Y00484433D01*
X00742505Y00480475D01*
X00744455Y00476827D01*
X00747079Y00473629D01*
X00750277Y00471005D01*
X00750901Y00470671D01*
Y00436580D01*
X00736228D01*
X00736211Y00436578D01*
X00736193Y00436580D01*
X00734597Y00436419D01*
X00732994Y00436261D01*
X00732977Y00436256D01*
X00732959Y00436254D01*
X00731422Y00435784D01*
X00729884Y00435318D01*
X00729868Y00435309D01*
X00729851Y00435304D01*
X00728432Y00434542D01*
X00727017Y00433786D01*
X00727004Y00433774D01*
X00726988Y00433766D01*
X00725744Y00432740D01*
X00724505Y00431724D01*
X00724494Y00431710D01*
X00724480Y00431699D01*
X00723047Y00430260D01*
X00723036Y00430246D01*
X00723022Y00430235D01*
X00722006Y00428986D01*
X00720991Y00427743D01*
X00720983Y00427728D01*
X00720971Y00427714D01*
X00720218Y00426290D01*
X00719465Y00424874D01*
X00719460Y00424857D01*
X00719451Y00424841D01*
X00718990Y00423297D01*
X00718528Y00421761D01*
X00718526Y00421744D01*
X00718521Y00421726D01*
X00718370Y00420121D01*
X00718216Y00418526D01*
X00718218Y00418508D01*
X00718216Y00418491D01*
X00719416Y00138018D01*
X00717984Y00136580D01*
X00406580D01*
Y00420000D01*
X00406261Y00423235D01*
X00405318Y00426345D01*
X00403786Y00429211D01*
X00401724Y00431724D01*
X00399211Y00433786D01*
X00396345Y00435318D01*
X00393235Y00436261D01*
X00390000Y00436580D01*
X00310686D01*
X00308830Y00438610D01*
Y00442656D01*
X00311597Y00444135D01*
X00314490Y00446510D01*
X00316864Y00449403D01*
X00318629Y00452704D01*
X00319715Y00456285D01*
X00320082Y00460010D01*
Y00461337D01*
X00327679D01*
X00330261Y00461591D01*
X00330383Y00461554D01*
X00334500Y00461148D01*
X00343500D01*
X00347617Y00461554D01*
X00351575Y00462755D01*
X00355224Y00464705D01*
X00358421Y00467329D01*
X00361045Y00470527D01*
X00362995Y00474175D01*
X00364196Y00478133D01*
X00364602Y00482250D01*
Y00501250D01*
X00364196Y00505367D01*
X00362995Y00509325D01*
X00361045Y00512974D01*
X00358421Y00516171D01*
X00355224Y00518795D01*
X00351575Y00520745D01*
X00347617Y00521946D01*
X00343500Y00522352D01*
X00334500D01*
X00330383Y00521946D01*
X00326425Y00520745D01*
X00322777Y00518795D01*
X00319579Y00516171D01*
X00316955Y00512974D01*
X00315005Y00509325D01*
X00313804Y00505367D01*
X00313398Y00501250D01*
Y00499521D01*
X00302490D01*
X00301869Y00499459D01*
X00299839Y00501035D01*
Y00530273D01*
X00311477Y00541911D01*
X00365273D01*
X00419411Y00487773D01*
Y00420927D01*
X00419335Y00420122D01*
X00419181Y00418526D01*
X00419183Y00418508D01*
X00419181Y00418491D01*
X00420255Y00167389D01*
X00420418Y00165806D01*
X00420574Y00164225D01*
X00420584Y00164191D01*
X00420588Y00164156D01*
X00421056Y00162635D01*
X00421517Y00161115D01*
X00421534Y00161084D01*
X00421544Y00161050D01*
X00422300Y00159651D01*
X00423049Y00158249D01*
X00423072Y00158221D01*
X00423089Y00158190D01*
X00424103Y00156964D01*
X00425111Y00155736D01*
X00425139Y00155714D01*
X00425161Y00155686D01*
X00426396Y00154682D01*
X00427624Y00153674D01*
X00427655Y00153658D01*
X00427683Y00153635D01*
X00429090Y00152891D01*
X00430490Y00152142D01*
X00430524Y00152132D01*
X00430556Y00152115D01*
X00432080Y00151660D01*
X00433600Y00151199D01*
X00433636Y00151195D01*
X00433670Y00151185D01*
X00435253Y00151036D01*
X00436835Y00150880D01*
X00685755D01*
X00688989Y00151199D01*
X00692100Y00152142D01*
X00694966Y00153674D01*
X00697479Y00155736D01*
X00699540Y00158249D01*
X00701073Y00161115D01*
X00702016Y00164225D01*
X00702335Y00167460D01*
Y00420000D01*
X00702016Y00423235D01*
X00701073Y00426345D01*
X00699540Y00429211D01*
X00697479Y00431724D01*
X00694966Y00433786D01*
X00692100Y00435318D01*
X00688989Y00436261D01*
X00685755Y00436580D01*
X00608961D01*
X00608580Y00437000D01*
Y00442672D01*
X00611317Y00444135D01*
X00614210Y00446510D01*
X00616584Y00449403D01*
X00618349Y00452704D01*
X00619435Y00456285D01*
X00619802Y00460010D01*
Y00461337D01*
X00626219D01*
X00628801Y00461591D01*
X00628923Y00461554D01*
X00633040Y00461148D01*
X00642040D01*
X00646157Y00461554D01*
X00650115Y00462755D01*
X00653763Y00464705D01*
X00656961Y00467329D01*
X00658130Y00468753D01*
X00660160D01*
X00661329Y00467329D01*
X00664527Y00464705D01*
X00668175Y00462755D01*
X00672133Y00461554D01*
X00676250Y00461148D01*
X00685250D01*
X00689367Y00461554D01*
X00693325Y00462755D01*
X00696973Y00464705D01*
X00700171Y00467329D01*
X00702795Y00470527D01*
X00704745Y00474175D01*
X00705946Y00478133D01*
X00706351Y00482250D01*
Y00501250D01*
X00705946Y00505367D01*
X00704745Y00509325D01*
X00702795Y00512974D01*
X00700171Y00516171D01*
X00696973Y00518795D01*
X00693325Y00520745D01*
X00689367Y00521946D01*
X00685250Y00522352D01*
X00676250D01*
X00672133Y00521946D01*
X00668175Y00520745D01*
X00664527Y00518795D01*
X00661329Y00516171D01*
X00660160Y00514747D01*
X00658130D01*
X00656961Y00516171D01*
X00653763Y00518795D01*
X00650115Y00520745D01*
X00646157Y00521946D01*
X00642040Y00522352D01*
X00633040D01*
X00628923Y00521946D01*
X00624965Y00520745D01*
X00621317Y00518795D01*
X00618119Y00516171D01*
X00615495Y00512974D01*
X00613545Y00509325D01*
X00612344Y00505367D01*
X00611938Y00501250D01*
Y00499521D01*
X00602210D01*
X00601080Y00500545D01*
Y00517580D01*
X00634649Y00551149D01*
X00642040D01*
X00646157Y00551554D01*
X00650115Y00552755D01*
X00653763Y00554705D01*
X00656961Y00557329D01*
X00658130Y00558753D01*
X00660160D01*
X00661329Y00557329D01*
X00664527Y00554705D01*
X00668175Y00552755D01*
X00672133Y00551554D01*
X00676250Y00551148D01*
X00685250D01*
X00689367Y00551554D01*
X00693325Y00552755D01*
X00696973Y00554705D01*
X00700171Y00557329D01*
X00702795Y00560527D01*
X00703666Y00562156D01*
X00712750D01*
X00716573Y00562532D01*
X00720248Y00563647D01*
X00723636Y00565458D01*
X00726605Y00567895D01*
X00739541Y00580830D01*
X00743541Y00581464D01*
X00747882Y00582874D01*
X00751949Y00584947D01*
X00755642Y00587630D01*
X00758870Y00590858D01*
X00761553Y00594551D01*
X00763625Y00598618D01*
X00765036Y00602959D01*
X00765750Y00607467D01*
Y00612032D01*
X00765036Y00616541D01*
X00763625Y00620882D01*
X00761553Y00624949D01*
X00758870Y00628642D01*
X00757545Y00629967D01*
X00758297Y00632086D01*
X00761949Y00633947D01*
X00765642Y00636630D01*
X00768870Y00639858D01*
X00771553Y00643551D01*
X00772555Y00645518D01*
X00774579Y00645678D01*
X00775948Y00643794D01*
D02*
G37*
G36*
X00256101Y00715561D02*
X00230895Y00690355D01*
X00228458Y00687386D01*
X00226647Y00683998D01*
X00225532Y00680323D01*
X00225156Y00676500D01*
Y00627918D01*
X00222630Y00625392D01*
X00219947Y00621699D01*
X00217875Y00617632D01*
X00216464Y00613291D01*
X00215750Y00608783D01*
Y00604218D01*
X00216464Y00599709D01*
X00217875Y00595368D01*
X00219947Y00591301D01*
X00222630Y00587608D01*
X00225858Y00584380D01*
X00229550Y00581697D01*
X00230715Y00581104D01*
X00231033Y00579099D01*
X00228842Y00576908D01*
X00225255Y00572818D01*
X00225255Y00572818D01*
X00222233Y00568295D01*
X00222233Y00568295D01*
X00221202Y00566204D01*
X00219827Y00563416D01*
X00218078Y00558264D01*
X00218078Y00558264D01*
X00217017Y00552929D01*
X00216796Y00549567D01*
X00216661Y00547500D01*
Y00499002D01*
X00214405Y00498318D01*
X00211539Y00496786D01*
X00209026Y00494724D01*
X00206964Y00492211D01*
X00205432Y00489345D01*
X00204489Y00486235D01*
X00204170Y00483000D01*
Y00437000D01*
X00203789Y00436580D01*
X00165529D01*
Y00486519D01*
X00167559Y00488024D01*
X00169933Y00487304D01*
X00174050Y00486898D01*
X00183050D01*
X00187167Y00487304D01*
X00191125Y00488505D01*
X00194773Y00490455D01*
X00197971Y00493079D01*
X00200595Y00496277D01*
X00202545Y00499925D01*
X00203746Y00503883D01*
X00204151Y00508000D01*
Y00527000D01*
X00203746Y00531117D01*
X00202545Y00535075D01*
X00200595Y00538723D01*
X00197971Y00541921D01*
X00194773Y00544545D01*
X00191125Y00546495D01*
X00187167Y00547696D01*
X00183050Y00548102D01*
X00174050D01*
X00169933Y00547696D01*
X00167559Y00546976D01*
X00165529Y00548482D01*
Y00716360D01*
X00247650D01*
X00252232Y00716720D01*
X00255070Y00717402D01*
X00256101Y00715561D01*
D02*
G37*
G36*
X01492500Y00437000D02*
X01421000D01*
Y00483000D01*
X01492500D01*
Y00437000D01*
D02*
G37*
G36*
X01183750Y00491750D02*
X01192625Y00482875D01*
Y00437125D01*
X01192750Y00437000D01*
X01121250D01*
Y00483000D01*
X01121750D01*
Y00530750D01*
X01183750Y00531000D01*
Y00491750D01*
D02*
G37*
G36*
X00893000Y00437000D02*
X00821500D01*
Y00483000D01*
X00893000D01*
Y00437000D01*
D02*
G37*
G36*
X00584500Y00493000D02*
X00592000Y00483000D01*
Y00437000D01*
X00520500D01*
Y00531992D01*
X00584500Y00532250D01*
Y00493000D01*
D02*
G37*
G36*
X00292250Y00437000D02*
X00220750D01*
Y00483000D01*
X00292250D01*
Y00437000D01*
D02*
G37*
G36*
X01783000Y00491250D02*
X01791875Y00482375D01*
Y00436625D01*
X01720625D01*
X01721000Y00437000D01*
Y00530250D01*
X01783000Y00530500D01*
Y00491250D01*
D02*
G37*
G36*
X01885424Y00170000D02*
X01636494D01*
X01635431Y00418562D01*
X01636863Y00420000D01*
X01885424D01*
Y00170000D01*
D02*
G37*
G36*
X01286225D02*
X01037294D01*
X01036231Y00418562D01*
X01037663Y00420000D01*
X01286225D01*
Y00170000D01*
D02*
G37*
G36*
X00685755Y00167460D02*
X00436835D01*
X00435761Y00418562D01*
X00437193Y00420000D01*
X00685755D01*
Y00167460D01*
D02*
G37*
G36*
X01586460Y00050000D02*
X00100770D01*
X00099194Y00418562D01*
X00100626Y00420000D01*
X00390000Y00420000D01*
Y00120000D01*
X00736073D01*
X00734796Y00418562D01*
X00736228Y00420000D01*
X00984790D01*
Y00120000D01*
X01337742D01*
X01336466Y00418562D01*
X01337898Y00420000D01*
X01586460D01*
Y00050000D01*
D02*
G37*
%LPC*%
G36*
X01769900Y01445986D02*
X01760900D01*
X01758316Y01445645D01*
X01755907Y01444648D01*
X01753839Y01443061D01*
X01752253Y01440993D01*
X01751255Y01438584D01*
X01750915Y01436000D01*
Y01417000D01*
X01751255Y01414416D01*
X01752253Y01412007D01*
X01753839Y01409939D01*
X01755907Y01408353D01*
X01758316Y01407355D01*
X01760900Y01407015D01*
X01769900D01*
X01772484Y01407355D01*
X01774893Y01408353D01*
X01776961Y01409939D01*
X01778548Y01412007D01*
X01779545Y01414416D01*
X01779886Y01417000D01*
Y01436000D01*
X01779545Y01438584D01*
X01778548Y01440993D01*
X01776961Y01443061D01*
X01774893Y01444648D01*
X01772484Y01445645D01*
X01769900Y01445986D01*
D02*
G37*
%LPD*%
D10*
X01286789Y00763649D02*
D03*
Y00755775D02*
D03*
D11*
X01752000Y00600500D02*
D03*
X01152750D02*
D03*
X00553500Y00601500D02*
D03*
X01152750Y00517500D02*
D03*
X00553500Y00518500D02*
D03*
X01752000Y00517500D02*
D03*
D12*
X01463040Y00368510D02*
D03*
X00863600D02*
D03*
X00262890D02*
D03*
X00562610D02*
D03*
X01762760D02*
D03*
X01163320D02*
D03*
D13*
X00600710Y00460010D02*
D03*
X00524510D02*
D03*
X00575310D02*
D03*
X00537210D02*
D03*
X00549910D02*
D03*
X00588010D02*
D03*
X00288290D02*
D03*
X00275590D02*
D03*
X00250190D02*
D03*
X00237490D02*
D03*
X00224790D02*
D03*
X01188720D02*
D03*
X01176020D02*
D03*
X01150620D02*
D03*
X01137920D02*
D03*
X01125220D02*
D03*
X01201420D02*
D03*
X00300990D02*
D03*
X01724660D02*
D03*
X01737360D02*
D03*
X01750060D02*
D03*
X01775460D02*
D03*
X01788160D02*
D03*
X01800860D02*
D03*
X01424940D02*
D03*
X01437640D02*
D03*
X01450340D02*
D03*
X01475740D02*
D03*
X01488440D02*
D03*
X01501140D02*
D03*
X00901700D02*
D03*
X00825500D02*
D03*
X00838200D02*
D03*
X00850900D02*
D03*
X00876300D02*
D03*
X00889000D02*
D03*
D14*
X01574208Y00786500D02*
X01579208D01*
X01564500Y00796208D02*
Y00819970D01*
Y00796208D02*
X01574208Y00786500D01*
X01548000Y00836470D02*
X01564500Y00819970D01*
X01579208Y00786500D02*
X01596958Y00768750D01*
X01714646D01*
X01753750Y00807854D01*
X01745052Y00837730D02*
X01746932D01*
X01737652Y00845130D02*
X01745052Y00837730D01*
X01754840Y00809638D02*
Y00829821D01*
X01746932Y00837730D02*
X01754840Y00829821D01*
X01731840Y00845130D02*
X01737652D01*
X01753750Y00808548D02*
X01754840Y00809638D01*
X01753750Y00807854D02*
Y00808548D01*
X01761222Y00798356D02*
X01766840Y00803973D01*
X01373250Y00522014D02*
X01556318Y00705082D01*
X01761222Y00705050D02*
Y00798356D01*
X01745594Y00941656D02*
X01766840Y00920410D01*
Y00803973D02*
Y00920410D01*
X01658786Y00705050D02*
X01761222D01*
X01658754Y00705082D02*
X01658786Y00705050D01*
X01556318Y00705082D02*
X01658754D01*
X01373930D02*
X01556318D01*
X01747369Y00605131D02*
X01761222Y00618984D01*
X01712250Y00584962D02*
X01727200D01*
X01550924Y00877570D02*
X01724800D01*
X01736914Y00941656D02*
X01745594D01*
X01731840Y00946730D02*
X01736914Y00941656D01*
X00771550Y00706850D02*
X00787368D01*
X01546860Y00491750D02*
X01585452D01*
X01595733Y00502031D01*
X01600875D01*
X01263250Y00570409D02*
Y00614050D01*
Y00570409D02*
X01275159Y00558500D01*
X01258550Y00618750D02*
X01263250Y00614050D01*
X01339789Y00564388D02*
X01344930D01*
X01333901Y00558500D02*
X01339789Y00564388D01*
X01275159Y00558500D02*
X01333901D01*
X01065700Y00619750D02*
Y00634550D01*
X00798068Y00662686D02*
X01037564D01*
X01065700Y00634550D01*
X00863600Y00417322D02*
X00970000D01*
X00844850Y01359196D02*
Y01435600D01*
X00826008Y00417322D02*
X00863600D01*
X00820398Y00411712D02*
X00820398Y00411712D01*
X00775716Y00367030D02*
X00820398Y00411712D01*
X01934950Y00742950D02*
X01949250Y00757250D01*
X01409800Y01162050D02*
X01425850Y01146000D01*
X01708960D01*
X01785040Y01069920D01*
X01391158Y01067158D02*
Y01198626D01*
X01241298Y00886048D02*
Y00917298D01*
X01391158Y01067158D01*
X01222604Y00867354D02*
X01241298Y00886048D01*
X01213944Y00867354D02*
X01222604D01*
X01208870Y00862280D02*
X01213944Y00867354D01*
X01026922Y00914400D02*
Y00935750D01*
X00991616Y00879094D02*
X01026922Y00914400D01*
X01177300Y00982550D02*
X01177750Y00983000D01*
X01177300Y00961200D02*
Y00982550D01*
X01201407Y01026893D02*
X01251799D01*
X01278500Y01053594D01*
Y01071406D01*
X01245310Y01104595D02*
X01278500Y01071406D01*
X01240788Y01104595D02*
X01245310D01*
X01186275Y01133475D02*
X01257000Y01062750D01*
Y01062500D02*
Y01062750D01*
X01186275Y01133475D02*
Y01188262D01*
X01151275Y01198600D02*
X01156349Y01193526D01*
X01164041D01*
X01174275Y01183292D01*
Y01137708D02*
Y01183292D01*
X01164250Y01127683D02*
X01174275Y01137708D01*
X01164250Y01089450D02*
Y01127683D01*
X01193491Y01198017D02*
X01198275Y01193233D01*
X01193491Y01198017D02*
Y01245655D01*
X01181491Y01193046D02*
X01186275Y01188262D01*
X01181491Y01193046D02*
Y01214759D01*
X01198275Y01147109D02*
X01240788Y01104595D01*
X01198275Y01147109D02*
Y01193233D01*
X01174324Y01053976D02*
X01201407Y01026893D01*
X01168438Y01064050D02*
X01174324Y01058164D01*
X01201483Y01253647D02*
X01226428D01*
X01230675Y01249400D01*
X01193491Y01245655D02*
X01201483Y01253647D01*
X01164250Y01064050D02*
X01168438D01*
X01174324Y01053976D02*
Y01058164D01*
X01172250Y01224000D02*
X01181491Y01214759D01*
X01145463Y01198600D02*
X01151275D01*
X01138063Y01206000D02*
X01145463Y01198600D01*
Y01249400D02*
X01151275D01*
X01138063Y01242000D02*
X01145463Y01249400D01*
X01136183Y01242000D02*
X01138063D01*
X01136183Y01206000D02*
X01138063D01*
X01128275Y01213908D02*
Y01234092D01*
Y01213908D02*
X01136183Y01206000D01*
X01128275Y01234092D02*
X01136183Y01242000D01*
X01177300Y00961200D02*
X01194946Y00943554D01*
X01203796D01*
X01208870Y00938480D01*
X01877500Y00911810D02*
X01884900Y00904410D01*
X01740000Y01172500D02*
Y01426500D01*
X01867550Y00618750D02*
X01873550Y00612750D01*
X01389938Y00911810D02*
X01484122Y00817626D01*
X01271750Y00911810D02*
X01389938D01*
X01934950Y00555280D02*
Y00742950D01*
X01873550Y00567608D02*
Y00612750D01*
X01877523Y00558664D02*
Y00563635D01*
X01873550Y00567608D02*
X01877523Y00563635D01*
X01895421Y00515750D02*
X01934950Y00555280D01*
X01877609Y00515750D02*
X01895421D01*
X01865015Y00546155D02*
X01877523Y00558664D01*
X01865015Y00528344D02*
Y00546155D01*
Y00528344D02*
X01877609Y00515750D01*
X00686359Y00658750D02*
X00746750D01*
X00655050Y00627441D02*
X00686359Y00658750D01*
X00655050Y00619750D02*
Y00627441D01*
X01357728Y01446022D02*
X01426054Y01377696D01*
X01151275Y01224000D02*
X01172250D01*
X00736750Y00605750D02*
Y00609750D01*
X00712750Y00581750D02*
X00736750Y00605750D01*
X00680750Y00581750D02*
X00712750D01*
X00680450Y00600756D02*
X00680750Y00600456D01*
X00680450Y00600756D02*
Y00619750D01*
X00680750Y00581750D02*
Y00600456D01*
X01235000Y01325125D02*
Y01345750D01*
X01230675Y01274800D02*
Y01300200D01*
Y01320800D01*
X01235000Y01325125D01*
X01236487Y01198600D02*
X01254583D01*
X01338834Y01090441D02*
Y01117916D01*
X01258150Y01198600D02*
X01338834Y01117916D01*
X01345250Y01285706D02*
Y01420250D01*
X01258150Y01198600D02*
Y01198606D01*
X01345250Y01285706D01*
X01230675Y01198600D02*
X01236487D01*
X01254583D02*
X01258150D01*
X01283950Y00618750D02*
X01338834Y00673634D01*
X01283950Y00600744D02*
X01285000Y00599694D01*
X01283950Y00600744D02*
Y00618750D01*
X01285000Y00581750D02*
Y00599694D01*
X01821250Y00992012D02*
Y01111650D01*
Y00992012D02*
X01831040Y00982222D01*
X01765400Y01167500D02*
X01821250Y01111650D01*
X01831040Y00860438D02*
Y00982222D01*
X01765400Y01167500D02*
Y01172500D01*
X01818926Y00850203D02*
X01820806D01*
X01877500Y00886410D02*
X01922950Y00840959D01*
X01820806Y00850203D02*
X01831040Y00860438D01*
X01808040Y00845130D02*
X01813852D01*
X01818926Y00850203D01*
X01922950Y00562138D02*
Y00840959D01*
X01907562Y00546750D02*
X01922950Y00562138D01*
X01901156Y00546750D02*
X01907562D01*
X01891656Y00537250D02*
X01901156Y00546750D01*
X01886515Y00537250D02*
X01891656D01*
X00635086Y00832806D02*
X00640160Y00837880D01*
X00627556Y00832806D02*
X00635086D01*
X00625230Y00830480D02*
X00627556Y00832806D01*
X00625068Y00830480D02*
X00625230D01*
X00617160Y00822410D02*
Y00822572D01*
X00625068Y00830480D01*
X00521563Y00758646D02*
X00553396D01*
X00617160Y00822410D01*
X00443050Y00680133D02*
X00521563Y00758646D01*
X00443050Y00619750D02*
Y00680133D01*
X01885550Y00606765D02*
Y00631978D01*
Y00606765D02*
Y00631978D01*
Y00606765D02*
Y00631978D01*
X01845371Y00649522D02*
Y00984861D01*
Y00649522D02*
X01853143Y00641750D01*
X01833250Y00996982D02*
X01845371Y00984861D01*
X01875778Y00641750D02*
X01885550Y00631978D01*
X01853143Y00641750D02*
X01875778D01*
X01833250Y00996982D02*
Y01467250D01*
X01892500Y00603250D02*
X01892950Y00618750D01*
X01892500Y00581750D02*
Y00603250D01*
X01885550Y00606765D02*
Y00618750D01*
Y00631978D01*
X01889065Y00603250D02*
X01892500D01*
X01885550Y00606765D02*
X01889065Y00603250D01*
X01160732Y01396232D02*
X01188974D01*
X01116275Y01351775D02*
X01160732Y01396232D01*
X01116275Y01188975D02*
X01131789Y01173461D01*
X01116275Y01188975D02*
Y01351775D01*
X01151015Y01173461D02*
X01151275Y01173200D01*
X01131789Y01173461D02*
X01151015D01*
X01235749Y01229074D02*
X01244074D01*
X01229938D02*
X01235749D01*
X00820398Y00411712D02*
X00826008Y00417322D01*
X01752000Y00517500D02*
X01791220D01*
X00526375Y00598125D02*
Y00611125D01*
Y00598125D02*
Y00611125D01*
Y00598125D02*
Y00611125D01*
X01727200Y00584962D02*
X01747369Y00605131D01*
X01226487Y01173200D02*
X01230675D01*
X01220601Y01179086D02*
X01226487Y01173200D01*
X01372500Y01074078D02*
Y01303158D01*
X01231870Y00933448D02*
X01372500Y01074078D01*
X01231870Y00928388D02*
Y00933448D01*
X00526375Y00601500D02*
Y00611125D01*
Y00598125D02*
Y00601500D01*
X00586959Y00923710D02*
Y00940680D01*
X00573633Y00917941D02*
X00581191D01*
X01104275Y01026104D02*
Y01392057D01*
Y01026104D02*
X01155670Y00974709D01*
X01752000Y00517500D02*
X01791220D01*
X01104275Y01392057D02*
X01171702Y01459484D01*
X01185993Y00923295D02*
Y00928265D01*
X01185870Y00898130D02*
Y00923172D01*
X01204599Y00891951D02*
X01208870Y00887680D01*
X01185870Y00923172D02*
X01185993Y00923295D01*
X01155670Y00958588D02*
X01185993Y00928265D01*
X01185870Y00898130D02*
X01192049Y00891951D01*
X01204599D01*
X01155670Y00958588D02*
Y00974709D01*
X01109670Y00801388D02*
Y00905847D01*
X01114241Y00910417D02*
X01130007D01*
X01109670Y00905847D02*
X01114241Y00910417D01*
X01130007D02*
X01132670Y00913080D01*
X01109670Y00801388D02*
X01110726Y00800332D01*
Y00791274D02*
X01132250Y00769750D01*
X01110726Y00791274D02*
Y00800332D01*
X01222081Y00920480D02*
X01223961D01*
X01231870Y00928388D01*
X01208870Y00913080D02*
X01214682D01*
X01222081Y00920480D01*
X01372500Y01303158D02*
X01396092Y01326750D01*
X01298194Y01283194D02*
Y01423416D01*
X01244074Y01229074D02*
X01298194Y01283194D01*
X01426054Y01377696D02*
X01549400D01*
X01320800Y01446022D02*
X01357728D01*
X01396092Y01326750D02*
X01610250D01*
X01785040Y00911238D02*
Y01069920D01*
X01792948Y00903330D02*
X01794828D01*
X01802229Y00895930D01*
X01808040D01*
X01785040Y00911238D02*
X01792948Y00903330D01*
X01561697Y00581750D02*
X01649599Y00493849D01*
X01632458Y00421292D02*
X01660500Y00393250D01*
X01661250Y00392500D01*
X01649599Y00438433D02*
Y00493849D01*
X01632458Y00421292D02*
X01649599Y00438433D01*
X01546860Y00581750D02*
X01561697D01*
X00703500Y00969500D02*
X00871000D01*
X00653154Y00919154D02*
X00703500Y00969500D01*
X00525500Y00597250D02*
X00526375Y00598125D01*
X00509500Y00597250D02*
X00525500D01*
X00526375Y00611125D02*
X00534125D01*
X00535000Y00612000D02*
Y00634250D01*
X00534125Y00611125D02*
X00535000Y00612000D01*
X00787368Y00706850D02*
X00787400Y00706882D01*
X01115060D01*
X01761222Y00618984D02*
Y00705050D01*
X01298194Y01423416D02*
X01320800Y01446022D01*
X01171702Y01459484D02*
X01540764D01*
X01562200Y01438048D01*
X00581191Y00917941D02*
X00586959Y00923710D01*
X00587710Y00924459D02*
X00611550Y00948300D01*
X00563960Y00914080D02*
X00569772D01*
X00573633Y00917941D01*
X00586960Y00940680D02*
Y00974972D01*
X00586959Y00940680D02*
X00586960D01*
X00546265Y00982880D02*
X00579051D01*
X00542750Y00986395D02*
X00546265Y00982880D01*
X00579051D02*
X00586960Y00974972D01*
X00542750Y00986395D02*
Y01068022D01*
X00584200Y01109472D01*
X00611550Y00948300D02*
Y01060600D01*
X00640160Y00914080D02*
X00645234Y00919154D01*
X00653154D01*
X00244750Y00676500D02*
X00365490Y00797240D01*
X00428630D01*
X01369768Y00705082D02*
X01373930D01*
X01311656Y00706882D02*
X01367968D01*
X01562200Y01426500D02*
Y01438048D01*
X01409800Y01162050D02*
Y01172500D01*
X01549400Y01377696D02*
X01587600Y01415896D01*
Y01426500D01*
X01638400D02*
X01645830Y01419070D01*
Y01308100D02*
Y01419070D01*
X01567598Y01229868D02*
X01645830Y01308100D01*
X01422400Y01229868D02*
X01567598D01*
X01391158Y01198626D02*
X01422400Y01229868D01*
X00818830Y00863280D02*
X00883666Y00928116D01*
X00640160Y00863280D02*
X00818830D01*
X01115060Y00706882D02*
X01181052Y00772874D01*
Y00855724D01*
X01115060Y00706882D02*
X01311656D01*
X01761222Y00705050D02*
X01801300D01*
X01164336Y00652526D02*
X01189482Y00627380D01*
X01159500Y00921283D02*
Y00934965D01*
Y00921283D02*
X01159510Y00921273D01*
X01155985Y00938480D02*
X01159500Y00934965D01*
X01159510Y00877266D02*
X01181052Y00855724D01*
X01159510Y00877266D02*
Y00921273D01*
X01132670Y00938480D02*
X01155985D01*
X01115028Y00706850D02*
X01115060Y00706882D01*
X01107186Y00699008D02*
X01115028Y00706850D01*
X01189482Y00600500D02*
Y00627380D01*
X01152750Y00600500D02*
X01189482D01*
X01107186Y00598170D02*
Y00699008D01*
X00771500Y00518450D02*
Y00690982D01*
X00844850Y01359196D02*
X00972296Y01231750D01*
X01004000D02*
X01041000Y01268750D01*
X00972296Y01231750D02*
X01004000D01*
X01570000Y00410000D02*
Y00416972D01*
X00970000Y00410000D02*
Y00417322D01*
X00350000Y00410000D02*
Y00416972D01*
X00584200Y01109472D02*
X00769258D01*
X00941750Y00936980D01*
X01548000Y00773300D02*
Y00836470D01*
X01540700Y00766000D02*
X01548000Y00773300D01*
X01600300Y00804490D02*
X01656180Y00860370D01*
X01693000D01*
X00909066Y00879094D02*
X00991616D01*
X00941750Y00766710D02*
Y00828220D01*
X00934450Y00759410D02*
X00941750Y00766710D01*
X01791220Y00517500D02*
X01855470Y00581750D01*
X01724800Y00877570D02*
X01731840Y00870530D01*
X01515300Y00841946D02*
X01550924Y00877570D01*
X01515300Y00766000D02*
Y00841946D01*
X01693000Y00840214D02*
Y00860370D01*
Y00840214D02*
X01713484Y00819730D01*
X01731840D01*
X00521330Y00939452D02*
Y00968690D01*
Y00939452D02*
X00524030Y00936752D01*
Y00907730D02*
Y00936752D01*
X01076750Y00938436D02*
Y00967690D01*
Y00938436D02*
X01079450Y00935736D01*
Y00906730D02*
Y00935736D01*
X01076750Y00825406D02*
Y00852120D01*
Y00825406D02*
X01079450Y00822706D01*
Y00796240D02*
Y00822706D01*
X01693000Y00946564D02*
Y00975940D01*
Y00946564D02*
X01695700Y00943864D01*
Y00914980D02*
Y00943864D01*
X00431330Y00826422D02*
Y00853120D01*
X00428630Y00823722D02*
X00431330Y00826422D01*
X00428630Y00797240D02*
Y00823722D01*
X00431330Y00939452D02*
Y00968690D01*
X00428630Y00936752D02*
X00431330Y00939452D01*
X00428630Y00907730D02*
Y00936752D01*
X00986750Y00825406D02*
Y00852120D01*
X00984050Y00822706D02*
X00986750Y00825406D01*
X00984050Y00796240D02*
Y00822706D01*
X00986750Y00938436D02*
Y00967690D01*
X00984050Y00935736D02*
X00986750Y00938436D01*
X00984050Y00906730D02*
Y00935736D01*
X01603000Y00946564D02*
Y00975940D01*
X01600300Y00943864D02*
X01603000Y00946564D01*
X01600300Y00914980D02*
Y00943864D01*
X00244750Y00606500D02*
Y00676500D01*
X01152750Y00517500D02*
X01163250Y00528000D01*
X01191500D01*
X01245250Y00581750D01*
X00553500Y00518500D02*
X00564000Y00529000D01*
X00584789D01*
X00637540Y00581750D01*
D15*
X01546860Y00583250D02*
X01582000D01*
X01546860D02*
X01582000D01*
X01493750D02*
X01582000D01*
X01493750D02*
X01582000D01*
X01493750D02*
X01546860D01*
X01493750D02*
X01546860D01*
X01493750D02*
X01546860D01*
X01582000D01*
X01660500Y00393250D02*
X01661250Y00392500D01*
X00339000Y00583500D02*
X00382500D01*
X00294250D02*
X00339000D01*
X00294250D02*
X00339000D01*
X00382500D01*
X00339000D02*
X00382500D01*
X00294250D02*
X00339000D01*
X00382500D01*
X00294250D02*
X00339000D01*
X00382500D01*
X00294250D02*
X00339000D01*
X01582000Y00583250D02*
X01660500Y00504750D01*
Y00393250D02*
Y00504750D01*
X00597000Y00706000D02*
X00770700D01*
X00557000D02*
X00597000D01*
X00517000D02*
X00557000D01*
X00123940Y01169830D02*
X00250000Y01043770D01*
X00123940Y00959010D02*
Y01064420D01*
Y01169830D01*
X00250000Y00930000D02*
Y01043770D01*
X00123940Y00852330D02*
Y00959010D01*
Y01169830D02*
Y01275240D01*
Y00519000D02*
Y00745650D01*
Y00852330D01*
Y00396060D02*
X00140000Y00380000D01*
X00123940Y00396060D02*
Y00519000D01*
X00888125Y00574875D02*
X00895000Y00581750D01*
X00941070D01*
X00859000Y00545750D02*
X00888125Y00574875D01*
X00258250Y00547500D02*
X00294250Y00583500D01*
X00461000Y00403000D02*
Y00505000D01*
X00382500Y00583500D02*
X00461000Y00505000D01*
X00258250Y00464000D02*
Y00547500D01*
X01457750Y00463750D02*
Y00547250D01*
X01493750Y00583250D01*
X01061750Y00401250D02*
Y00503250D01*
X00941070Y00581750D02*
X00983250D01*
X01061750Y00503250D01*
X00859000Y00462250D02*
Y00545750D01*
D16*
X00873850Y01467000D02*
X00876250D01*
X00844850Y01438000D02*
X00873850Y01467000D01*
X00844850Y01431000D02*
Y01438000D01*
X00611550Y01467000D02*
X00647550Y01431000D01*
X00844850D01*
X00360330Y01215780D02*
X00611550Y01467000D01*
X00360330Y00858330D02*
Y01215780D01*
X00247650Y00745650D02*
X00360330Y00858330D01*
X00123940Y00745650D02*
X00247650D01*
D17*
X01373930Y00522630D02*
Y00705082D01*
X00771550Y00518450D02*
Y00691032D01*
Y00706850D01*
X00497330Y00800580D02*
Y00863626D01*
X00562434Y00864806D02*
X00563960Y00863280D01*
X00536836Y00872120D02*
X00544151Y00864806D01*
X00497330Y00863626D02*
X00505824Y00872120D01*
X00430250Y00733500D02*
X00497330Y00800580D01*
X00505824Y00872120D02*
X00536836D01*
X00544151Y00864806D02*
X00562434D01*
X00370526Y00733500D02*
X00430250D01*
X00365840Y00738186D02*
X00370526Y00733500D01*
X00365840Y00738186D02*
Y00760410D01*
X00339000Y00733570D02*
X00365840Y00760410D01*
X01369750Y00518450D02*
X01373930Y00522630D01*
X01369750Y00418499D02*
Y00493050D01*
X01369500Y00418250D02*
X01369750Y00418499D01*
X00771500Y00416750D02*
Y00493050D01*
X00770750Y00416000D02*
X00771500Y00416750D01*
X00125440Y00517500D02*
X00178550D01*
X00123940Y00519000D02*
X00125440Y00517500D01*
X00339000Y00583500D02*
Y00733570D01*
Y00581750D02*
Y00583500D01*
D18*
X01201420Y00460010D02*
X01213510D01*
X01823730D02*
X01855470Y00491750D01*
X01800860Y00460010D02*
X01823730D01*
X01515120D02*
X01546860Y00491750D01*
X01501140Y00460010D02*
X01515120D01*
X01213510D02*
X01245250Y00491750D01*
X00929829Y00480510D02*
X00941070Y00491750D01*
X00903200Y00480510D02*
X00929829D01*
X00901700Y00479010D02*
X00903200Y00480510D01*
X00901700Y00460010D02*
Y00479010D01*
X00626219Y00480429D02*
X00637540Y00491750D01*
X00602210Y00480429D02*
X00626219D01*
X00600710Y00478929D02*
X00602210Y00480429D01*
X00600710Y00460010D02*
Y00478929D01*
X00302490Y00480429D02*
X00327679D01*
X00300990Y00478929D02*
X00302490Y00480429D01*
X00300990Y00460010D02*
Y00478929D01*
X00327679Y00480429D02*
X00339000Y00491750D01*
D19*
X00244500Y01235500D02*
X00250000Y01230000D01*
X00244500Y01235500D02*
Y01386000D01*
D20*
X01164250Y01089450D02*
D03*
X01877500Y00911810D02*
D03*
X01271750D02*
D03*
X00704930Y00912810D02*
D03*
X01369750Y00518450D02*
D03*
X00771500D02*
D03*
D21*
X01164250Y01064050D02*
D03*
X01877500Y00886410D02*
D03*
X01271750D02*
D03*
X00704930Y00887410D02*
D03*
X00771500Y00493050D02*
D03*
X01369750D02*
D03*
X00951000Y01326450D02*
D03*
D22*
X01765400Y01426500D02*
D03*
X00876250Y01060600D02*
D03*
X01740000Y01426500D02*
D03*
Y01172500D02*
D03*
X00997950Y01268750D02*
D03*
X01486000Y01426500D02*
D03*
X00680750Y00581750D02*
D03*
X01613000Y01426500D02*
D03*
X01511400D02*
D03*
X01285000Y00581750D02*
D03*
X01765400Y01172500D02*
D03*
X01892500Y00581750D02*
D03*
X01435200Y01426500D02*
D03*
X00284500Y01480000D02*
D03*
X00095500D02*
D03*
X01409800Y01426500D02*
D03*
X01460600D02*
D03*
X01536800D02*
D03*
X01562200D02*
D03*
X01587600D02*
D03*
X01638400D02*
D03*
X01663800D02*
D03*
X01689200D02*
D03*
X01714600D02*
D03*
X01409800Y01172500D02*
D03*
X01435200D02*
D03*
X01460600D02*
D03*
X01486000D02*
D03*
X01511400D02*
D03*
X01536800D02*
D03*
X01562200D02*
D03*
X01587600D02*
D03*
X01613000D02*
D03*
X01638400D02*
D03*
X01663800D02*
D03*
X01689200D02*
D03*
X01714600D02*
D03*
X00698450Y01467000D02*
D03*
Y01060600D02*
D03*
X00433750Y01467000D02*
D03*
Y01060600D02*
D03*
X00876250Y01467000D02*
D03*
X01041000Y01268750D02*
D03*
X00611550Y01467000D02*
D03*
X00637540Y00581750D02*
D03*
Y00491750D02*
D03*
X00941750Y00936980D02*
D03*
X01548000Y00945230D02*
D03*
X00393780Y00937980D02*
D03*
X01546860Y00581750D02*
D03*
Y00491750D02*
D03*
X00941070Y00581750D02*
D03*
Y00491750D02*
D03*
X00339000Y00581750D02*
D03*
X01245250Y00491750D02*
D03*
Y00581750D02*
D03*
X01285000Y00491750D02*
D03*
X00680750D02*
D03*
X00339000D02*
D03*
X01855470Y00581750D02*
D03*
Y00491750D02*
D03*
X01892500D02*
D03*
X01041000Y01358750D02*
D03*
X00997950D02*
D03*
X00611550Y01060600D02*
D03*
D23*
X01230675Y01249400D02*
D03*
X01808040Y00946730D02*
D03*
X01208870Y00938480D02*
D03*
X01151275Y01249400D02*
D03*
Y01198600D02*
D03*
X00640160Y00939480D02*
D03*
X01151275Y01224000D02*
D03*
X01230675Y01274800D02*
D03*
Y01300200D02*
D03*
X01151275D02*
D03*
Y01274800D02*
D03*
Y01173200D02*
D03*
Y01147800D02*
D03*
X01230675Y01173200D02*
D03*
Y01224000D02*
D03*
Y01147800D02*
D03*
Y01198600D02*
D03*
X01235000Y01345750D02*
D03*
X01808040Y00845130D02*
D03*
X01208870Y00836880D02*
D03*
X01145000Y01345750D02*
D03*
X00640160Y00837880D02*
D03*
X01731840Y00946730D02*
D03*
X01132670Y00938480D02*
D03*
X00563960Y00939480D02*
D03*
X00431330Y00968690D02*
D03*
X00521330D02*
D03*
Y00853120D02*
D03*
X00431330D02*
D03*
X01132670Y00963880D02*
D03*
Y00913080D02*
D03*
Y00887680D02*
D03*
Y00862280D02*
D03*
Y00836880D02*
D03*
Y00811480D02*
D03*
X01208870D02*
D03*
Y00963880D02*
D03*
Y00913080D02*
D03*
Y00862280D02*
D03*
Y00887680D02*
D03*
X01589300Y00804500D02*
D03*
X01808040Y00972130D02*
D03*
Y00819730D02*
D03*
X01731840D02*
D03*
Y00845130D02*
D03*
Y00870530D02*
D03*
Y00895930D02*
D03*
Y00921330D02*
D03*
Y00972130D02*
D03*
X01808040Y00895930D02*
D03*
Y00921330D02*
D03*
Y00870530D02*
D03*
X00524030Y00907730D02*
D03*
Y00797240D02*
D03*
X01079450Y00906730D02*
D03*
Y00796240D02*
D03*
X00986750Y00852120D02*
D03*
X01076750D02*
D03*
X00986750Y00967690D02*
D03*
X01076750D02*
D03*
X01693000Y00975940D02*
D03*
X01603000D02*
D03*
X01598000Y00855000D02*
D03*
X01688000D02*
D03*
X01695700Y00914980D02*
D03*
X00563960Y00863280D02*
D03*
X00640160Y00914080D02*
D03*
Y00888680D02*
D03*
Y00863280D02*
D03*
X00563960Y00964880D02*
D03*
Y00914080D02*
D03*
Y00888680D02*
D03*
Y00837880D02*
D03*
Y00812480D02*
D03*
X00640160D02*
D03*
Y00964880D02*
D03*
D24*
X01867550Y00618750D02*
D03*
X01258550D02*
D03*
X00655050Y00619750D02*
D03*
X00123940Y01275240D02*
D03*
Y01169830D02*
D03*
Y01064420D02*
D03*
Y00852330D02*
D03*
Y00745650D02*
D03*
Y00959010D02*
D03*
X00365840Y00760410D02*
D03*
X00909050Y00759410D02*
D03*
X01515300Y00766000D02*
D03*
D25*
X01660950Y00618751D02*
D03*
X01065700Y00619750D02*
D03*
X00468450D02*
D03*
X00203950Y00517500D02*
D03*
D26*
X00951000Y01301050D02*
D03*
D27*
X00680450Y00619750D02*
D03*
X01283950Y00618750D02*
D03*
X01635550Y00618751D02*
D03*
X01040300Y00619750D02*
D03*
X00443050D02*
D03*
X01892950Y00618750D02*
D03*
X00073940Y01275240D02*
D03*
Y01169830D02*
D03*
Y00745650D02*
D03*
Y00852330D02*
D03*
Y00959010D02*
D03*
Y01064420D02*
D03*
X00178550Y00517500D02*
D03*
X00391240Y00760410D02*
D03*
X00934450Y00759410D02*
D03*
X01540700Y00766000D02*
D03*
D28*
X00244500Y01386000D02*
D03*
D29*
X00135500D02*
D03*
D30*
X00250000Y00930000D02*
D03*
Y01230000D02*
D03*
D31*
X01768500Y00260000D02*
D03*
X01166500D02*
D03*
X00558000D02*
D03*
D32*
X00941750Y00828220D02*
D03*
X01548000Y00836470D02*
D03*
X00393780Y00829220D02*
D03*
D33*
X01684700Y00804500D02*
D03*
D34*
X00428630Y00907730D02*
D03*
Y00797240D02*
D03*
X00984050Y00906730D02*
D03*
Y00796240D02*
D03*
X01600300Y00914980D02*
D03*
D35*
X00050000Y01450000D02*
D03*
X01950000D02*
D03*
Y00050000D02*
D03*
X00050000D02*
D03*
D36*
X01345250Y01420250D02*
D03*
X01344930Y00564388D02*
D03*
X00871000Y00969500D02*
D03*
X01610250Y01326750D02*
D03*
X00553000Y00497500D02*
D03*
X01338834Y00673634D02*
D03*
X00736750Y00609750D02*
D03*
X01188974Y01396232D02*
D03*
X01833250Y01467250D02*
D03*
X00883666Y00928116D02*
D03*
X01114000Y00597000D02*
D03*
X00746750Y00658750D02*
D03*
X01752750Y00500250D02*
D03*
X00509500Y00597250D02*
D03*
X01484122Y00817626D02*
D03*
X01026922Y00935750D02*
D03*
X00798068Y00662686D02*
D03*
X01152750Y00499250D02*
D03*
X00517000Y00706000D02*
D03*
X00557000D02*
D03*
X00244750Y00606500D02*
D03*
X00909066Y00879094D02*
D03*
X01132250Y00769750D02*
D03*
X00597000Y00706000D02*
D03*
X01338834Y01090441D02*
D03*
X01712250Y00594000D02*
D03*
X01257000Y01062500D02*
D03*
X01600875Y00502031D02*
D03*
X01886515Y00537250D02*
D03*
M02*
